<?xml version="1.0" encoding="UTF-8"?>
<svg width="106px" height="33px" viewBox="0 0 106 33" version="1.1" xmlns="http://www.w3.org/2000/svg" xmlns:xlink="http://www.w3.org/1999/xlink">
    <!-- Generator: Sketch 51.1 (57501) - http://www.bohemiancoding.com/sketch -->
    <title>logo-latam-mu</title>
    <desc>Created with Sketch.</desc>
    <defs></defs>
    <g id="Page-1" stroke="none" stroke-width="1" fill="none" fill-rule="evenodd">
        <g id="Editor-Options" transform="translate(-20.000000, -9.000000)" fill-rule="nonzero">
            <g id="Header">
                <g id="logo-latam-mu" transform="translate(20.000000, 9.000000)">
                    <path d="M60.8864865,17.9277108 L64.1189189,17.9277108 L64.1189189,8.74698795 L69.7405405,8.38554217 L69.7405405,6 L55.2648649,6 L55.2648649,8.38554217 L60.8864865,8.74698795 L60.8864865,17.9277108 Z M37.7675676,17.9277108 L39.1027027,15.1807229 L31.3027027,15.1807229 L31.3027027,6 L28,6 L28,17.9277108 L37.7675676,17.9277108 Z M50.1351351,13.3012048 L45.8486486,13.3012048 L48.027027,8.53012048 L50.1351351,13.3012048 Z M79.0864865,13.3012048 L74.8,13.3012048 L76.9783784,8.53012048 L79.0864865,13.3012048 Z M93.7027027,15.0361446 C93.8432432,15.4698795 94.3351351,15.7590361 94.827027,15.7590361 L98.1297297,15.7590361 L100.589189,8.74698795 L102.908108,18 L106,18 L103.4,7.44578313 C103.189189,6.36144578 102.556757,6.07228916 101.643243,6.07228916 L98.4108108,6.07228916 L96.0918919,13.0843373 L94.2648649,7.15662651 C93.9837838,6.43373494 93.5621622,6.07228916 92.8594595,6.07228916 L89.2054054,6.07228916 L86.1837838,18 L89.3459459,18 L91.6648649,8.74698795 L93.7027027,15.0361446 Z M81.2648649,17.9277108 L84.7783784,17.9277108 L79.2972973,6.79518072 C79.0162162,6.21686747 78.7351351,6 78.0324324,6 L74.9405405,6 L69.1081081,17.9277108 L72.6216216,17.9277108 L73.6756757,15.7590361 L80.1405405,15.7590361 L81.2648649,17.9277108 Z M52.2432432,17.9277108 L55.7567568,17.9277108 L50.2756757,6.79518072 C49.9945946,6.21686747 49.7135135,6 49.0108108,6 L45.9891892,6 L40.1567568,17.9277108 L43.6702703,17.9277108 L44.7243243,15.7590361 L51.1891892,15.7590361 L52.2432432,17.9277108 Z" id="Shape" fill="#FFFFFF"></path>
                    <g id="Group" transform="translate(27.000000, 25.000000)" fill="#FFFFFF">
                        <path d="M4.40442478,0.290909091 L3.84513274,0.290909091 L0.279646018,7.78181818 L0.209734513,7.85454545 L1.18849558,7.85454545 L2.16725664,5.81818182 L6.50176991,5.81818182 L7.48053097,7.85454545 L8.45929204,7.85454545 L5.03362832,0.654545455 C4.89380531,0.363636364 4.6840708,0.290909091 4.40442478,0.290909091 Z M6.08230088,4.94545455 L2.58672566,4.94545455 L4.33451327,1.23636364 L6.08230088,4.94545455 Z" id="Shape"></path>
                        <rect id="Rectangle-path" x="13.5628319" y="0.290909091" width="1" height="7.56363636"></rect>
                        <path d="M26.8460177,2.69090909 C26.8460177,1.16363636 25.7274336,0.218181818 23.979646,0.218181818 L20.2743363,0.218181818 L20.2743363,7.78181818 L21.1831858,7.78181818 L21.1831858,5.09090909 C21.6725664,5.30909091 22.5115044,5.52727273 23.280531,5.52727273 C23.6300885,5.52727273 23.979646,5.52727273 24.3292035,5.45454545 L25.7973451,7.85454545 L26.9159292,7.85454545 L25.3079646,5.16363636 C26.2867257,4.72727273 26.8460177,3.85454545 26.8460177,2.69090909 Z M21.1831858,1.16363636 L23.9097345,1.16363636 C25.7274336,1.16363636 25.9371681,2.25454545 25.9371681,2.69090909 C25.9371681,3.85454545 24.9584071,4.50909091 23.2106195,4.50909091 C22.5115044,4.50909091 21.7424779,4.36363636 21.1831858,4.07272727 L21.1831858,1.16363636 Z" id="Shape"></path>
                        <polygon id="Shape" points="32.9283186 0.290909091 32.019469 0.290909091 32.019469 7.85454545 37.2628319 7.85454545 37.2628319 6.98181818 32.9283186 6.98181818"></polygon>
                        <rect id="Rectangle-path" x="42.2964602" y="0.290909091" width="1" height="7.56363636"></rect>
                        <path d="M55.439823,6.47272727 L50.0566372,0.436363636 C49.9867257,0.363636364 49.9168142,0.290909091 49.7769912,0.290909091 L49.0778761,0.290909091 L49.0778761,7.85454545 L49.9867257,7.85454545 L49.9867257,1.6 L55.3699115,7.63636364 C55.439823,7.78181818 55.579646,7.78181818 55.719469,7.78181818 L56.3486726,7.78181818 L56.3486726,0.290909091 L55.439823,0.290909091 L55.439823,6.47272727 Z" id="Shape"></path>
                        <polygon id="Shape" points="62.9902655 4.36363636 67.1849558 4.36363636 67.1849558 3.49090909 62.9902655 3.49090909 62.9902655 1.16363636 67.6743363 1.16363636 67.6743363 0.290909091 62.0814159 0.290909091 62.0814159 7.85454545 67.7442478 7.85454545 67.7442478 6.98181818 62.9902655 6.98181818"></polygon>
                        <path d="M75.9938053,3.63636364 L75.4345133,3.56363636 C74.1761062,3.34545455 73.6867257,2.98181818 73.6867257,2.32727273 C73.6867257,1.6 74.5256637,1.09090909 75.8539823,1.09090909 C77.0424779,1.09090909 77.8115044,1.38181818 78.1610619,1.52727273 L78.2309735,1.52727273 L78.5106195,0.654545455 L78.5106195,0.581818182 L78.440708,0.581818182 C78.0212389,0.436363636 77.1123894,0.145454545 75.9238938,0.145454545 C74.0362832,0.145454545 72.7778761,1.01818182 72.7778761,2.32727273 C72.7778761,3.41818182 73.5469027,4.07272727 75.2247788,4.36363636 L75.7840708,4.43636364 C77.1823009,4.72727273 77.8115044,5.09090909 77.8115044,5.74545455 C77.8115044,6.54545455 77.0424779,7.05454545 75.6442478,7.05454545 C74.1761062,7.05454545 73.1274336,6.61818182 72.8477876,6.4 L72.7778761,6.32727273 L72.4982301,7.2 C72.8477876,7.41818182 73.9663717,7.92727273 75.5044248,7.92727273 C77.5318584,7.92727273 78.720354,7.05454545 78.720354,5.67272727 C78.720354,4.65454545 77.8814159,3.92727273 75.9938053,3.63636364 Z" id="Shape"></path>
                    </g>
                    <g id="Group">
                        <path d="M15.4482759,8.07446809 L6.20689655,4.70425532 C5.24137931,4.35319149 4.68965517,3.79148936 4.68965517,2.80851064 L4.68965517,0.982978723 C4.68965517,0.491489362 5.03448276,0.70212766 5.44827586,0.842553191 C8.55172414,1.96595745 18.3448276,5.54680851 19.1724138,5.82765957 C19.3103448,5.89787234 19.3793103,5.89787234 19.4482759,5.96808511 C19.7241379,6.1787234 19.4482759,6.52978723 18.4137931,6.88085106 C18.2758621,7.0212766 17.1034483,7.44255319 15.4482759,8.07446809 Z M15.4482759,13.9021277 C17.0344828,13.3404255 18.2068966,12.8489362 18.4137931,12.7787234 C19.5862069,12.3574468 19.7931034,11.9361702 19.2413793,11.7255319 C19.2413793,11.7255319 19.3103448,11.7255319 19.3103448,11.7255319 C19.2413793,11.7255319 19.2413793,11.6553191 19.1724138,11.6553191 C19.0344828,11.5851064 18.2758621,11.3042553 17.1724138,10.8829787 C15.9310345,11.3744681 14.137931,12.006383 12.3448276,12.6382979 L15.4482759,13.9021277 Z M0,13.1297872 C0,13.5510638 0.206896552,13.6212766 0.620689655,13.4808511 C0.827586207,13.4106383 1.17241379,13.2702128 1.5862069,13.1297872 C1.72413793,13.0595745 1.79310345,13.0595745 1.93103448,12.9893617 C2.62068966,12.7085106 3.51724138,12.4276596 4.48275862,12.0765957 C2.89655172,11.5148936 1.37931034,10.9531915 0.551724138,10.6021277 C0.206896552,10.5319149 0,10.6021277 0,11.0234043 L0,12.7085106 L0,13.1297872 Z M1.44827586,8.70638298 L7.51724138,10.9531915 C9.10344828,10.3914894 10.7586207,9.75957447 12.3448276,9.19787234 C7.86206897,7.51276596 2.48275862,5.54680851 0.75862069,4.91489362 C0.344827586,4.70425532 0,4.56382979 0,4.98510638 L0,6.74042553 C0,7.79361702 0.551724138,8.35531915 1.44827586,8.70638298 Z" id="Shape" fill="#ED1650"></path>
                        <path d="M19.1034483,16.0787234 L4.62068966,21.4148936 L4.62068966,17.8340426 C4.62068966,17.8340426 17.6551724,12.9893617 18.4137931,12.7787234 C19.5862069,12.3574468 19.7931034,11.9361702 19.2413793,11.7255319 C19.7931034,11.9361702 19.7241379,12.006383 19.7241379,13.5510638 C19.7931034,15.2361702 19.7931034,15.7978723 19.1034483,16.0787234 Z M8,29.5595745 C8,28.787234 8.06896552,28.1553191 7.44827586,28.4361702 L4.68965517,29.4893617 L4.68965517,33 L7.31034483,32.0170213 C8,31.7361702 8.06896552,31.2446809 8.06896552,30.5425532 L8.06896552,29.5595745 L8,29.5595745 Z M12.3448276,22.187234 C12.3448276,21.4148936 12.4137931,20.7829787 11.7931034,21.0638298 L4.62068966,23.6617021 L4.62068966,27.1723404 L11.5862069,24.6446809 C12.2758621,24.3638298 12.3448276,23.8723404 12.3448276,23.1702128 L12.3448276,22.187234 Z M19.3103448,5.89787234 C19.862069,6.10851064 19.6551724,6.52978723 18.4827586,6.95106383 C17.862069,7.16170213 6.20689655,11.4446809 1.93103448,13.0595745 C1.79310345,13.1297872 1.72413793,13.1297872 1.5862069,13.2 C1.17241379,13.3404255 0.827586207,13.4808511 0.620689655,13.5510638 C0.206896552,13.6212766 0,13.5510638 0,13.1297872 C0,13.4106383 0,13.9723404 0.482758621,14.112766 L4.27586207,15.5170213 C4.27586207,15.5170213 4.55172414,15.587234 4.82758621,15.5170213 C5.17241379,15.3765957 19.1034483,10.2510638 19.1034483,10.2510638 C19.7931034,9.97021277 19.7931034,9.40851064 19.7931034,7.72340426 C19.7931034,6.1787234 19.7931034,6.10851064 19.3103448,5.89787234 Z" id="Shape" fill="#FFFFFF"></path>
                    </g>
                </g>
            </g>
        </g>
    </g>
</svg>