<?xml version="1.0" encoding="UTF-8"?>
<svg width="152px" height="47px" viewBox="0 0 152 47" version="1.1" xmlns="http://www.w3.org/2000/svg" xmlns:xlink="http://www.w3.org/1999/xlink">
    <!-- Generator: Sketch 50.2 (55047) - http://www.bohemiancoding.com/sketch -->
    <title>logo_latam_color</title>
    <desc>Created with Sketch.</desc>
    <defs></defs>
    <g id="Wireframes-V1.0" stroke="none" stroke-width="1" fill="none" fill-rule="evenodd">
        <g id="00Login" transform="translate(-614.000000, -184.000000)" fill-rule="nonzero">
            <g id="logo_latam_color" transform="translate(614.000000, 183.000000)">
                <path d="M86.5695364,25.8382979 L91.2,25.8382979 L91.2,12.8680851 L99.2529801,12.3574468 L99.2529801,8.98723404 L78.5165563,8.98723404 L78.5165563,12.3574468 L86.5695364,12.8680851 L86.5695364,25.8382979 Z M53.4516556,25.8382979 L55.3642384,21.9574468 L44.1907285,21.9574468 L44.1907285,8.98723404 L39.4596026,8.98723404 L39.4596026,25.8382979 L53.4516556,25.8382979 Z M71.1682119,19.3021277 L65.0278146,19.3021277 L68.1483444,12.5617021 L71.1682119,19.3021277 Z M112.64106,19.3021277 L106.500662,19.3021277 L109.621192,12.5617021 L112.64106,19.3021277 Z M133.578808,21.7531915 C133.780132,22.3659574 134.484768,22.7744681 135.189404,22.7744681 L139.92053,22.7744681 L143.443709,12.8680851 L146.765563,25.9404255 L151.194702,25.9404255 L147.470199,11.0297872 C147.168212,9.49787234 146.262252,9.0893617 144.953642,9.0893617 L140.323179,9.0893617 L137.001325,18.9957447 L134.384106,10.6212766 C133.981457,9.6 133.377483,9.0893617 132.370861,9.0893617 L127.136424,9.0893617 L122.807947,25.9404255 L127.337748,25.9404255 L130.659603,12.8680851 L133.578808,21.7531915 Z M115.761589,25.8382979 L120.794702,25.8382979 L112.943046,10.1106383 C112.540397,9.29361702 112.137748,8.98723404 111.131126,8.98723404 L106.701987,8.98723404 L98.3470199,25.8382979 L103.380132,25.8382979 L104.890066,22.7744681 L114.150993,22.7744681 L115.761589,25.8382979 Z M74.1880795,25.8382979 L79.2211921,25.8382979 L71.3695364,10.1106383 C70.9668874,9.29361702 70.5642384,8.98723404 69.5576159,8.98723404 L65.2291391,8.98723404 L56.8741722,25.8382979 L61.9072848,25.8382979 L63.4172185,22.7744681 L72.6781457,22.7744681 L74.1880795,25.8382979 Z" id="Shape" fill="#290088"></path>
                <g id="Group" transform="translate(38.251656, 36.765957)" fill="#290088">
                    <path d="M6.34172185,0.408510638 L5.53642384,0.408510638 L0.402649007,10.9276596 L0.301986755,11.0297872 L1.71125828,11.0297872 L3.1205298,8.17021277 L9.3615894,8.17021277 L10.7708609,11.0297872 L12.1801325,11.0297872 L7.24768212,0.919148936 C7.04635762,0.510638298 6.74437086,0.408510638 6.34172185,0.408510638 Z M8.75761589,6.94468085 L3.72450331,6.94468085 L6.2410596,1.73617021 L8.75761589,6.94468085 Z" id="Shape"></path>
                    <rect id="Rectangle-path" x="19.5284768" y="0.408510638" width="1.30860927" height="10.6212766"></rect>
                    <path d="M38.6543046,3.7787234 C38.6543046,1.63404255 37.0437086,0.306382979 34.5271523,0.306382979 L29.192053,0.306382979 L29.192053,10.9276596 L30.5006623,10.9276596 L30.5006623,7.14893617 C31.205298,7.45531915 32.413245,7.76170213 33.5205298,7.76170213 C34.0238411,7.76170213 34.5271523,7.76170213 35.0304636,7.65957447 L37.1443709,11.0297872 L38.7549669,11.0297872 L36.4397351,7.25106383 C37.8490066,6.63829787 38.6543046,5.41276596 38.6543046,3.7787234 Z M30.5006623,1.63404255 L34.4264901,1.63404255 C37.0437086,1.63404255 37.3456954,3.16595745 37.3456954,3.7787234 C37.3456954,5.41276596 35.9364238,6.33191489 33.4198675,6.33191489 C32.413245,6.33191489 31.3059603,6.12765957 30.5006623,5.71914894 L30.5006623,1.63404255 Z" id="Shape"></path>
                    <polygon id="Shape" points="47.4119205 0.408510638 46.1033113 0.408510638 46.1033113 11.0297872 53.6529801 11.0297872 53.6529801 9.80425532 47.4119205 9.80425532"></polygon>
                    <rect id="Rectangle-path" x="60.9006623" y="0.408510638" width="1.30860927" height="10.6212766"></rect>
                    <path d="M79.8251656,9.0893617 L72.0741722,0.612765957 C71.9735099,0.510638298 71.8728477,0.408510638 71.6715232,0.408510638 L70.6649007,0.408510638 L70.6649007,11.0297872 L71.9735099,11.0297872 L71.9735099,2.24680851 L79.7245033,10.7234043 C79.8251656,10.9276596 80.0264901,10.9276596 80.2278146,10.9276596 L81.1337748,10.9276596 L81.1337748,0.408510638 L79.8251656,0.408510638 L79.8251656,9.0893617 Z" id="Shape"></path>
                    <polygon id="Shape" points="90.6966887 6.12765957 96.7364238 6.12765957 96.7364238 4.90212766 90.6966887 4.90212766 90.6966887 1.63404255 97.4410596 1.63404255 97.4410596 0.408510638 89.3880795 0.408510638 89.3880795 11.0297872 97.5417219 11.0297872 97.5417219 9.80425532 90.6966887 9.80425532"></polygon>
                    <path d="M109.419868,5.10638298 L108.61457,5.00425532 C106.802649,4.69787234 106.098013,4.18723404 106.098013,3.26808511 C106.098013,2.24680851 107.30596,1.53191489 109.218543,1.53191489 C110.929801,1.53191489 112.037086,1.94042553 112.540397,2.14468085 L112.64106,2.14468085 L113.043709,0.919148936 L113.043709,0.817021277 L112.943046,0.817021277 C112.339073,0.612765957 111.030464,0.204255319 109.319205,0.204255319 C106.601325,0.204255319 104.789404,1.42978723 104.789404,3.26808511 C104.789404,4.8 105.896689,5.71914894 108.312583,6.12765957 L109.117881,6.22978723 C111.131126,6.63829787 112.037086,7.14893617 112.037086,8.06808511 C112.037086,9.19148936 110.929801,9.90638298 108.916556,9.90638298 C106.802649,9.90638298 105.292715,9.29361702 104.890066,8.98723404 L104.789404,8.88510638 L104.386755,10.1106383 C104.890066,10.4170213 106.500662,11.1319149 108.715232,11.1319149 C111.634437,11.1319149 113.345695,9.90638298 113.345695,7.96595745 C113.345695,6.53617021 112.137748,5.51489362 109.419868,5.10638298 Z" id="Shape"></path>
                </g>
                <g id="Group">
                    <path d="M22.5483444,11.7446809 L9.05960265,6.84255319 C7.65033113,6.33191489 6.84503311,5.51489362 6.84503311,4.08510638 L6.84503311,1.42978723 C6.84503311,0.714893617 7.34834437,1.0212766 7.95231788,1.22553191 C12.4821192,2.85957447 26.7761589,8.06808511 27.984106,8.47659574 C28.1854305,8.5787234 28.2860927,8.5787234 28.386755,8.68085106 C28.789404,8.98723404 28.386755,9.49787234 26.8768212,10.0085106 C26.6754967,10.212766 24.9642384,10.8255319 22.5483444,11.7446809 Z M22.5483444,20.2212766 C24.8635762,19.4042553 26.5748344,18.6893617 26.8768212,18.587234 C28.5880795,17.9744681 28.8900662,17.3617021 28.0847682,17.0553191 C28.0847682,17.0553191 28.1854305,17.0553191 28.1854305,17.0553191 C28.0847682,17.0553191 28.0847682,16.9531915 27.984106,16.9531915 C27.7827815,16.8510638 26.6754967,16.4425532 25.0649007,15.8297872 C23.2529801,16.5446809 20.6357616,17.4638298 18.018543,18.3829787 L22.5483444,20.2212766 Z M0,19.0978723 C0,19.7106383 0.301986755,19.812766 0.905960265,19.6085106 C1.20794702,19.506383 1.71125828,19.3021277 2.31523179,19.0978723 C2.51655629,18.9957447 2.61721854,18.9957447 2.81854305,18.893617 C3.82516556,18.4851064 5.13377483,18.0765957 6.54304636,17.5659574 C4.22781457,16.7489362 2.01324503,15.9319149 0.805298013,15.4212766 C0.301986755,15.3191489 0,15.4212766 0,16.0340426 L0,18.4851064 L0,19.0978723 Z M2.11390728,12.6638298 L10.9721854,15.9319149 C13.2874172,15.1148936 15.7033113,14.1957447 18.018543,13.3787234 C11.4754967,10.9276596 3.62384106,8.06808511 1.10728477,7.14893617 C0.503311258,6.84255319 0,6.63829787 0,7.25106383 L0,9.80425532 C0,11.3361702 0.805298013,12.1531915 2.11390728,12.6638298 Z" id="Shape" fill="#ED1650"></path>
                    <path d="M27.8834437,23.387234 L6.74437086,31.1489362 L6.74437086,25.9404255 C6.74437086,25.9404255 25.7695364,18.893617 26.8768212,18.587234 C28.5880795,17.9744681 28.8900662,17.3617021 28.0847682,17.0553191 C28.8900662,17.3617021 28.789404,17.4638298 28.789404,19.7106383 C28.8900662,22.1617021 28.8900662,22.9787234 27.8834437,23.387234 Z M11.6768212,42.9957447 C11.6768212,41.8723404 11.7774834,40.9531915 10.8715232,41.3617021 L6.84503311,42.893617 L6.84503311,48 L10.6701987,46.5702128 C11.6768212,46.1617021 11.7774834,45.4468085 11.7774834,44.4255319 L11.7774834,42.9957447 L11.6768212,42.9957447 Z M18.018543,32.2723404 C18.018543,31.1489362 18.1192053,30.2297872 17.213245,30.6382979 L6.74437086,34.4170213 L6.74437086,39.5234043 L16.9112583,35.8468085 C17.9178808,35.4382979 18.018543,34.7234043 18.018543,33.7021277 L18.018543,32.2723404 Z M28.1854305,8.5787234 C28.9907285,8.88510638 28.6887417,9.49787234 26.9774834,10.1106383 C26.0715232,10.4170213 9.05960265,16.6468085 2.81854305,18.9957447 C2.61721854,19.0978723 2.51655629,19.0978723 2.31523179,19.2 C1.71125828,19.4042553 1.20794702,19.6085106 0.905960265,19.7106383 C0.301986755,19.812766 0,19.7106383 0,19.0978723 C0,19.506383 0,20.3234043 0.704635762,20.5276596 L6.2410596,22.5702128 C6.2410596,22.5702128 6.64370861,22.6723404 7.04635762,22.5702128 C7.54966887,22.3659574 27.8834437,14.9106383 27.8834437,14.9106383 C28.8900662,14.5021277 28.8900662,13.6851064 28.8900662,11.2340426 C28.8900662,8.98723404 28.8900662,8.88510638 28.1854305,8.5787234 Z" id="Shape" fill="#290088"></path>
                </g>
            </g>
        </g>
    </g>
</svg>