<?xml version="1.0" standalone="no"?>
<!DOCTYPE svg PUBLIC "-//W3C//DTD SVG 1.1//EN" "http://www.w3.org/Graphics/SVG/1.1/DTD/svg11.dtd" >
<svg xmlns="http://www.w3.org/2000/svg" xmlns:xlink="http://www.w3.org/1999/xlink" version="1.1">
<metadata>
Created by FontForge 20170731 at Tue Oct 27 13:11:48 2015
 By Aleksey,,,
Copyright 2015 LATAM Airlines. All Rights Reserved.
</metadata>
<defs>
<font id="LatamSans-Extended" horiz-adv-x="395" >
  <font-face 
    font-family="Latam Sans Extended"
    font-weight="400"
    font-stretch="normal"
    units-per-em="1000"
    panose-1="2 11 5 5 3 4 3 2 2 4"
    ascent="750"
    descent="-250"
    x-height="500"
    cap-height="700"
    bbox="-85 -348.033 1345 981"
    underline-thickness="0"
    underline-position="0"
    unicode-range="U+0020-FB04"
  />
<missing-glyph horiz-adv-x="600" 
 />
    <glyph glyph-name="ff" unicode="ff" horiz-adv-x="759" 
d="M117 0v436l-97 10v54h97v80q0 78 44 117t137 39q47 0 78 -12l-13 -69q-29 8 -62 8q-100 0 -100 -86v-77h242v89q0 86 52 129t161 43q57 0 105 -16l-13 -70q-46 12 -89 12q-131 0 -131 -101v-86h202v-60l-202 -7v-433h-85v433h-242v-433h-84z" />
    <glyph glyph-name="fi" unicode="fi" horiz-adv-x="674" 
d="M550 577q-25 0 -42 17.5t-17 42.5q0 24 17 41.5t42 17.5t42.5 -17.5t17.5 -41.5q0 -25 -17 -42.5t-43 -17.5zM117 0v429l-97 17v54h97v89q0 86 52 129t161 43q57 0 105 -16l-13 -70q-46 12 -89 12q-131 0 -131 -101v-86h202v-60l-202 -12v-428h-85zM508 0v500h85v-500
h-85z" />
    <glyph glyph-name="fl" unicode="fl" horiz-adv-x="707" 
d="M626 -6q-122 0 -122 123v633h84v-630q0 -57 50 -57q31 0 42 8l12 -66q-21 -11 -66 -11zM117 0v429l-97 17v54h97v89q0 86 52 129t161 43q57 0 105 -16l-13 -70q-46 12 -89 12q-131 0 -131 -101v-86h202v-60l-202 -12v-428h-85z" />
    <glyph glyph-name="ffi" unicode="ffi" horiz-adv-x="999" 
d="M875 588q-25 0 -42 17t-17 42t17 42.5t42 17.5t42.5 -17.5t17.5 -42.5t-17.5 -42t-42.5 -17zM833 0v500h85v-500h-85zM117 0v436l-97 10v54h97v80q0 156 182 156q47 0 79 -12l-13 -69q-29 8 -63 8q-101 0 -101 -86v-77h242v89q0 87 51 129.5t161 42.5q57 0 105 -16
l-13 -70q-46 12 -89 12q-131 0 -131 -101v-86h202v-60l-202 -7v-433h-84v433h-242v-433h-84z" />
    <glyph glyph-name="ffl" unicode="ffl" horiz-adv-x="1014" 
d="M943 -6q-112 0 -112 103v653h84v-650q0 -37 40 -37q21 0 32 8l12 -66q-21 -11 -56 -11zM117 0v436l-97 10v54h97v80q0 78 44 117t137 39q47 0 78 -12l-13 -69q-29 8 -62 8q-100 0 -100 -86v-77h242v89q0 86 52 129t161 43q57 0 105 -16l-13 -70q-46 12 -89 12
q-131 0 -131 -101v-86h202v-60l-202 -7v-433h-85v433h-242v-433h-84z" />
    <glyph glyph-name="f_b" unicode="fb" horiz-adv-x="1061" 
d="M719 -11q-121 0 -213 54v707h81v-341q24 48 76.5 75t112.5 27q114 0 174.5 -69.5t60.5 -178.5q0 -125 -75 -199.5t-217 -74.5zM117 0v429l-97 17v54h97v89q0 86 52 129t161 43q57 0 105 -16l-13 -70q-46 12 -89 12q-131 0 -131 -101v-86h202v-60l-202 -12v-428h-85z
M729 62q101 0 149.5 57.5t48.5 142.5q0 75 -38 125t-124 50q-72 0 -123.5 -42.5t-51.5 -130.5v-173q51 -29 139 -29z" />
    <glyph glyph-name="f_f_b" unicode="ffb" horiz-adv-x="1395" 
d="M1053 -11q-121 0 -213 54v707h81v-341q24 48 76.5 75t112.5 27q114 0 174.5 -69.5t60.5 -178.5q0 -125 -75 -199.5t-217 -74.5zM1063 62q101 0 149.5 57.5t48.5 142.5q0 75 -38 125t-124 50q-72 0 -123.5 -42.5t-51.5 -130.5v-173q51 -29 139 -29zM117 0v436l-97 10v54
h97v79q0 79 44.5 118t138.5 39q48 0 80 -12l-14 -69q-29 8 -63 8q-102 0 -102 -87v-76h249v89q0 87 51 129.5t161 42.5q57 0 105 -16l-13 -70q-46 12 -89 12q-130 0 -130 -101v-86h201v-60l-201 -7v-433h-85v433h-249v-433h-84z" />
    <glyph glyph-name="f_h" unicode="fh" horiz-adv-x="1075" 
d="M117 0v429l-97 17v54h97v89q0 86 52 129t161 43q57 0 105 -16l-13 -70q-46 12 -89 12q-131 0 -131 -101v-86h202v-60l-202 -12v-428h-85zM590 264v-264h-84v750h81v-341q29 47 82.5 74.5t108.5 27.5q110 0 168.5 -62.5t58.5 -174.5v-274h-84v262q0 91 -43 133.5
t-116 42.5q-69 0 -120.5 -43.5t-51.5 -130.5z" />
    <glyph glyph-name="f_f_h" unicode="ffh" horiz-adv-x="1409" 
d="M924 264v-264h-84v750h81v-341q29 47 82.5 74.5t108.5 27.5q110 0 168.5 -62.5t58.5 -174.5v-274h-84v262q0 91 -43 133.5t-116 42.5q-69 0 -120.5 -43.5t-51.5 -130.5zM117 0v436l-97 10v54h97v80q0 156 182 156q47 0 79 -12l-13 -69q-29 8 -63 8q-101 0 -101 -86v-77
h249v89q0 87 51 129.5t161 42.5q57 0 105 -16l-13 -70q-46 12 -89 12q-130 0 -130 -101v-86h201v-60l-201 -7v-433h-85v433h-249v-433h-84z" />
    <glyph glyph-name="f_k" unicode="fk" horiz-adv-x="1010" 
d="M117 0v429l-97 17v54h97v89q0 86 52 129t161 43q57 0 105 -16l-13 -70q-46 12 -89 12q-131 0 -131 -101v-86h202v-60l-202 -12v-428h-85zM591 26q-20 -26 -54 -26h-30v750h83v-619l283 369h95l-185 -232l212 -268h-96l-166 205z" />
    <glyph glyph-name="f_f_k" unicode="ffk" horiz-adv-x="1343" 
d="M117 0v436l-97 10v54h97v80q0 156 182 156q47 0 79 -12l-13 -69q-29 8 -63 8q-101 0 -101 -86v-77h249v89q0 87 51 129.5t161 42.5q57 0 105 -16l-13 -70q-46 12 -89 12q-130 0 -130 -101v-86h201v-60l-201 -7v-433h-85v433h-249v-433h-84zM924 26q-20 -26 -54 -26h-30
v750h83v-619l283 369h95l-185 -232l212 -268h-96l-166 205z" />
    <glyph glyph-name="f_j" unicode="fj" horiz-adv-x="673" 
d="M550 577q-25 0 -42.5 17.5t-17.5 42.5q0 24 17.5 41.5t42.5 17.5t42.5 -17.5t17.5 -41.5q0 -25 -17.5 -42.5t-42.5 -17.5zM117 0v429l-97 17v54h97v89q0 86 52 129t161 43q57 0 105 -16l-13 -70q-46 12 -89 12q-131 0 -131 -101v-86h202v-60l-202 -12v-428h-85zM423 -253
q-50 0 -79 12l13 66q17 -8 53 -8q50 0 74 27.5t24 88.5v567h84v-573q0 -94 -45.5 -137t-123.5 -43z" />
    <glyph glyph-name="f_f_j" unicode="ffj" horiz-adv-x="998" 
d="M875 588q-25 0 -42 17t-17 42t17 42.5t42 17.5t42.5 -17.5t17.5 -42.5t-17.5 -42t-42.5 -17zM117 0v436l-97 10v54h97v80q0 156 182 156q47 0 79 -12l-13 -69q-29 8 -63 8q-101 0 -101 -86v-77h242v89q0 87 51.5 129.5t160.5 42.5q57 0 105 -16l-13 -70q-46 12 -89 12
q-131 0 -131 -101v-86h202v-60l-202 -7v-433h-84v433h-242v-433h-84zM759 -253q-39 0 -68 12l13 66q18 -8 42 -8q44 0 65.5 25t21.5 82v576h85v-582q0 -89 -43.5 -130t-115.5 -41z" />
    <glyph glyph-name="f_idieresis" unicode="f&#xef;" horiz-adv-x="672" 
d="M635 579q-23 0 -39.5 16.5t-16.5 40.5q0 23 16.5 40t39.5 17t39.5 -17t16.5 -40q0 -24 -16.5 -40.5t-39.5 -16.5zM468 579q-23 0 -39.5 16.5t-16.5 40.5q0 23 16.5 40t39.5 17t39.5 -17t16.5 -40q0 -24 -16.5 -40.5t-39.5 -16.5zM117 0v429l-97 17v54h97v89
q0 87 47 129.5t146 42.5q45 0 91 -16l-16 -70q-29 12 -72 12q-112 0 -112 -101v-86h202v-60l-202 -12v-428h-84zM507 0v500h85v-500h-85z" />
    <glyph glyph-name=".notdef" horiz-adv-x="600" 
 />
    <glyph glyph-name=".null" horiz-adv-x="0" 
 />
    <glyph glyph-name="nonmarkingreturn" horiz-adv-x="333" 
 />
    <glyph glyph-name="space" unicode=" " horiz-adv-x="340" 
 />
    <glyph glyph-name="exclam" unicode="!" horiz-adv-x="257" 
d="M105 201l-23 499h103l-23 -499h-57zM133 -11q-25 0 -42.5 18t-17.5 43q0 26 17.5 43.5t42.5 17.5t43 -17.5t18 -43.5q0 -25 -18 -43t-43 -18z" />
    <glyph glyph-name="quotedbl" unicode="&#x22;" horiz-adv-x="335" 
d="M222 472l-27 207v21h105v-21l-30 -207h-48zM62 472l-27 207v21h105v-21l-30 -207h-48z" />
    <glyph glyph-name="numbersign" unicode="#" horiz-adv-x="805" 
d="M514 264l12 172h-241l-12 -172h241zM496 0l13 194h-241l-13 -194h-76l13 194h-112v70h117l12 172h-110v70h115l13 194h76l-13 -194h241l13 194h76l-13 -194h118v-70h-123l-12 -172h116v-70h-121l-13 -194h-76z" />
    <glyph glyph-name="dollar" unicode="$" horiz-adv-x="694" 
d="M320 398l4 -1v239q-88 -7 -137 -40t-49 -80t42 -74t140 -44zM571 187q0 45 -42.5 74t-132.5 47v-244q87 8 131 40.5t44 82.5zM396 -113h-72v100q-104 1 -182 22t-112 42l26 74q28 -20 102.5 -40t165.5 -23v258l-22 4q-120 20 -183.5 64t-63.5 124q0 81 72.5 135t196.5 63
v84h72v-82q127 -4 229 -41l-27 -75q-80 35 -202 40v-251q128 -23 193 -68.5t65 -124.5q0 -84 -67 -137.5t-191 -64.5v-103z" />
    <glyph glyph-name="percent" unicode="%" horiz-adv-x="796" 
d="M184 0h-94l492 623q-55 -10 -108 -10q-61 0 -140 15q13 -28 13 -56q0 -61 -45.5 -97.5t-113.5 -36.5t-113 36.5t-45 97.5q0 60 45.5 96.5t112.5 36.5q38 0 128.5 -13t162.5 -13q138 0 229 22v-11q0 -32 -17 -53zM188 507q74 0 74 65q0 32 -20 48t-54 16q-33 0 -53.5 -16
t-20.5 -48q0 -33 20.5 -49t53.5 -16zM607 -6q-68 0 -113 36.5t-45 97.5q0 60 45.5 96.5t112.5 36.5q68 0 113.5 -36.5t45.5 -96.5q0 -61 -45.5 -97.5t-113.5 -36.5zM607 64q74 0 74 64q0 32 -20 48t-54 16q-33 0 -53.5 -16t-20.5 -48t20.5 -48t53.5 -16z" />
    <glyph glyph-name="ampersand" unicode="&#x26;" horiz-adv-x="918" 
d="M817 -9q-91 28 -186 77q-130 -76 -292 -76q-136 0 -217.5 54t-81.5 136q0 144 232 221q-19 51 -19 100q0 91 56.5 146.5t147.5 55.5q78 0 128 -40.5t50 -100.5q0 -71 -62.5 -114.5t-189.5 -84.5q71 -112 244 -206q111 81 157 214l79 -24q-51 -138 -159 -229
q82 -38 147 -57zM339 503q0 -37 13 -76q98 28 146.5 55.5t48.5 72.5q0 34 -26 54t-64 20q-54 0 -86 -34t-32 -92zM339 68q113 0 211 46q-171 105 -246 226q-83 -29 -130 -65.5t-47 -92.5q0 -51 61 -82.5t151 -31.5z" />
    <glyph glyph-name="quotesingle" unicode="'" horiz-adv-x="177" 
d="M62 472l-27 207v21h107v-21l-30 -207h-50z" />
    <glyph glyph-name="parenleft" unicode="(" horiz-adv-x="355" 
d="M252 -172q-63 77 -111.5 208t-48.5 288q0 158 48 287.5t112 208.5h87q-66 -81 -115 -213.5t-49 -282.5t49.5 -283t114.5 -213h-87z" />
    <glyph glyph-name="parenright" unicode=")" horiz-adv-x="355" 
d="M17 -172q65 80 114.5 213t49.5 283t-49 282t-115 214h86q65 -79 113 -208.5t48 -287.5q0 -157 -48.5 -288t-112.5 -208h-86z" />
    <glyph glyph-name="asterisk" unicode="*" horiz-adv-x="345" 
d="M287 444l-95 59l4 -112h-50l6 112l-95 -59l-25 43l103 51l-100 53l23 42l94 -60l-3 109h50l-6 -110l97 58l23 -41l-99 -51l98 -52z" />
    <glyph glyph-name="plus" unicode="+" horiz-adv-x="546" 
d="M468 271h-156v-156h-77v156h-157v77h157v157h77v-157h156v-77z" />
    <glyph glyph-name="comma" unicode="," horiz-adv-x="259" 
d="M69 -165l-20 30q59 41 59 108q0 41 -32 61q0 24 15.5 42t38.5 18q31 0 47.5 -23t16.5 -58q0 -64 -40.5 -114t-84.5 -64z" />
    <glyph glyph-name="hyphen" unicode="-" horiz-adv-x="470" 
d="M78 235v77h314v-77h-314z" />
    <glyph glyph-name="period" unicode="." horiz-adv-x="281" 
d="M148 -11q-27 0 -45.5 19t-18.5 45q0 27 18.5 46t45.5 19q26 0 45 -19t19 -46q0 -26 -19 -45t-45 -19z" />
    <glyph glyph-name="slash" unicode="/" horiz-adv-x="560" 
d="M107 -117l260 907h86l-260 -907h-86z" />
    <glyph glyph-name="zero" unicode="0" horiz-adv-x="737" 
d="M368 -11q-83 0 -148.5 29.5t-105.5 80t-61 114.5t-21 136q0 71 21 134t61 113t105.5 79t148.5 29q84 0 150.5 -29t106.5 -79.5t60.5 -113t20.5 -133.5q0 -72 -20.5 -135.5t-60.5 -114.5t-106.5 -80.5t-150.5 -29.5zM369 66q121 0 186.5 83t65.5 200q0 74 -26.5 135.5
t-85.5 102.5t-141 41q-121 0 -185.5 -81.5t-64.5 -197.5q0 -118 64.5 -200.5t186.5 -82.5z" />
    <glyph glyph-name="one" unicode="1" horiz-adv-x="737" 
d="M656 0h-574v76h253v535l-245 -78v80l222 73q46 15 82 15h25v-625h237v-76z" />
    <glyph glyph-name="two" unicode="2" horiz-adv-x="737" 
d="M84 0v94q0 147 195 220l132 49q78 29 115.5 58.5t37.5 77.5q0 58 -56.5 95t-159.5 37q-126 0 -233 -51l-24 70q114 55 259 55q149 0 226.5 -58t77.5 -141q0 -79 -55.5 -126t-161.5 -86l-131 -48q-130 -47 -130 -146v-22h476v-78h-568z" />
    <glyph glyph-name="three" unicode="3" horiz-adv-x="737" 
d="M321 -11q-148 0 -244 43l25 72q89 -39 218 -39q135 0 193.5 39t58.5 97q0 129 -223 129h-100v72h100q98 0 148.5 36t50.5 84q0 109 -219 109q-117 0 -224 -41l-21 70q47 19 119 32t130 13q154 0 228.5 -49.5t74.5 -125.5q0 -53 -37 -95.5t-101 -63.5q72 -11 117 -60
t45 -108q0 -93 -83.5 -153.5t-255.5 -60.5z" />
    <glyph glyph-name="four" unicode="4" horiz-adv-x="737" 
d="M526 250v372l-388 -372h388zM690 176h-81v-176h-83v176h-491v78l471 446h103v-450h81v-74z" />
    <glyph glyph-name="five" unicode="5" horiz-adv-x="737" 
d="M324 -11q-159 0 -250 49l26 71q92 -44 228 -44q116 0 188.5 45t72.5 130q0 73 -61 115.5t-165 42.5q-122 0 -225 -53l-47 25v330h540v-76h-458v-187q86 36 205 36q123 0 209 -60.5t86 -170.5q0 -118 -96 -185.5t-253 -67.5z" />
    <glyph glyph-name="six" unicode="6" horiz-adv-x="737" 
d="M682 241q0 -110 -80 -181t-220 -71q-146 0 -227 84t-81 230v36q0 99 31 172.5t83 114.5t112.5 60t128.5 19q132 0 212 -51l-23 -72q-84 46 -190 46q-114 -1 -186 -62t-81 -196q94 92 252 92q132 0 200.5 -64t68.5 -157zM383 65q106 0 159 47t53 124q0 65 -48.5 108.5
t-150.5 43.5q-76 0 -141 -27.5t-95 -66.5v-8q0 -39 11 -75.5t35 -70.5t69.5 -54.5t107.5 -20.5z" />
    <glyph glyph-name="seven" unicode="7" horiz-adv-x="737" 
d="M299 0h-93q16 102 57 199.5t98 176t114.5 139t119.5 109.5h-557v76h652l13 -66q-46 -35 -93 -79.5t-99 -107.5t-94 -131t-74.5 -151t-43.5 -165z" />
    <glyph glyph-name="eight" unicode="8" horiz-adv-x="737" 
d="M365 -11q-133 0 -212.5 55t-79.5 146q0 60 40.5 106.5t112.5 69.5q-120 42 -120 148q0 82 76.5 136.5t195.5 54.5q117 0 191 -51t74 -127q0 -54 -37 -92.5t-99 -57.5q84 -23 126.5 -70t42.5 -113q0 -94 -83.5 -149.5t-227.5 -55.5zM332 412l70 -13q77 15 116 46t39 71
q0 53 -50 85t-129 32q-82 0 -134 -31.5t-52 -84.5q0 -43 34 -67t106 -38zM366 64q105 0 164.5 36t59.5 95q0 96 -157 127l-112 22q-75 -16 -118.5 -55t-43.5 -91q0 -60 57 -97t150 -37z" />
    <glyph glyph-name="nine" unicode="9" horiz-adv-x="737" 
d="M361 299q69 0 125 23.5t90 55.5v33q0 42 -11.5 78.5t-35.5 69.5t-68 52t-103 19q-96 0 -152 -47t-56 -125q0 -68 51.5 -113.5t159.5 -45.5zM324 -11q-155 0 -223 50l24 70q77 -43 200 -43q115 0 178.5 53t71.5 183q-87 -77 -230 -77q-138 0 -210 65t-72 165
q0 111 81 180.5t216 69.5q145 0 223.5 -82t78.5 -228v-66q0 -78 -18.5 -138t-49.5 -97.5t-75 -61.5t-91.5 -33.5t-103.5 -9.5z" />
    <glyph glyph-name="colon" unicode=":" horiz-adv-x="283" 
d="M142 301q-26 0 -43.5 17.5t-17.5 42.5t17.5 43t43.5 18q25 0 42.5 -18t17.5 -43t-17.5 -42.5t-42.5 -17.5zM142 50q-26 0 -43.5 17.5t-17.5 42.5q0 26 17.5 43.5t43.5 17.5q25 0 42.5 -18t17.5 -43t-17.5 -42.5t-42.5 -17.5z" />
    <glyph glyph-name="semicolon" unicode=";" horiz-adv-x="283" 
d="M142 301q-26 0 -43.5 17.5t-17.5 42.5t17.5 43t43.5 18q25 0 42.5 -18t17.5 -43t-17.5 -42.5t-42.5 -17.5zM80 -142l-20 28q61 38 61 98q0 18 -10 33.5t-24 22.5q0 22 16 38t39 16q32 0 48.5 -20.5t16.5 -53.5q0 -58 -41 -103.5t-86 -58.5z" />
    <glyph glyph-name="less" unicode="&#x3c;" horiz-adv-x="597" 
d="M517 116l-437 169v75l437 168v-77l-339 -127l339 -128v-80z" />
    <glyph glyph-name="equal" unicode="=" horiz-adv-x="546" 
d="M78 360v75h390v-75h-390zM78 185v75h390v-75h-390z" />
    <glyph glyph-name="greater" unicode="&#x3e;" horiz-adv-x="597" 
d="M80 116v80l339 128l-339 127v77l437 -168v-75z" />
    <glyph glyph-name="question" unicode="?" horiz-adv-x="499" 
d="M224 201h-64l-6 161q42 0 81.5 7t77 22.5t60 45t22.5 69.5q0 55 -42.5 89.5t-131.5 34.5t-163 -31l-20 74q80 32 187 32q125 0 189.5 -53t64.5 -137q0 -99 -71.5 -150t-175.5 -56zM194 -11q-25 0 -43 18t-18 43q0 26 17.5 43.5t43.5 17.5q25 0 42.5 -18t17.5 -43
t-17.5 -43t-42.5 -18z" />
    <glyph glyph-name="at" unicode="@" horiz-adv-x="1109" 
d="M513 -209q-194 0 -316 120.5t-122 316.5q0 212 138 344.5t349 132.5q204 0 338 -120.5t134 -314.5q0 -137 -61 -207t-144 -70q-71 0 -114 46.5t-45 116.5l-1 40q-20 -96 -74 -149.5t-124 -53.5q-78 0 -127.5 60t-49.5 167q0 125 73.5 208t198.5 83q64 0 122 -27l38 17
l14 -5v-334q0 -48 26.5 -74t68.5 -26q48 0 82.5 50.5t34.5 157.5q0 163 -110 263t-280 100q-177 0 -291 -111t-114 -294q0 -164 98.5 -262t257.5 -98q62 0 116 18l20 -73q-64 -22 -136 -22zM483 69q68 0 121.5 89.5t53.5 244.5v21q-44 21 -93 21q-82 0 -134.5 -61
t-52.5 -162q0 -72 28.5 -112.5t76.5 -40.5z" />
    <glyph glyph-name="A" unicode="A" horiz-adv-x="874" 
d="M623 266l-187 363l-186 -363h373zM760 0l-98 191h-450l-98 -191h-89l364 700h54q39 0 56 -32l350 -668h-89z" />
    <glyph glyph-name="B" unicode="B" horiz-adv-x="807" 
d="M376 -7q-155 0 -281 39v668h400q103 0 167.5 -44.5t64.5 -124.5q0 -61 -34.5 -104.5t-88.5 -55.5q69 -10 113.5 -53.5t44.5 -107.5q0 -105 -99.5 -161t-286.5 -56zM490 625h-311v-225h313q67 0 109 31t42 84q0 52 -40 81t-113 29zM372 69q305 0 305 140q0 54 -50 85
t-130 31h-318v-239q100 -17 193 -17z" />
    <glyph glyph-name="C" unicode="C" horiz-adv-x="751" 
d="M451 711q64 0 125.5 -12.5t91.5 -24.5l29 -13l-27 -71q-10 5 -28 12.5t-74.5 20.5t-112.5 13q-134 0 -230 -77t-96 -214q0 -91 47 -156t120 -95t162 -30q60 0 116 12.5t82 25.5l26 12l24 -71q-12 -6 -33 -15t-87 -24t-132 -15q-177 0 -293 94t-116 262q0 114 56 198.5
t147 126t203 41.5z" />
    <glyph glyph-name="D" unicode="D" horiz-adv-x="861" 
d="M369 -7q-153 0 -274 39v668h361q156 0 258 -80.5t102 -235.5q0 -100 -35 -176.5t-97 -122.5t-141 -69t-174 -23zM369 69q168 0 265 78t97 233q0 117 -76.5 181t-209.5 64h-262v-539q82 -17 186 -17z" />
    <glyph glyph-name="E" unicode="E" horiz-adv-x="730" 
d="M95 700h564v-75h-481v-225h433v-75h-433v-250h492v-75h-575v700z" />
    <glyph glyph-name="F" unicode="F" horiz-adv-x="682" 
d="M95 700h564v-75h-481v-225h424v-75h-424v-325h-83v700z" />
    <glyph glyph-name="G" unicode="G" horiz-adv-x="804" 
d="M729 49q-13 -7 -36.5 -17t-95.5 -26.5t-143 -16.5q-177 0 -293 94t-116 262q0 114 57 198.5t149.5 126t205.5 41.5q68 0 134 -12.5t98 -24.5l32 -13l-25 -67q-11 5 -30.5 12t-80.5 18.5t-124 11.5q-136 0 -234 -77t-98 -214q0 -91 47 -156t120 -95t162 -30q97 0 191 34
v234h80v-283z" />
    <glyph glyph-name="H" unicode="H" horiz-adv-x="876" 
d="M95 0v700h83v-300h520v300h83v-700h-83v325h-520v-325h-83z" />
    <glyph glyph-name="I" unicode="I" horiz-adv-x="293" 
d="M105 700h83v-700h-83v700z" />
    <glyph glyph-name="J" unicode="J" horiz-adv-x="612" 
d="M450 700h83v-351q0 -175 -82 -268.5t-228 -93.5q-133 0 -223 77l38 66q78 -68 185 -68q105 0 166 72t61 212v354z" />
    <glyph glyph-name="K" unicode="K" horiz-adv-x="679" 
d="M566 0l-388 336v-336h-83v700h83v-291l363 291h116l-409 -323l436 -377h-118z" />
    <glyph glyph-name="L" unicode="L" horiz-adv-x="634" 
d="M95 0v700h83v-625h441v-75h-524z" />
    <glyph glyph-name="M" unicode="M" horiz-adv-x="1121" 
d="M502 171l-218 453l-179 -624h-85l205 700h67q40 0 56 -33l213 -440l232 473h71q44 0 55 -42l182 -658h-82l-175 628l-241 -486h-52q-35 0 -49 29z" />
    <glyph glyph-name="N" unicode="N" horiz-adv-x="928" 
d="M741 14l-562 577v-591h-84v700h68q17 0 28 -11l558 -574v585h84v-700h-57q-22 0 -35 14z" />
    <glyph glyph-name="O" unicode="O" horiz-adv-x="857" 
d="M429 712q178 0 280.5 -103t102.5 -256q0 -101 -44 -183t-132 -132t-207 -50q-179 0 -281.5 104.5t-102.5 260.5q0 153 102.5 256t281.5 103zM429 637q-139 0 -220 -78t-81 -206q0 -129 81.5 -209.5t219.5 -80.5t219 80.5t81 209.5q0 128 -80.5 206t-219.5 78z" />
    <glyph glyph-name="P" unicode="P" horiz-adv-x="793" 
d="M394 296q147 0 214.5 49t67.5 129q0 66 -52 108.5t-163 42.5h-283v-285q100 -44 216 -44zM396 221q-132 0 -218 42v-263h-83v700h374q137 0 213 -61t76 -162q0 -119 -93.5 -187.5t-268.5 -68.5z" />
    <glyph glyph-name="Q" unicode="Q" horiz-adv-x="857" 
d="M769 -98q-399 8 -590 163q-65 50 -99.5 125t-34.5 163q0 153 102.5 256t281.5 103q178 0 280.5 -103t102.5 -256q0 -148 -99.5 -247.5t-278.5 -104.5q132 -28 342 -28zM429 637q-139 0 -220 -78t-81 -206q0 -129 81.5 -209.5t219.5 -80.5t219 80.5t81 209.5
q0 128 -80.5 206t-219.5 78z" />
    <glyph glyph-name="R" unicode="R" horiz-adv-x="798" 
d="M394 296q147 0 214.5 49t67.5 129q0 65 -52 108t-163 43h-283v-285q100 -44 216 -44zM396 221q-132 0 -218 42v-263h-83v700h374q138 0 213.5 -60.5t75.5 -162.5q0 -79 -42.5 -137t-125.5 -89l163 -251h-99l-149 229q-53 -8 -109 -8z" />
    <glyph glyph-name="S" unicode="S" horiz-adv-x="694" 
d="M371 712q141 0 254 -41l-27 -75q-98 41 -236 41q-105 0 -164.5 -34.5t-59.5 -86.5q0 -47 42 -74t140 -44l60 -10q136 -23 205 -69t69 -127q0 -94 -83.5 -149.5t-237.5 -55.5q-107 0 -187 21t-116 43l26 74q29 -21 109.5 -41.5t177.5 -21.5q113 0 170.5 34t57.5 91
q0 49 -50 79t-159 48l-60 10q-120 20 -183.5 64t-63.5 124q0 89 86 144.5t230 55.5z" />
    <glyph glyph-name="T" unicode="T" horiz-adv-x="741" 
d="M15 700h711v-65l-314 -12v-623h-83v623l-314 13v64z" />
    <glyph glyph-name="U" unicode="U" horiz-adv-x="846" 
d="M80 700h83v-354q0 -143 69 -213.5t192 -70.5t191 70.5t68 213.5v354h83v-351q0 -177 -90 -269.5t-252 -92.5q-163 0 -253.5 92.5t-90.5 269.5v351z" />
    <glyph glyph-name="V" unicode="V" horiz-adv-x="816" 
d="M455 -3h-53q-36 0 -53 33l-344 670h43q44 0 61 -35l300 -587l317 622h85z" />
    <glyph glyph-name="W" unicode="W" horiz-adv-x="1119" 
d="M780 27l-214 546l-236 -576h-79q-32 0 -42 32l-204 671h46q39 0 50 -37l176 -593l239 576h80q23 0 33 -24l217 -556l182 634h86l-211 -703h-79q-32 0 -44 30z" />
    <glyph glyph-name="X" unicode="X" horiz-adv-x="716" 
d="M575 28l-217 273l-240 -301h-103l291 355l-280 345h52q50 0 73 -30l207 -256l234 286h99l-283 -341l293 -359h-65q-39 0 -61 28z" />
    <glyph glyph-name="Y" unicode="Y" horiz-adv-x="765" 
d="M339 0v256l-349 444h53q44 0 66 -29l273 -345l299 374h94l-353 -444v-256h-83z" />
    <glyph glyph-name="Z" unicode="Z" horiz-adv-x="707" 
d="M667 0h-627v15q0 30 7.5 46.5t29.5 42.5l466 521h-481v75h590v-20q0 -26 -6 -41t-24 -35l-473 -529h518v-75z" />
    <glyph glyph-name="bracketleft" unicode="[" horiz-adv-x="407" 
d="M307 -118v-66h-157v1039h157v-66h-72v-907h72z" />
    <glyph glyph-name="backslash" unicode="\" horiz-adv-x="560" 
d="M367 -117l-260 907h86l260 -907h-86z" />
    <glyph glyph-name="bracketright" unicode="]" horiz-adv-x="406" 
d="M256 -184h-156v66h72v907h-72v66h156v-1039z" />
    <glyph glyph-name="underscore" unicode="_" horiz-adv-x="546" 
d="M78 -76v76h390v-76h-390z" />
    <glyph glyph-name="a" unicode="a" horiz-adv-x="590" 
d="M273 58q47 0 95.5 16.5t70.5 43.5q-8 61 -54 97.5t-118 36.5q-61 0 -96.5 -25.5t-35.5 -72.5q0 -44 36.5 -70t101.5 -26zM453 0l-7 59q-18 -28 -69.5 -49t-118.5 -21q-93 0 -150.5 44.5t-57.5 116.5q0 77 58 122t148 45q69 0 114.5 -26t67.5 -64v70q0 65 -36.5 102
t-127.5 37q-88 0 -166 -32l-20 70q88 37 189 37q130 0 186.5 -52.5t56.5 -148.5v-310h-67z" />
    <glyph glyph-name="b" unicode="b" horiz-adv-x="630" 
d="M288 -11q-121 0 -213 54v707h81v-341q24 48 76.5 75t112.5 27q114 0 174.5 -69.5t60.5 -178.5q0 -125 -75 -199.5t-217 -74.5zM298 62q101 0 149.5 57.5t48.5 142.5q0 75 -38 125t-124 50q-72 0 -123.5 -42.5t-51.5 -130.5v-173q51 -29 139 -29z" />
    <glyph glyph-name="c" unicode="c" horiz-adv-x="533" 
d="M335 -11q-136 0 -210.5 74.5t-74.5 186.5t74.5 186.5t210.5 74.5q99 0 172 -33l-27 -67q-64 27 -144 27q-100 0 -150.5 -52t-50.5 -136t50 -136t151 -52q81 0 147 29l25 -68q-72 -34 -173 -34z" />
    <glyph glyph-name="d" unicode="d" horiz-adv-x="630" 
d="M314 62q62 0 109.5 32.5t47.5 98.5v193q-17 21 -58.5 36t-92.5 15q-90 0 -138 -54.5t-48 -136.5q0 -76 45 -130t135 -54zM475 61q-22 -33 -70 -52.5t-103 -19.5q-117 0 -184.5 72t-67.5 186q0 115 73 189.5t191 74.5q45 0 89.5 -14.5t70.5 -37.5v291h81v-750h-72z" />
    <glyph glyph-name="e" unicode="e" horiz-adv-x="594" 
d="M309 438q-147 0 -171 -143h332v2q0 60 -39 100.5t-122 40.5zM541 28q-99 -39 -205 -39q-143 0 -214.5 73.5t-71.5 187.5q0 111 66 186t193 75t186 -66.5t59 -176.5v-37h-418q11 -169 204 -169q96 0 177 31z" />
    <glyph glyph-name="f" unicode="f" horiz-adv-x="433" 
d="M117 0v429l-97 17v54h97v89q0 86 52 129t161 43q57 0 105 -16l-13 -70q-46 12 -89 12q-131 0 -131 -101v-86h202v-60l-202 -12v-428h-85z" />
    <glyph glyph-name="g" unicode="g" horiz-adv-x="580" 
d="M265 -260q-106 0 -173 39t-67 113q0 56 44.5 94.5t118.5 56.5q-22 19 -22 47q0 49 60 72q-87 8 -138 53.5t-51 110.5q0 77 67 131t172 54q66 0 117 -23l163 35l14 -65l-46 -9l-66 -5q48 -48 48 -109q0 -74 -50 -116t-136 -66l-32 -9q-35 -10 -35 -32q0 -24 36 -31l73 -16
q97 -21 142.5 -55.5t45.5 -96.5q0 -81 -84 -127t-201 -46zM282 216q62 0 103.5 31.5t41.5 84.5q0 42 -39.5 75.5t-111.5 33.5t-116 -32t-44 -85q0 -46 45 -77t121 -31zM268 -190q79 0 138 25.5t59 73.5q0 64 -129 88l-70 13l-7 1q-69 -9 -112 -36.5t-43 -69.5
q0 -48 46 -71.5t118 -23.5z" />
    <glyph glyph-name="h" unicode="h" horiz-adv-x="644" 
d="M159 264v-264h-84v750h81v-341q29 47 82.5 74.5t108.5 27.5q110 0 168.5 -62.5t58.5 -174.5v-274h-84v262q0 91 -43 133.5t-116 42.5q-69 0 -120.5 -43.5t-51.5 -130.5z" />
    <glyph glyph-name="i" unicode="i" horiz-adv-x="247" 
d="M123 577q-25 0 -42 17.5t-17 42.5q0 24 17 41.5t42 17.5t42.5 -17.5t17.5 -41.5q0 -25 -17.5 -42.5t-42.5 -17.5zM81 0v500h85v-500h-85z" />
    <glyph glyph-name="j" unicode="j" horiz-adv-x="244" 
d="M121 577q-25 0 -42.5 17.5t-17.5 42.5q0 24 17.5 41.5t42.5 17.5t42.5 -17.5t17.5 -41.5q0 -25 -17.5 -42.5t-42.5 -17.5zM-6 -253q-50 0 -79 12l13 66q17 -8 53 -8q50 0 74 27.5t24 88.5v567h84v-573q0 -94 -45.5 -137t-123.5 -43z" />
    <glyph glyph-name="k" unicode="k" horiz-adv-x="577" 
d="M158 26q-20 -26 -54 -26h-30v750h83v-619l283 369h95l-185 -232l212 -268h-96l-166 205z" />
    <glyph glyph-name="l" unicode="l" horiz-adv-x="280" 
d="M199 -6q-122 0 -122 123v633h84v-630q0 -57 50 -57q31 0 42 8l12 -66q-21 -11 -66 -11z" />
    <glyph glyph-name="m" unicode="m" horiz-adv-x="1047" 
d="M159 264v-264h-84v500h42q23 0 26 -20l10 -75q28 49 81.5 77.5t109.5 28.5q158 0 205 -126q22 53 79.5 89.5t124.5 36.5q109 0 166.5 -62.5t57.5 -174.5v-274h-84v262q0 91 -42 133.5t-114 42.5q-67 0 -118 -43.5t-51 -130.5v-264h-84v262q0 91 -42 133.5t-114 42.5
q-67 0 -118 -43.5t-51 -130.5z" />
    <glyph glyph-name="n" unicode="n" horiz-adv-x="644" 
d="M159 264v-264h-84v500h42q23 0 26 -22l10 -74q28 49 83 78t111 29q110 0 168.5 -62.5t58.5 -174.5v-274h-84v262q0 91 -43 133.5t-116 42.5q-69 0 -120.5 -43.5t-51.5 -130.5z" />
    <glyph glyph-name="o" unicode="o" horiz-adv-x="618" 
d="M309 -11q-126 0 -192.5 75t-66.5 186t66.5 186t192.5 75q128 0 193.5 -74.5t65.5 -186.5t-66 -186.5t-193 -74.5zM309 62q91 0 132.5 52.5t41.5 135.5t-41.5 135.5t-132.5 52.5q-92 0 -133 -52.5t-41 -135.5t41 -135.5t133 -52.5z" />
    <glyph glyph-name="p" unicode="p" horiz-adv-x="630" 
d="M301 62q101 0 148 56.5t47 140.5q0 76 -38 127t-124 51q-72 0 -123.5 -42.5t-51.5 -130.5v-168q53 -34 142 -34zM159 24v-274h-84v750h41q22 0 26 -22l12 -74q23 50 76 78.5t115 28.5q115 0 175 -70t60 -181q0 -119 -70.5 -195t-201.5 -76q-85 0 -149 35z" />
    <glyph glyph-name="q" unicode="q" horiz-adv-x="630" 
d="M555 -250h-84v306q-21 -29 -68 -48t-101 -19q-117 0 -184.5 72t-67.5 186q0 115 73 189.5t191 74.5q45 0 90 -14.5t70 -37.5l9 41h72v-750zM314 62q62 0 109.5 32.5t47.5 98.5v193q-17 21 -58.5 36t-92.5 15q-90 0 -138 -54.5t-48 -136.5q0 -75 45 -129.5t135 -54.5z" />
    <glyph glyph-name="r" unicode="r" horiz-adv-x="400" 
d="M159 0h-84v500h42q23 0 26 -22l11 -87q23 56 70.5 88t101.5 32q38 0 78 -15l-18 -89q-32 17 -75 17q-64 0 -108 -43t-44 -133v-248z" />
    <glyph glyph-name="s" unicode="s" horiz-adv-x="545" 
d="M248 -10q-108 0 -196 33l24 70q84 -30 171 -30q92 0 128.5 23.5t36.5 54.5q0 29 -26.5 47t-94.5 30l-60 10q-89 15 -132.5 48t-42.5 90q1 58 60 101t172 43q105 0 187 -30l-24 -71q-85 29 -160 29q-150 0 -150 -69q0 -50 107 -68l61 -10q99 -16 143.5 -50.5t44.5 -92.5
q0 -66 -61.5 -112t-187.5 -46z" />
    <glyph glyph-name="t" unicode="t" horiz-adv-x="442" 
d="M307 -10q-190 0 -190 180v261l-107 15v54h107v148h85v-148h210v-62l-210 -12v-250q0 -63 28 -89.5t90 -26.5q46 0 81 12l14 -65q-46 -17 -108 -17z" />
    <glyph glyph-name="u" unicode="u" horiz-adv-x="632" 
d="M488 0l-8 97q-27 -50 -79.5 -79t-108.5 -29q-108 0 -165 62.5t-57 174.5v274h84v-262q0 -91 41.5 -133.5t110.5 -42.5q66 0 116.5 43.5t50.5 130.5v264h84v-500h-69z" />
    <glyph glyph-name="v" unicode="v" horiz-adv-x="572" 
d="M318 -10h-27q-34 0 -48 30l-223 480h58q33 0 47 -33l165 -369l172 402h90z" />
    <glyph glyph-name="w" unicode="w" horiz-adv-x="833" 
d="M568 26l-145 379l-149 -416h-35q-33 0 -45 34l-174 477h54q31 0 40 -28l125 -364l137 377h56q32 0 43 -28l139 -347l115 390h84l-164 -511h-27q-40 0 -54 37z" />
    <glyph glyph-name="x" unicode="x" horiz-adv-x="570" 
d="M434 24l-148 181l-170 -205h-96l216 256l-205 244h58q39 0 57 -22l138 -166l157 188h96l-205 -240l218 -260h-59q-38 0 -57 24z" />
    <glyph glyph-name="y" unicode="y" horiz-adv-x="630" 
d="M297 -254q-109 0 -199 57l32 71q80 -54 166 -54q101 0 141 41t40 120v112q-27 -48 -79 -76t-106 -28q-108 0 -165 62.5t-57 174.5v274h84v-262q0 -91 41.5 -133.5t110.5 -42.5q66 0 116.5 43.5t50.5 130.5v264h84v-518q0 -116 -60.5 -176t-199.5 -60z" />
    <glyph glyph-name="z" unicode="z" horiz-adv-x="509" 
d="M474 0h-439v17q0 44 24 72l298 340l-306 -2v73h413v-25q0 -35 -19 -57l-305 -346l334 2v-74z" />
    <glyph glyph-name="braceleft" unicode="{" horiz-adv-x="397" 
d="M281 -189q-64 0 -104.5 34.5t-40.5 111.5q0 44 11.5 132.5t11.5 130.5q0 35 -17.5 56t-48.5 21h-11v70h11q32 0 49 20.5t17 55.5q0 42 -11.5 131t-11.5 133q0 77 40.5 111t104.5 34q13 0 43 -3l1 -60q-104 0 -104 -89q0 -44 10 -125.5t10 -118.5q0 -119 -85 -123v-3
q85 -4 85 -122q0 -37 -10 -118.5t-10 -126.5q0 -49 30.5 -69t73.5 -20l-1 -60q-30 -3 -43 -3z" />
    <glyph glyph-name="bar" unicode="|" horiz-adv-x="648" 
d="M282 -117v907h84v-907h-84z" />
    <glyph glyph-name="braceright" unicode="}" horiz-adv-x="397" 
d="M116 -189q-13 0 -43 3l-1 60q43 0 73.5 20t30.5 69q0 45 -10 126.5t-10 118.5q0 118 85 122v3q-85 4 -85 123q0 37 10 118.5t10 125.5q0 89 -104 89l1 60q30 3 43 3q64 0 104.5 -34t40.5 -111q0 -44 -11.5 -133t-11.5 -131q0 -35 17 -55.5t49 -20.5h11v-70h-11
q-31 0 -48.5 -21t-17.5 -56q0 -42 11.5 -130.5t11.5 -132.5q0 -77 -40.5 -111.5t-104.5 -34.5z" />
    <glyph glyph-name="exclamdown" unicode="&#xa1;" horiz-adv-x="249" 
d="M125 388q-25 0 -43 18t-18 43q0 24 18 42t43 18t43 -18t18 -42q0 -25 -18 -43t-43 -18zM74 -250l23 544h56l23 -544h-102z" />
    <glyph glyph-name="cent" unicode="&#xa2;" horiz-adv-x="533" 
d="M508 123q-62 -29 -151 -34v-100h-73v103q-113 14 -173.5 86t-60.5 172t60.5 172t173.5 86v97h73v-94q85 -3 150 -33l-27 -67q-64 27 -144 27q-100 0 -150.5 -52t-50.5 -136t50 -136t151 -52q81 0 147 29z" />
    <glyph glyph-name="sterling" unicode="&#xa3;" horiz-adv-x="700" 
d="M647 76v-76h-573v76h33q103 0 165 42t68 111h-228v70h207q-18 19 -76 49l-49 25q-114 58 -114 148q0 81 76.5 132.5t206.5 51.5q128 0 240 -54l-23 -70q-114 50 -215 50q-90 0 -144.5 -27.5t-54.5 -76.5q0 -51 77 -93l65 -35q84 -45 104 -100h152v-70h-144
q-4 -48 -31 -88t-69 -65h327z" />
    <glyph glyph-name="currency" unicode="&#xa4;" horiz-adv-x="700" 
d="M527 66l-62 62q-53 -36 -116 -36t-114 36l-62 -61l-53 53l61 61q-35 53 -35 114q0 63 37 115l-61 61l54 54l61 -61q52 35 114 35q60 0 112 -35l62 61l53 -53l-61 -61q37 -52 37 -115q0 -61 -36 -114l62 -62zM348 164q55 0 94 39q39 42 39 96q0 53 -37 91q-37 37 -90 37
q-55 0 -95 -40t-40 -95q0 -50 38 -90q38 -38 91 -38z" />
    <glyph glyph-name="yen" unicode="&#xa5;" horiz-adv-x="765" 
d="M561 98h-137v-98h-83v98h-144v63h144v51h-144v64h127l-334 424h96l296 -374l299 374h94l-337 -424h123v-64h-137v-51h137v-63z" />
    <glyph glyph-name="brokenbar" unicode="&#xa6;" horiz-adv-x="648" 
d="M282 413v377h84v-377h-84zM282 -117v377h84v-377h-84z" />
    <glyph glyph-name="section" unicode="&#xa7;" horiz-adv-x="595" 
d="M311 156q68 -66 93 -122q29 29 29 76q0 49 -22 83.5t-68 77.5l-80 76q-44 42 -65 82q-31 -28 -31 -76q0 -58 62 -118zM242 -251q-69 0 -123 49l32 64q39 -37 89 -37t74 31.5t24 78.5q0 50 -20 85.5t-60 72.5l-80 76q-91 88 -91 184q0 45 21.5 84.5t66.5 60.5q-3 16 -3 33
q0 70 46.5 122t136.5 52q66 0 106 -38l-32 -64q-38 28 -73 28q-51 0 -75 -29t-24 -72q0 -61 57 -118l82 -79q58 -56 85 -106t27 -112q0 -49 -21.5 -92.5t-64.5 -66.5q1 -6 1 -18q0 -76 -45.5 -132.5t-135.5 -56.5z" />
    <glyph glyph-name="copyright" unicode="&#xa9;" horiz-adv-x="904" 
d="M452 -25q-167 0 -280.5 113t-113.5 279q0 165 114 278t280 113t280 -113t114 -278q0 -166 -114 -279t-280 -113zM452 42q135 0 227 93.5t92 231.5q0 137 -92 230.5t-227 93.5q-136 0 -227.5 -93.5t-91.5 -230.5q0 -138 91.5 -231.5t227.5 -93.5zM458 125
q-113 0 -172 68.5t-59 173.5q0 103 59 170.5t171 67.5q71 0 131 -31l-21 -57q-50 25 -108 25q-79 0 -119 -50.5t-40 -124.5q0 -76 40 -127t119 -51q57 0 112 24l17 -57q-62 -31 -130 -31z" />
    <glyph glyph-name="ordfeminine" unicode="&#xaa;" horiz-adv-x="458" 
d="M215 464q33 0 66 11.5t49 30.5q-5 44 -37 70t-83 26q-43 0 -67.5 -18.5t-24.5 -51.5q0 -31 25.5 -49.5t71.5 -18.5zM341 418l-6 44q-12 -20 -49.5 -36t-85.5 -16q-68 0 -109.5 33t-41.5 86q0 57 42.5 90.5t108.5 33.5q91 0 129 -64v47q0 48 -26 74.5t-91 26.5
q-64 0 -119 -25l-16 57q61 27 139 27q179 0 179 -150v-228h-54zM63 273v68h326v-68h-326z" />
    <glyph glyph-name="guillemotleft" unicode="&#xab;" horiz-adv-x="543" 
d="M216 32l-168 200v7l168 200h99l-170 -203l170 -204h-99zM398 32l-168 200v7l168 200h99l-170 -203l170 -204h-99z" />
    <glyph glyph-name="registered" unicode="&#xae;" horiz-adv-x="662" 
d="M331 172q-119 0 -200.5 81.5t-81.5 199.5t81.5 199t200.5 81t200.5 -81t81.5 -199t-81.5 -199.5t-200.5 -81.5zM331 227q94 0 157.5 65.5t63.5 160.5t-63.5 159.5t-157.5 64.5t-157.5 -64.5t-63.5 -159.5t63.5 -160.5t157.5 -65.5zM318 441q89 0 89 74q0 51 -65 51h-71
v-119q21 -6 47 -6zM318 397q-24 0 -47 5v-103h-51v312h117q64 0 93 -27.5t29 -68.5q0 -75 -67 -105l76 -111h-58l-68 99q-8 -1 -24 -1z" />
    <glyph glyph-name="degree" unicode="&#xb0;" horiz-adv-x="339" 
d="M170 493q-51 0 -93.5 34.5t-42.5 97.5q0 64 42.5 98t93.5 34t93 -34t42 -98t-42 -98t-93 -34zM170 551q31 0 52 19.5t21 54.5t-21 54.5t-52 19.5t-52.5 -20t-21.5 -54t21.5 -54t52.5 -20z" />
    <glyph glyph-name="plusminus" unicode="&#xb1;" horiz-adv-x="546" 
d="M460 379h-150v-151h-72v151h-152v69h152v154h72v-154h150v-69zM86 109v70h374v-70h-374z" />
    <glyph glyph-name="paragraph" unicode="&#xb6;" horiz-adv-x="733" 
d="M477 -250v888h-82v-888h-79v490h-19q-112 0 -183.5 62t-71.5 164q0 107 66.5 170.5t202.5 63.5h339v-62h-93v-888h-80z" />
    <glyph glyph-name="periodcentered" unicode="&#xb7;" horiz-adv-x="243" 
d="M122 230q-26 0 -43.5 17.5t-17.5 42.5q0 26 17.5 43.5t43.5 17.5q25 0 42.5 -18t17.5 -43t-17.5 -42.5t-42.5 -17.5z" />
    <glyph glyph-name="ordmasculine" unicode="&#xba;" horiz-adv-x="479" 
d="M239 410q-92 0 -140.5 55.5t-48.5 137.5t48.5 137.5t140.5 55.5q94 0 142 -55t48 -138t-48 -138t-142 -55zM239 468q63 0 92 37.5t29 97.5t-29 97.5t-92 37.5t-92 -37.5t-29 -97.5t29 -97.5t92 -37.5zM82 273v68h310v-68h-310z" />
    <glyph glyph-name="guillemotright" unicode="&#xbb;" horiz-adv-x="543" 
d="M48 32l170 204l-170 203h99l168 -200v-7l-168 -200h-99zM230 32l170 204l-170 203h99l168 -200v-7l-168 -200h-99z" />
    <glyph glyph-name="onequarter" unicode="&#xbc;" horiz-adv-x="900" 
d="M210 0l487 700h85l-488 -700h-84zM370 307h-288v61h113v250l-108 -40v65l106 40q24 10 50 10h19v-325h108v-61zM707 147v172l-144 -172h144zM818 90h-46v-91h-65v91h-219v54l205 240h79v-237h46v-57z" />
    <glyph glyph-name="onehalf" unicode="&#xbd;" horiz-adv-x="900" 
d="M178 0l487 700h85l-488 -700h-84zM562 -1v60q0 42 26 69.5t73 49.5l49 21q35 16 51.5 31.5t16.5 38.5q0 26 -24 43t-67 17q-57 0 -107 -26l-17 54q60 30 130 30q73 0 114 -31t41 -79q0 -42 -27.5 -70.5t-75.5 -50.5l-49 -21q-59 -28 -59 -65v-9h212v-62h-287zM339 307
h-288v61h113v250l-108 -40v65l106 40q24 10 50 10h19v-325h108v-61z" />
    <glyph glyph-name="threequarters" unicode="&#xbe;" horiz-adv-x="900" 
d="M199 0l487 700h85l-488 -700h-84zM210 300q-71 0 -123 22l20 57q43 -18 100 -18q102 0 102 60q0 57 -92 57h-54v56h53q39 0 59.5 15t20.5 38q0 50 -88 50q-52 0 -102 -19l-16 54q53 23 125 23q75 0 112.5 -27t37.5 -70q0 -30 -18 -54t-46 -35q33 -6 55 -31t22 -57
q0 -54 -41.5 -87.5t-126.5 -33.5zM702 147v172l-144 -172h144zM813 90h-46v-91h-65v91h-219v54l205 240h79v-237h46v-57z" />
    <glyph glyph-name="questiondown" unicode="&#xbf;" horiz-adv-x="478" 
d="M295 389q-25 0 -42.5 18t-17.5 43t17.5 43t42.5 18t43 -18t18 -43q0 -26 -18 -43.5t-43 -17.5zM265 -255q-125 0 -190 53.5t-65 137.5q0 91 73 144.5t174 60.5l8 158h64l6 -211q-44 0 -84 -7t-76.5 -22.5t-58.5 -45.5t-22 -70q0 -56 42 -89.5t133 -33.5q97 0 162 28
l20 -74q-71 -29 -186 -29z" />
    <glyph glyph-name="Agrave" unicode="&#xc0;" horiz-adv-x="874" 
d="M409 789l-139 116h81q40 0 64 -30l67 -86h-73zM623 266l-187 363l-186 -363h373zM760 0l-98 191h-450l-98 -191h-89l364 700h54q39 0 56 -32l350 -668h-89z" />
    <glyph glyph-name="Aacute" unicode="&#xc1;" horiz-adv-x="874" 
d="M350 787l130 111h133l-177 -111h-86zM623 266l-187 363l-186 -363h373zM760 0l-98 191h-450l-98 -191h-89l364 700h54q39 0 56 -32l350 -668h-89z" />
    <glyph glyph-name="Acircumflex" unicode="&#xc2;" horiz-adv-x="874" 
d="M496 787l-64 62l-68 -62h-91l125 112h40q26 0 45 -17l105 -95h-92zM623 266l-187 363l-186 -363h373zM760 0l-98 191h-450l-98 -191h-89l364 700h54q39 0 56 -32l350 -668h-89z" />
    <glyph glyph-name="Atilde" unicode="&#xc3;" horiz-adv-x="874" 
d="M251 789q-12 12 -12 40q0 35 28 59.5t77 24.5q36 0 64.5 -15.5t51 -31t44.5 -15.5q27 0 39.5 21.5t12.5 45.5h54q10 -15 10 -37q0 -42 -31 -71.5t-77 -29.5q-38 0 -67 16t-50.5 31.5t-42.5 15.5q-26 0 -37 -17t-11 -37h-53zM623 266l-187 363l-186 -363h373zM760 0
l-98 191h-450l-98 -191h-89l364 700h54q39 0 56 -32l350 -668h-89z" />
    <glyph glyph-name="Adieresis" unicode="&#xc4;" horiz-adv-x="874" 
d="M536 787q-23 0 -40 17t-17 41t17 41.5t40 17.5q24 0 41 -17.5t17 -41.5t-17 -41t-41 -17zM327 787q-24 0 -40.5 17t-16.5 41t16.5 41.5t40.5 17.5t41 -17.5t17 -41.5t-17 -41t-41 -17zM623 266l-187 363l-186 -363h373zM760 0l-98 191h-450l-98 -191h-89l364 700h54
q39 0 56 -32l350 -668h-89z" />
    <glyph glyph-name="AE" unicode="&#xc6;" horiz-adv-x="1136" 
d="M285 266h216v312zM5 0l496 700h564v-75h-481v-225h433v-75h-433v-250h492v-75h-575v191h-268l-133 -191h-95z" />
    <glyph glyph-name="Ccedilla" unicode="&#xc7;" horiz-adv-x="751" 
d="M406 -243q-39 0 -72 13t-47 26l-14 13l26 50q4 -5 12.5 -12.5t36 -20t56.5 -12.5q65 0 65 48q0 20 -15.5 32t-38.5 12q-17 0 -32 -6.5t-21 -13.5l-7 -6l-39 14l55 101q-146 21 -236 111.5t-90 238.5q0 114 56 198.5t147 126t203 41.5q64 0 125.5 -12.5t91.5 -24.5l29 -13
l-27 -71q-10 5 -28 12.5t-74.5 20.5t-112.5 13q-134 0 -230 -77t-96 -214q0 -91 47 -156t120 -95t162 -30q60 0 116 12.5t82 25.5l26 12l24 -71q-12 -6 -33 -15t-87 -24t-132 -15h-24l-22 -41q18 4 32 4q40 0 69 -22t29 -66q0 -49 -36 -78t-96 -29z" />
    <glyph glyph-name="Egrave" unicode="&#xc8;" horiz-adv-x="730" 
d="M413 789l-139 116h81q40 0 64 -30l67 -86h-73zM124 700h564v-75h-481v-225h433v-75h-433v-250h492v-75h-575v700z" />
    <glyph glyph-name="Eacute" unicode="&#xc9;" horiz-adv-x="730" 
d="M283 787l130 111h133l-177 -111h-86zM112 700h564v-75h-481v-225h433v-75h-433v-250h492v-75h-575v700z" />
    <glyph glyph-name="Ecircumflex" unicode="&#xca;" horiz-adv-x="730" 
d="M443 787l-64 62l-68 -62h-91l125 112h40q26 0 45 -17l105 -95h-92zM95 700h564v-75h-481v-225h433v-75h-433v-250h492v-75h-575v700z" />
    <glyph glyph-name="Edieresis" unicode="&#xcb;" horiz-adv-x="730" 
d="M495 787q-23 0 -40 17t-17 41t17 41.5t40 17.5q24 0 41 -17.5t17 -41.5t-17 -41t-41 -17zM286 787q-24 0 -40.5 17t-16.5 41t16.5 41.5t40.5 17.5t41 -17.5t17 -41.5t-17 -41t-41 -17zM103 700h564v-75h-481v-225h433v-75h-433v-250h492v-75h-575v700z" />
    <glyph glyph-name="Igrave" unicode="&#xcc;" horiz-adv-x="293" 
d="M139 789l-139 116h81q40 0 64 -30l67 -86h-73zM105 700h83v-700h-83v700z" />
    <glyph glyph-name="Iacute" unicode="&#xcd;" horiz-adv-x="293" 
d="M78 787l130 111h133l-177 -111h-86zM105 700h83v-700h-83v700z" />
    <glyph glyph-name="Icircumflex" unicode="&#xce;" horiz-adv-x="293" 
d="M218 787l-64 62l-68 -62h-91l125 112h40q26 0 45 -17l105 -95h-92zM105 700h83v-700h-83v700z" />
    <glyph glyph-name="Idieresis" unicode="&#xcf;" horiz-adv-x="293" 
d="M252 787q-23 0 -40 17t-17 41t17 41.5t40 17.5q24 0 41 -17.5t17 -41.5t-17 -41t-41 -17zM43 787q-24 0 -40.5 17t-16.5 41t16.5 41.5t40.5 17.5t41 -17.5t17 -41.5t-17 -41t-41 -17zM105 700h83v-700h-83v700z" />
    <glyph glyph-name="Ntilde" unicode="&#xd1;" horiz-adv-x="928" 
d="M282 789q-12 12 -12 40q0 35 28 59.5t77 24.5q36 0 64.5 -15.5t51 -31t44.5 -15.5q27 0 39.5 21.5t12.5 45.5h54q10 -15 10 -37q0 -42 -31 -71.5t-77 -29.5q-38 0 -66.5 16t-50.5 31.5t-43 15.5q-25 0 -36.5 -17t-11.5 -37h-53zM741 14l-562 577v-591h-84v700h68
q17 0 28 -11l558 -574v585h84v-700h-57q-22 0 -35 14z" />
    <glyph glyph-name="Ograve" unicode="&#xd2;" horiz-adv-x="857" 
d="M404 789l-139 116h81q40 0 64 -30l67 -86h-73zM429 712q178 0 280.5 -103t102.5 -256q0 -101 -44 -183t-132 -132t-207 -50q-179 0 -281.5 104.5t-102.5 260.5q0 153 102.5 256t281.5 103zM429 637q-139 0 -220 -78t-81 -206q0 -129 81.5 -209.5t219.5 -80.5t219 80.5
t81 209.5q0 128 -80.5 206t-219.5 78z" />
    <glyph glyph-name="Oacute" unicode="&#xd3;" horiz-adv-x="857" 
d="M327 787l130 111h133l-177 -111h-86zM429 712q178 0 280.5 -103t102.5 -256q0 -101 -44 -183t-132 -132t-207 -50q-179 0 -281.5 104.5t-102.5 260.5q0 153 102.5 256t281.5 103zM429 637q-139 0 -220 -78t-81 -206q0 -129 81.5 -209.5t219.5 -80.5t219 80.5t81 209.5
q0 128 -80.5 206t-219.5 78z" />
    <glyph glyph-name="Ocircumflex" unicode="&#xd4;" horiz-adv-x="857" 
d="M486 787l-64 62l-68 -62h-91l125 112h40q26 0 45 -17l105 -95h-92zM429 712q178 0 280.5 -103t102.5 -256q0 -101 -44 -183t-132 -132t-207 -50q-179 0 -281.5 104.5t-102.5 260.5q0 153 102.5 256t281.5 103zM429 637q-139 0 -220 -78t-81 -206q0 -129 81.5 -209.5
t219.5 -80.5t219 80.5t81 209.5q0 128 -80.5 206t-219.5 78z" />
    <glyph glyph-name="Otilde" unicode="&#xd5;" horiz-adv-x="857" 
d="M237 789q-12 12 -12 40q0 35 28 59.5t77 24.5q36 0 64.5 -15.5t51 -31t44.5 -15.5q27 0 39.5 21.5t12.5 45.5h54q10 -15 10 -37q0 -42 -31 -71.5t-77 -29.5q-38 0 -67 16t-50.5 31.5t-42.5 15.5q-26 0 -37 -17t-11 -37h-53zM429 712q178 0 280.5 -103t102.5 -256
q0 -101 -44 -183t-132 -132t-207 -50q-179 0 -281.5 104.5t-102.5 260.5q0 153 102.5 256t281.5 103zM429 637q-139 0 -220 -78t-81 -206q0 -129 81.5 -209.5t219.5 -80.5t219 80.5t81 209.5q0 128 -80.5 206t-219.5 78z" />
    <glyph glyph-name="Odieresis" unicode="&#xd6;" horiz-adv-x="857" 
d="M522 787q-23 0 -40 17t-17 41t17 41.5t40 17.5q24 0 41 -17.5t17 -41.5t-17 -41t-41 -17zM313 787q-24 0 -40.5 17t-16.5 41t16.5 41.5t40.5 17.5t41 -17.5t17 -41.5t-17 -41t-41 -17zM429 712q178 0 280.5 -103t102.5 -256q0 -101 -44 -183t-132 -132t-207 -50
q-179 0 -281.5 104.5t-102.5 260.5q0 153 102.5 256t281.5 103zM429 637q-139 0 -220 -78t-81 -206q0 -129 81.5 -209.5t219.5 -80.5t219 80.5t81 209.5q0 128 -80.5 206t-219.5 78z" />
    <glyph glyph-name="multiply" unicode="&#xd7;" horiz-adv-x="546" 
d="M384 145l-111 111l-111 -111l-53 54l111 111l-111 111l53 54l112 -111l110 110l54 -53l-111 -111l111 -111z" />
    <glyph glyph-name="Ugrave" unicode="&#xd9;" horiz-adv-x="846" 
d="M431 789l-139 116h81q40 0 64 -30l67 -86h-73zM94 700h83v-354q0 -143 69 -213.5t192 -70.5t191 70.5t68 213.5v354h83v-351q0 -177 -90 -269.5t-252 -92.5q-163 0 -253.5 92.5t-90.5 269.5v351z" />
    <glyph glyph-name="Uacute" unicode="&#xda;" horiz-adv-x="846" 
d="M323 787l130 111h133l-177 -111h-86zM82 700h83v-354q0 -143 69 -213.5t192 -70.5t191 70.5t68 213.5v354h83v-351q0 -177 -90 -269.5t-252 -92.5q-163 0 -253.5 92.5t-90.5 269.5v351z" />
    <glyph glyph-name="Ucircumflex" unicode="&#xdb;" horiz-adv-x="846" 
d="M484 787l-64 62l-68 -62h-91l125 112h40q26 0 45 -17l105 -95h-92zM80 700h83v-354q0 -143 69 -213.5t192 -70.5t191 70.5t68 213.5v354h83v-351q0 -177 -90 -269.5t-252 -92.5q-163 0 -253.5 92.5t-90.5 269.5v351z" />
    <glyph glyph-name="Udieresis" unicode="&#xdc;" horiz-adv-x="846" 
d="M517 787q-23 0 -40 17t-17 41t17 41.5t40 17.5q24 0 41 -17.5t17 -41.5t-17 -41t-41 -17zM308 787q-24 0 -40.5 17t-16.5 41t16.5 41.5t40.5 17.5t41 -17.5t17 -41.5t-17 -41t-41 -17zM80 700h83v-354q0 -143 69 -213.5t192 -70.5t191 70.5t68 213.5v354h83v-351
q0 -177 -90 -269.5t-252 -92.5q-163 0 -253.5 92.5t-90.5 269.5v351z" />
    <glyph glyph-name="germandbls" unicode="&#xdf;" horiz-adv-x="705" 
d="M431 -10q-108 0 -196 33l24 70q84 -30 171 -30q92 0 128.5 23.5t36.5 54.5q0 29 -26.5 47t-94.5 30l-60 10q-175 29 -175 134q0 79 97 123l87 40q60 27 60 75q0 36 -38.5 59t-104.5 23q-83 0 -129.5 -41.5t-46.5 -112.5v-528h-85v530q0 106 75 165.5t186 59.5
q104 0 164 -44.5t60 -109.5q0 -88 -91 -128l-90 -39q-59 -26 -59 -64q0 -51 107 -69l61 -10q99 -16 143.5 -50.5t44.5 -92.5q0 -66 -61.5 -112t-187.5 -46z" />
    <glyph glyph-name="agrave" unicode="&#xe0;" horiz-adv-x="590" 
d="M294 569l-121 129h68q38 0 60 -32l63 -97h-70zM273 58q47 0 95.5 16.5t70.5 43.5q-8 61 -54 97.5t-118 36.5q-61 0 -96.5 -25.5t-35.5 -72.5q0 -44 36.5 -70t101.5 -26zM453 0l-7 59q-18 -28 -69.5 -49t-118.5 -21q-93 0 -150.5 44.5t-57.5 116.5q0 77 58 122t148 45
q69 0 114.5 -26t67.5 -64v70q0 65 -36.5 102t-127.5 37q-88 0 -166 -32l-20 70q88 37 189 37q130 0 186.5 -52.5t56.5 -148.5v-310h-67z" />
    <glyph glyph-name="aacute" unicode="&#xe1;" horiz-adv-x="590" 
d="M217 569l110 129h108l-145 -129h-73zM273 58q47 0 95.5 16.5t70.5 43.5q-8 61 -54 97.5t-118 36.5q-61 0 -96.5 -25.5t-35.5 -72.5q0 -44 36.5 -70t101.5 -26zM453 0l-7 59q-18 -28 -69.5 -49t-118.5 -21q-93 0 -150.5 44.5t-57.5 116.5q0 77 58 122t148 45
q69 0 114.5 -26t67.5 -64v70q0 65 -36.5 102t-127.5 37q-88 0 -166 -32l-20 70q88 37 189 37q130 0 186.5 -52.5t56.5 -148.5v-310h-67z" />
    <glyph glyph-name="acircumflex" unicode="&#xe2;" horiz-adv-x="590" 
d="M352 569l-53 77l-56 -77h-84l105 129h44q29 0 49 -27l79 -102h-84zM273 58q47 0 95.5 16.5t70.5 43.5q-8 61 -54 97.5t-118 36.5q-61 0 -96.5 -25.5t-35.5 -72.5q0 -44 36.5 -70t101.5 -26zM453 0l-7 59q-18 -28 -69.5 -49t-118.5 -21q-93 0 -150.5 44.5t-57.5 116.5
q0 77 58 122t148 45q69 0 114.5 -26t67.5 -64v70q0 65 -36.5 102t-127.5 37q-88 0 -166 -32l-20 70q88 37 189 37q130 0 186.5 -52.5t56.5 -148.5v-310h-67z" />
    <glyph glyph-name="atilde" unicode="&#xe3;" horiz-adv-x="590" 
d="M131 569q-14 14 -14 42q0 36 26 59.5t71 23.5q32 0 57.5 -17t46 -34t40.5 -17q23 0 34 24.5t11 49.5h51q9 -14 9 -36q0 -45 -28.5 -74t-71.5 -29q-34 0 -59.5 17.5t-44.5 34.5t-38 17q-22 0 -32 -19.5t-10 -41.5h-48zM273 58q47 0 95.5 16.5t70.5 43.5q-8 61 -54 97.5
t-118 36.5q-61 0 -96.5 -25.5t-35.5 -72.5q0 -44 36.5 -70t101.5 -26zM453 0l-7 59q-18 -28 -69.5 -49t-118.5 -21q-93 0 -150.5 44.5t-57.5 116.5q0 77 58 122t148 45q69 0 114.5 -26t67.5 -64v70q0 65 -36.5 102t-127.5 37q-88 0 -166 -32l-20 70q88 37 189 37
q130 0 186.5 -52.5t56.5 -148.5v-310h-67z" />
    <glyph glyph-name="adieresis" unicode="&#xe4;" horiz-adv-x="590" 
d="M389 578q-23 0 -40 17t-17 41t17 41.5t40 17.5q24 0 41 -17.5t17 -41.5t-17 -41t-41 -17zM200 578q-24 0 -40.5 17t-16.5 41t16.5 41.5t40.5 17.5t41 -17.5t17 -41.5t-17 -41t-41 -17zM273 58q47 0 95.5 16.5t70.5 43.5q-8 61 -54 97.5t-118 36.5q-61 0 -96.5 -25.5
t-35.5 -72.5q0 -44 36.5 -70t101.5 -26zM453 0l-7 59q-18 -28 -69.5 -49t-118.5 -21q-93 0 -150.5 44.5t-57.5 116.5q0 77 58 122t148 45q69 0 114.5 -26t67.5 -64v70q0 65 -36.5 102t-127.5 37q-88 0 -166 -32l-20 70q88 37 189 37q130 0 186.5 -52.5t56.5 -148.5v-310h-67
z" />
    <glyph glyph-name="ae" unicode="&#xe6;" horiz-adv-x="984" 
d="M527 295h333v2q0 60 -39 100.5t-122 40.5q-80 0 -122.5 -39.5t-49.5 -103.5zM258 -11q-93 0 -150.5 44.5t-57.5 116.5q0 77 60.5 122t154.5 45q107 0 174 -42v34q0 127 -165 127q-92 0 -166 -32l-20 70q88 37 189 37q170 0 216 -79q60 79 206 79q127 0 186 -66.5
t59 -176.5v-37h-418q0 -1 3 -31q10 -63 60 -100.5t140 -37.5q97 0 178 31l24 -65q-99 -39 -205 -39q-81 0 -141.5 24.5t-93.5 64.5q-32 -36 -94 -62.5t-139 -26.5zM273 58q58 0 113.5 24t70.5 61q-7 26 -11 44q-49 65 -170 65q-65 0 -103 -25.5t-38 -72.5q0 -44 36.5 -70
t101.5 -26z" />
    <glyph glyph-name="ccedilla" unicode="&#xe7;" horiz-adv-x="533" 
d="M281 -243q-39 0 -72 13t-47 26l-14 13l26 50q4 -5 12.5 -12.5t36 -20t56.5 -12.5q65 0 65 48q0 20 -15.5 32t-38.5 12q-17 0 -32 -6.5t-22 -13.5l-6 -6l-39 14l57 104q-96 22 -147 91t-51 161q0 112 74.5 186.5t210.5 74.5q99 0 172 -33l-27 -67q-64 27 -144 27
q-100 0 -150.5 -52t-50.5 -136t50 -136t151 -52q81 0 147 29l25 -68q-72 -34 -173 -34q-20 0 -29 1l-23 -42q18 4 32 4q40 0 69 -22t29 -66q0 -49 -36 -78t-96 -29z" />
    <glyph glyph-name="egrave" unicode="&#xe8;" horiz-adv-x="594" 
d="M301 569l-121 129h68q38 0 60 -32l63 -97h-70zM309 438q-147 0 -171 -143h332v2q0 60 -39 100.5t-122 40.5zM541 28q-99 -39 -205 -39q-143 0 -214.5 73.5t-71.5 187.5q0 111 66 186t193 75t186 -66.5t59 -176.5v-37h-418q11 -169 204 -169q96 0 177 31z" />
    <glyph glyph-name="eacute" unicode="&#xe9;" horiz-adv-x="594" 
d="M228 569l110 129h108l-145 -129h-73zM309 438q-147 0 -171 -143h332v2q0 60 -39 100.5t-122 40.5zM541 28q-99 -39 -205 -39q-143 0 -214.5 73.5t-71.5 187.5q0 111 66 186t193 75t186 -66.5t59 -176.5v-37h-418q11 -169 204 -169q96 0 177 31z" />
    <glyph glyph-name="ecircumflex" unicode="&#xea;" horiz-adv-x="594" 
d="M363 569l-53 77l-56 -77h-84l105 129h44q29 0 49 -27l79 -102h-84zM309 438q-147 0 -171 -143h332v2q0 60 -39 100.5t-122 40.5zM541 28q-99 -39 -205 -39q-143 0 -214.5 73.5t-71.5 187.5q0 111 66 186t193 75t186 -66.5t59 -176.5v-37h-418q11 -169 204 -169
q96 0 177 31z" />
    <glyph glyph-name="edieresis" unicode="&#xeb;" horiz-adv-x="594" 
d="M407 578q-23 0 -40 17t-17 41t17 41.5t40 17.5q24 0 41 -17.5t17 -41.5t-17 -41t-41 -17zM218 578q-24 0 -40.5 17t-16.5 41t16.5 41.5t40.5 17.5t41 -17.5t17 -41.5t-17 -41t-41 -17zM309 438q-147 0 -171 -143h332v2q0 60 -39 100.5t-122 40.5zM541 28
q-99 -39 -205 -39q-143 0 -214.5 73.5t-71.5 187.5q0 111 66 186t193 75t186 -66.5t59 -176.5v-37h-418q11 -169 204 -169q96 0 177 31z" />
    <glyph glyph-name="igrave" unicode="&#xec;" horiz-adv-x="247" 
d="M36 699h69q35 0 42 -32l27 -98h-64zM81 0v500h85v-500h-85z" />
    <glyph glyph-name="iacute" unicode="&#xed;" horiz-adv-x="247" 
d="M72 569l70 129h97l-98 -129h-69zM81 0v500h85v-500h-85z" />
    <glyph glyph-name="icircumflex" unicode="&#xee;" horiz-adv-x="247" 
d="M172 567l-48 76l-49 -76h-79l92 132h44q31 0 47 -26l70 -106h-77zM82 0v500h85v-500h-85z" />
    <glyph glyph-name="idieresis" unicode="&#xef;" horiz-adv-x="247" 
d="M210 579q-23 0 -39.5 16.5t-16.5 40.5q0 23 16.5 40t39.5 17t39.5 -17t16.5 -40q0 -24 -16.5 -40.5t-39.5 -16.5zM43 579q-23 0 -39.5 16.5t-16.5 40.5q0 23 16.5 40t39.5 17t39.5 -17t16.5 -40q0 -24 -16.5 -40.5t-39.5 -16.5zM82 0v500h85v-500h-85z" />
    <glyph glyph-name="ntilde" unicode="&#xf1;" horiz-adv-x="644" 
d="M165 569q-14 14 -14 42q0 36 26 59.5t71 23.5q32 0 57.5 -17t46 -34t40.5 -17q23 0 34 24.5t11 49.5h51q9 -14 9 -36q0 -45 -28.5 -74t-71.5 -29q-34 0 -59.5 17.5t-44.5 34.5t-38 17q-22 0 -32 -19.5t-10 -41.5h-48zM159 264v-264h-84v500h42q23 0 26 -22l10 -74
q28 49 83 78t111 29q110 0 168.5 -62.5t58.5 -174.5v-274h-84v262q0 91 -43 133.5t-116 42.5q-69 0 -120.5 -43.5t-51.5 -130.5z" />
    <glyph glyph-name="ograve" unicode="&#xf2;" horiz-adv-x="618" 
d="M287 569l-121 129h68q38 0 60 -32l63 -97h-70zM309 -11q-126 0 -192.5 75t-66.5 186t66.5 186t192.5 75q128 0 193.5 -74.5t65.5 -186.5t-66 -186.5t-193 -74.5zM309 62q91 0 132.5 52.5t41.5 135.5t-41.5 135.5t-132.5 52.5q-92 0 -133 -52.5t-41 -135.5t41 -135.5
t133 -52.5z" />
    <glyph glyph-name="oacute" unicode="&#xf3;" horiz-adv-x="618" 
d="M228 569l110 129h108l-145 -129h-73zM309 -11q-126 0 -192.5 75t-66.5 186t66.5 186t192.5 75q128 0 193.5 -74.5t65.5 -186.5t-66 -186.5t-193 -74.5zM309 62q91 0 132.5 52.5t41.5 135.5t-41.5 135.5t-132.5 52.5q-92 0 -133 -52.5t-41 -135.5t41 -135.5t133 -52.5z
" />
    <glyph glyph-name="ocircumflex" unicode="&#xf4;" horiz-adv-x="618" 
d="M367 569l-53 77l-56 -77h-84l105 129h44q29 0 49 -27l79 -102h-84zM309 -11q-126 0 -192.5 75t-66.5 186t66.5 186t192.5 75q128 0 193.5 -74.5t65.5 -186.5t-66 -186.5t-193 -74.5zM309 62q91 0 132.5 52.5t41.5 135.5t-41.5 135.5t-132.5 52.5q-92 0 -133 -52.5
t-41 -135.5t41 -135.5t133 -52.5z" />
    <glyph glyph-name="otilde" unicode="&#xf5;" horiz-adv-x="618" 
d="M140 569q-14 14 -14 42q0 36 26 59.5t71 23.5q32 0 57.5 -17t46 -34t40.5 -17q23 0 34 24.5t11 49.5h51q9 -14 9 -36q0 -45 -28.5 -74t-71.5 -29q-34 0 -59.5 17.5t-44.5 34.5t-38 17q-22 0 -32 -19.5t-10 -41.5h-48zM309 -11q-126 0 -192.5 75t-66.5 186t66.5 186
t192.5 75q128 0 193.5 -74.5t65.5 -186.5t-66 -186.5t-193 -74.5zM309 62q91 0 132.5 52.5t41.5 135.5t-41.5 135.5t-132.5 52.5q-92 0 -133 -52.5t-41 -135.5t41 -135.5t133 -52.5z" />
    <glyph glyph-name="odieresis" unicode="&#xf6;" horiz-adv-x="618" 
d="M403 578q-23 0 -40 17t-17 41t17 41.5t40 17.5q24 0 41 -17.5t17 -41.5t-17 -41t-41 -17zM214 578q-24 0 -40.5 17t-16.5 41t16.5 41.5t40.5 17.5t41 -17.5t17 -41.5t-17 -41t-41 -17zM309 -11q-126 0 -192.5 75t-66.5 186t66.5 186t192.5 75q128 0 193.5 -74.5
t65.5 -186.5t-66 -186.5t-193 -74.5zM309 62q91 0 132.5 52.5t41.5 135.5t-41.5 135.5t-132.5 52.5q-92 0 -133 -52.5t-41 -135.5t41 -135.5t133 -52.5z" />
    <glyph glyph-name="divide" unicode="&#xf7;" horiz-adv-x="546" 
d="M273 410q-25 0 -43.5 18t-18.5 44t18.5 44t43.5 18q26 0 44.5 -18t18.5 -44t-18.5 -44t-44.5 -18zM78 272v74h390v-74h-390zM273 85q-26 0 -44 18t-18 43q0 26 18 44.5t44 18.5t44.5 -18.5t18.5 -44.5q0 -25 -18.5 -43t-44.5 -18z" />
    <glyph glyph-name="ugrave" unicode="&#xf9;" horiz-adv-x="632" 
d="M298 569l-121 129h68q38 0 60 -32l63 -97h-70zM488 0l-8 97q-27 -50 -79.5 -79t-108.5 -29q-108 0 -165 62.5t-57 174.5v274h84v-262q0 -91 41.5 -133.5t110.5 -42.5q66 0 116.5 43.5t50.5 130.5v264h84v-500h-69z" />
    <glyph glyph-name="uacute" unicode="&#xfa;" horiz-adv-x="632" 
d="M236 569l110 129h108l-145 -129h-73zM488 0l-8 97q-27 -50 -79.5 -79t-108.5 -29q-108 0 -165 62.5t-57 174.5v274h84v-262q0 -91 41.5 -133.5t110.5 -42.5q66 0 116.5 43.5t50.5 130.5v264h84v-500h-69z" />
    <glyph glyph-name="ucircumflex" unicode="&#xfb;" horiz-adv-x="632" 
d="M363 569l-53 77l-56 -77h-84l105 129h44q29 0 49 -27l79 -102h-84zM488 0l-8 97q-27 -50 -79.5 -79t-108.5 -29q-108 0 -165 62.5t-57 174.5v274h84v-262q0 -91 41.5 -133.5t110.5 -42.5q66 0 116.5 43.5t50.5 130.5v264h84v-500h-69z" />
    <glyph glyph-name="udieresis" unicode="&#xfc;" horiz-adv-x="632" 
d="M404 578q-23 0 -40 17t-17 41t17 41.5t40 17.5q24 0 41 -17.5t17 -41.5t-17 -41t-41 -17zM215 578q-24 0 -40.5 17t-16.5 41t16.5 41.5t40.5 17.5t41 -17.5t17 -41.5t-17 -41t-41 -17zM488 0l-8 97q-27 -50 -79.5 -79t-108.5 -29q-108 0 -165 62.5t-57 174.5v274h84v-262
q0 -91 41.5 -133.5t110.5 -42.5q66 0 116.5 43.5t50.5 130.5v264h84v-500h-69z" />
    <glyph glyph-name="ydieresis" unicode="&#xff;" horiz-adv-x="630" 
d="M406 578q-23 0 -40 17t-17 41t17 41.5t40 17.5q24 0 41 -17.5t17 -41.5t-17 -41t-41 -17zM217 578q-24 0 -40.5 17t-16.5 41t16.5 41.5t40.5 17.5t41 -17.5t17 -41.5t-17 -41t-41 -17zM297 -254q-109 0 -199 57l32 71q80 -54 166 -54q101 0 141 41t40 120v112
q-27 -48 -79 -76t-106 -28q-108 0 -165 62.5t-57 174.5v274h84v-262q0 -91 41.5 -133.5t110.5 -42.5q66 0 116.5 43.5t50.5 130.5v264h84v-518q0 -116 -60.5 -176t-199.5 -60z" />
    <glyph glyph-name="dotlessi" unicode="&#x131;" horiz-adv-x="247" 
d="M81 0v500h85v-500h-85z" />
    <glyph glyph-name="IJ" unicode="&#x132;" horiz-adv-x="874" 
d="M105 700h83v-700h-83v700zM712 700h83v-351q0 -175 -82 -268.5t-228 -93.5q-133 0 -223 77l38 66q78 -68 185 -68q105 0 166 72t61 212v354z" />
    <glyph glyph-name="ij" unicode="&#x133;" horiz-adv-x="492" 
d="M369 577q-25 0 -42.5 17.5t-17.5 42.5q0 24 17.5 41.5t42.5 17.5t42.5 -17.5t17.5 -41.5q0 -25 -17.5 -42.5t-42.5 -17.5zM123 577q-25 0 -42 17.5t-17 42.5q0 24 17 41.5t42 17.5t42.5 -17.5t17.5 -41.5q0 -25 -17.5 -42.5t-42.5 -17.5zM81 0v500h85v-500h-85zM242 -253
q-50 0 -79 12l13 66q17 -8 53 -8q50 0 74 27.5t24 88.5v567h84v-573q0 -94 -45.5 -137t-123.5 -43z" />
    <glyph glyph-name="Ldot" unicode="&#x13f;" horiz-adv-x="634" 
d="M95 0v700h83v-625h441v-75h-524zM468 330q-26 0 -43.5 17t-17.5 42t17.5 43t43.5 18q25 0 42.5 -17.5t17.5 -43.5q0 -25 -17 -42t-43 -17z" />
    <glyph glyph-name="ldot" unicode="&#x140;" horiz-adv-x="444" 
d="M199 -6q-122 0 -122 123v633h84v-630q0 -57 50 -57q31 0 42 8l12 -66q-21 -11 -66 -11zM349 230q-26 0 -43.5 17.5t-17.5 42.5q0 26 18 43.5t43 17.5t43 -17.5t18 -43.5q0 -25 -17.5 -42.5t-43.5 -17.5z" />
    <glyph glyph-name="OE" unicode="&#x152;" horiz-adv-x="1018" 
d="M482 0q-218 0 -327.5 99.5t-109.5 253.5q0 71 25.5 132.5t77 110t137.5 76.5t197 28h465v-75h-407v-225h359v-75h-359v-250h418v-75h-476zM457 76v548q-168 0 -248.5 -76.5t-80.5 -194.5q0 -122 80 -199.5t249 -77.5z" />
    <glyph glyph-name="oe" unicode="&#x153;" horiz-adv-x="1027" 
d="M309 -11q-126 0 -192.5 75t-66.5 186t66.5 186t192.5 75q148 0 217 -105q67 105 216 105q127 0 186 -66.5t59 -176.5v-37h-417q0 -8 2 -26q9 -65 58.5 -104t142.5 -39q96 0 177 31l24 -65q-99 -39 -205 -39q-172 0 -242 107q-69 -107 -218 -107zM571 295h332v2
q0 60 -39 100.5t-122 40.5q-80 0 -122.5 -39.5t-48.5 -103.5zM309 62q91 0 132.5 52.5t41.5 135.5t-41.5 135.5t-132.5 52.5q-92 0 -133 -52.5t-41 -135.5t41 -135.5t133 -52.5z" />
    <glyph glyph-name="Ydieresis" unicode="&#x178;" horiz-adv-x="765" 
d="M479 739q-23 0 -40 17t-17 41t17 41.5t40 17.5q24 0 41 -17.5t17 -41.5t-17 -41t-41 -17zM270 739q-24 0 -40.5 17t-16.5 41t16.5 41.5t40.5 17.5t41 -17.5t17 -41.5t-17 -41t-41 -17zM339 0v256l-349 444h53q44 0 66 -29l273 -345l299 374h94l-353 -444v-256h-83z" />
    <glyph glyph-name="uni0192" unicode="&#x192;" horiz-adv-x="700" 
d="M125 -247q-57 0 -116 25l21 65q45 -20 90 -20q44 0 68 25.5t30 82.5l48 450h-180l8 65h177l7 74q8 89 65.5 137t162.5 48q58 0 127 -27l-23 -68q-52 21 -108 21q-127 0 -139 -114l-8 -71h217l-8 -65h-215l-49 -463q-18 -165 -175 -165z" />
    <glyph glyph-name="gravecomb" unicode="&#x300;" horiz-adv-x="386" 
d="M203 569l-121 129h68q38 0 60 -32l63 -97h-70z" />
    <glyph glyph-name="acutecomb" unicode="&#x301;" horiz-adv-x="409" 
d="M113 569l110 129h108l-145 -129h-73z" />
    <glyph glyph-name="circumflexcomb" unicode="&#x302;" horiz-adv-x="545" 
d="M327 569l-53 77l-56 -77h-84l105 129h44q29 0 49 -27l79 -102h-84z" />
    <glyph glyph-name="tildecomb" unicode="&#x303;" horiz-adv-x="532" 
d="M109 569q-14 14 -14 42q0 36 26 59.5t71 23.5q32 0 57.5 -17t46 -34t40.5 -17q23 0 34 24.5t11 49.5h51q9 -14 9 -36q0 -45 -28.5 -74t-71.5 -29q-34 0 -59.5 17.5t-44.5 34.5t-38 17q-22 0 -32 -19.5t-10 -41.5h-48z" />
    <glyph glyph-name="dieresiscomb" unicode="&#x308;" horiz-adv-x="514" 
d="M343 578q-23 0 -40 17t-17 41t17 41.5t40 17.5q24 0 41 -17.5t17 -41.5t-17 -41t-41 -17zM154 578q-24 0 -40.5 17t-16.5 41t16.5 41.5t40.5 17.5t41 -17.5t17 -41.5t-17 -41t-41 -17z" />
    <glyph glyph-name="cedillacomb" unicode="&#x327;" horiz-adv-x="458" 
d="M228 -243q-39 0 -72 13t-47 26l-14 13l26 50q4 -5 12.5 -12.5t36 -20t56.5 -12.5q65 0 65 48q0 20 -15.5 32t-38.5 12q-17 0 -32 -6.5t-21 -13.5l-7 -6l-39 14l71 129l54 -14l-33 -61q18 4 32 4q40 0 69 -22t29 -66q0 -49 -36 -78t-96 -29z" />
    <glyph glyph-name="pi" unicode="&#x3c0;" horiz-adv-x="707" 
d="M588 5q-22 -11 -56 -11q-112 0 -112 103v327h-143v-424h-84v424h-103v76h527v-76h-113v-324q0 -37 40 -37q19 0 32 7z" />
    <glyph glyph-name="endash" unicode="&#x2013;" horiz-adv-x="699" 
d="M90 235v77h519v-77h-519z" />
    <glyph glyph-name="emdash" unicode="&#x2014;" horiz-adv-x="1147" 
d="M168 235v77h810v-77h-810z" />
    <glyph glyph-name="quoteleft" unicode="&#x2018;" horiz-adv-x="241" 
d="M128 474q-32 0 -48.5 21t-16.5 53q0 58 41 103.5t86 58.5l20 -27q-61 -38 -61 -98q0 -18 10 -33.5t24 -22.5q0 -22 -16 -38.5t-39 -16.5z" />
    <glyph glyph-name="quoteright" unicode="&#x2019;" horiz-adv-x="241" 
d="M51 469l-20 28q60 38 60 98q0 18 -9.5 33.5t-23.5 22.5q0 22 16 38t39 16q31 0 48 -21t17 -53q0 -58 -41 -103.5t-86 -58.5z" />
    <glyph glyph-name="quotesinglbase" unicode="&#x201a;" horiz-adv-x="259" 
d="M69 -165l-20 30q59 41 59 108q0 41 -32 61q0 24 15.5 42t38.5 18q31 0 47.5 -23t16.5 -58q0 -64 -40.5 -114t-84.5 -64z" />
    <glyph glyph-name="quotedblleft" unicode="&#x201c;" horiz-adv-x="431" 
d="M306 474q-31 0 -48 21t-17 53q0 58 41.5 103.5t86.5 58.5l19 -27q-60 -38 -60 -98q0 -18 9.5 -33.5t23.5 -22.5q0 -22 -16 -38.5t-39 -16.5zM140 474q-32 0 -49 21t-17 53q0 58 41 103.5t86 58.5l20 -27q-60 -38 -60 -98q0 -39 34 -56q0 -22 -16.5 -38.5t-38.5 -16.5z
" />
    <glyph glyph-name="quotedblright" unicode="&#x201d;" horiz-adv-x="431" 
d="M229 469l-20 28q61 38 61 98q0 18 -10 33.5t-24 22.5q0 22 16 38t39 16q32 0 48.5 -21t16.5 -53q0 -58 -41 -103.5t-86 -58.5zM63 469l-20 28q60 38 60 98q0 39 -34 56q0 22 16 38t40 16q31 0 48 -21t17 -53q0 -58 -41.5 -103t-85.5 -59z" />
    <glyph glyph-name="quotedblbase" unicode="&#x201e;" horiz-adv-x="451" 
d="M69 -165l-20 30q59 41 59 108q0 41 -32 61q0 24 15.5 42t38.5 18q31 0 47.5 -23t16.5 -58q0 -64 -40.5 -114t-84.5 -64zM261 -165l-20 30q59 41 59 108q0 41 -32 61q0 24 15.5 42t38.5 18q31 0 47.5 -23t16.5 -58q0 -64 -40.5 -114t-84.5 -64z" />
    <glyph glyph-name="dagger" unicode="&#x2020;" horiz-adv-x="476" 
d="M208 0l-22 427h-151v73h150l10 120l10 35h59l11 -35l9 -120h157v-73h-158l-20 -427h-55z" />
    <glyph glyph-name="daggerdbl" unicode="&#x2021;" horiz-adv-x="476" 
d="M208 0l-10 35l-8 120h-155v72h156v201h-156v72h155l8 120l8 35h55l11 -35l8 -120h161v-72h-162v-201h162v-72h-161l-7 -120l-11 -35h-54z" />
    <glyph glyph-name="bullet" unicode="&#x2022;" horiz-adv-x="447" 
d="M224 190q-43 0 -73.5 30t-30.5 73t30.5 73.5t73.5 30.5t73 -30.5t30 -73.5t-30 -73t-73 -30z" />
    <glyph glyph-name="ellipsis" unicode="&#x2026;" horiz-adv-x="694" 
d="M148 -11q-27 0 -45.5 19t-18.5 45q0 27 18.5 46t45.5 19q26 0 45 -19t19 -46q0 -26 -19 -45t-45 -19zM562 -11q-27 0 -45.5 19t-18.5 45q0 27 18.5 46t45.5 19q26 0 45 -19t19 -46q0 -26 -19 -45t-45 -19zM355 -11q-27 0 -45.5 19t-18.5 45q0 27 18.5 46t45.5 19
q26 0 45 -19t19 -46q0 -26 -19 -45t-45 -19z" />
    <glyph glyph-name="guilsinglleft" unicode="&#x2039;" horiz-adv-x="363" 
d="M216 32l-168 200v7l168 200h99l-170 -203l170 -204h-99z" />
    <glyph glyph-name="guilsinglright" unicode="&#x203a;" horiz-adv-x="363" 
d="M48 32l170 204l-170 203h99l168 -200v-7l-168 -200h-99z" />
    <glyph glyph-name="fraction" unicode="&#x2044;" horiz-adv-x="587" 
d="M8 0l487 700h85l-488 -700h-84z" />
    <glyph glyph-name="Euro" unicode="&#x20ac;" horiz-adv-x="710" 
d="M632 23q-22 -14 -63 -24t-81 -10q-148 0 -241.5 68.5t-123.5 183.5h-77l21 70h44q-1 11 -1 33q0 14 2 40h-66l21 70h56q31 115 123.5 183t241.5 68q125 0 207 -44l-25 -68q-78 35 -180 35q-223 0 -277 -174h389l-22 -70h-381q-2 -26 -2 -40q0 -22 1 -33h361l-21 -70h-326
q57 -175 286 -175q88 0 156 38z" />
    <glyph glyph-name="uni2116" unicode="&#x2116;" horiz-adv-x="1372" 
d="M1132 410q-92 0 -140.5 55.5t-48.5 137.5t48.5 137.5t140.5 55.5q94 0 142 -55t48 -138t-48 -138t-142 -55zM1132 468q63 0 92 37.5t29 97.5t-29 97.5t-92 37.5t-92 -37.5t-29 -97.5t29 -97.5t92 -37.5zM741 14l-562 577v-591h-84v700h68q17 0 28 -11l558 -574v585h84
v-700h-57q-22 0 -35 14zM987 273v68h286v-68h-286z" />
    <glyph glyph-name="uni2120" unicode="&#x2120;" horiz-adv-x="560" 
d="M361 541l-35 97l-31 -158h-48l46 232h44q9 0 12 -9l40 -115l46 124h41q11 0 14 -13l39 -219h-47l-29 159l-41 -111h-38q-9 0 -13 13zM123 479q-35 0 -68 14l8 44q32 -13 65 -13q46 0 46 25q0 21 -30 25l-29 4q-65 9 -65 63q0 29 24 50.5t70 21.5q32 0 65 -11l-9 -43
q-26 10 -58 10q-46 0 -46 -26q0 -20 27 -23l29 -4q70 -9 70 -62q0 -31 -24.5 -53t-74.5 -22z" />
    <glyph glyph-name="trademark" unicode="&#x2122;" horiz-adv-x="556" 
d="M113 480v187l-63 5v40h176v-40l-62 -5v-187h-51zM356 541l-34 98l-31 -159h-48l46 232h44q8 0 11 -9l40 -115l46 124h41q13 0 14 -13l39 -219h-47l-28 159l-41 -111h-39q-9 0 -13 13z" />
    <glyph glyph-name="uni2150" unicode="&#x2150;" horiz-adv-x="900" 
d="M145 0l487 700h85l-488 -700h-84zM697 -1h-75q14 95 63 178.5t112 145.5h-243v61h318l3 -47q-60 -59 -113 -149t-65 -189zM313 307h-288v61h113v250l-108 -40v65l106 40q24 10 50 10h19v-325h108v-61z" />
    <glyph glyph-name="uni2151" unicode="&#x2151;" horiz-adv-x="900" 
d="M183 0l487 700h85l-488 -700h-84zM359 307h-288v61h113v250l-108 -40v65l106 40q24 10 50 10h19v-325h108v-61zM677 181q51 0 84 27v16q0 44 -21.5 73t-67.5 29q-38 0 -60.5 -20t-22.5 -53q0 -31 22 -51.5t66 -20.5zM654 -8q-75 0 -111 30l15 55q36 -25 97 -25
q99 0 105 104q-39 -32 -98 -32q-69 0 -105.5 35.5t-36.5 91.5q0 59 42.5 97.5t110.5 38.5q74 0 115 -46t41 -126v-34q0 -189 -175 -189z" />
    <glyph glyph-name="onethird" unicode="&#x2153;" horiz-adv-x="900" 
d="M171 0l487 700h85l-488 -700h-84zM339 307h-288v61h113v250l-108 -40v65l106 40q24 10 50 10h19v-325h108v-61zM681 -8q-71 0 -123 22l20 57q43 -18 100 -18q102 0 102 60q0 57 -92 57h-54v56h53q39 0 59.5 15t20.5 38q0 50 -88 50q-52 0 -102 -19l-16 54q53 23 125 23
q75 0 112.5 -27t37.5 -70q0 -30 -18 -54t-46 -35q33 -6 55 -31t22 -57q0 -54 -41.5 -87.5t-126.5 -33.5z" />
    <glyph glyph-name="twothirds" unicode="&#x2154;" horiz-adv-x="900" 
d="M172 0l487 700h85l-488 -700h-84zM65 307v60q0 42 26 69.5t73 49.5l49 21q35 16 51.5 31.5t16.5 38.5q0 26 -24 43t-67 17q-57 0 -107 -26l-17 54q60 30 130 30q73 0 114 -31t41 -79q0 -42 -27.5 -70.5t-75.5 -50.5l-49 -21q-59 -28 -59 -65v-9h212v-62h-287zM667 -8
q-71 0 -123 22l20 57q43 -18 100 -18q102 0 102 60q0 57 -92 57h-54v56h53q39 0 59.5 15t20.5 38q0 50 -88 50q-52 0 -102 -19l-16 54q53 23 125 23q75 0 112.5 -27t37.5 -70q0 -30 -18 -54t-46 -35q33 -6 55 -31t22 -57q0 -54 -41.5 -87.5t-126.5 -33.5z" />
    <glyph glyph-name="oneeighth" unicode="&#x215b;" horiz-adv-x="900" 
d="M184 0l487 700h85l-488 -700h-84zM667 -8q-69 0 -110.5 30t-41.5 81q0 32 19.5 56.5t56.5 36.5q-61 28 -61 86q0 45 39 75t101 30q61 0 100 -28.5t39 -71.5q0 -57 -60 -79q75 -31 75 -101q0 -53 -42.5 -84t-114.5 -31zM364 307h-288v61h113v250l-108 -40v65l106 40
q24 10 50 10h19v-325h108v-61zM665 228l25 -5q51 16 51 56q0 25 -19.5 39.5t-51.5 14.5t-52 -14.5t-20 -38.5q0 -40 67 -52zM667 48q42 0 66.5 16.5t24.5 43.5q0 46 -72 62l-36 7q-33 -7 -51 -25t-18 -41q0 -28 24 -45.5t62 -17.5z" />
    <glyph glyph-name="arrowleft" unicode="&#x2190;" horiz-adv-x="774" 
d="M415 206l-187 3l187 -187h-68q-28 0 -47 19l-200 201v2l200 200q19 19 47 19h68l-188 -187l188 3h279v-73h-279z" />
    <glyph glyph-name="arrowup" unicode="&#x2191;" horiz-adv-x="635" 
d="M354 219v-219h-73v219l3 185l-187 -180v63q0 31 19 47l201 193h2l200 -193q19 -18 19 -47v-63l-187 180z" />
    <glyph glyph-name="arrowright" unicode="&#x2192;" horiz-adv-x="774" 
d="M427 22h-68l187 187l-187 -3h-279v73h279l188 -3l-188 187h68q28 0 47 -19l200 -200v-2l-200 -201q-19 -19 -47 -19z" />
    <glyph glyph-name="arrowdown" unicode="&#x2193;" horiz-adv-x="635" 
d="M319 -11h-2l-201 194q-19 16 -19 47v62l187 -179l-3 185v202h73v-202l-3 -185l187 179v-62q0 -29 -19 -47z" />
    <glyph glyph-name="arrowboth" unicode="&#x2194;" horiz-adv-x="1129" 
d="M347 22q-28 0 -47 19l-200 201v2l200 200q19 19 47 19h68l-189 -187l189 3h299l188 -3l-188 187h67q28 0 47 -19l201 -200v-2l-201 -201q-19 -19 -47 -19h-67l187 187l-187 -3h-299l-188 3l188 -187h-68z" />
    <glyph glyph-name="arrowupdn" unicode="&#x2195;" horiz-adv-x="635" 
d="M316 -11l-200 135q-19 13 -19 46v43l187 -125l-3 134v73l3 133l-187 -124v42q0 35 19 47l201 134h2l200 -134q19 -11 19 -47v-42l-187 125l3 -134v-73l-3 -134l187 125v-42q0 -35 -19 -47l-201 -135h-2z" />
    <glyph glyph-name="arrowupleft" unicode="&#x2196;" horiz-adv-x="660" 
d="M600 56l-53 -56l-378 380v-300l-52 45q-20 17 -20 45v329l1 1h332q30 0 45 -21l42 -47h-302z" />
    <glyph glyph-name="arrowupright" unicode="&#x2197;" horiz-adv-x="660" 
d="M491 80v300l-378 -380l-53 56l385 376h-303l43 47q15 21 45 21h332l1 -1v-329q0 -28 -21 -45z" />
    <glyph glyph-name="arrowdownright" unicode="&#x2198;" horiz-adv-x="660" 
d="M562 0h-332q-29 0 -46 21l-42 47h303l-385 376l53 56l378 -380v301l51 -45q21 -17 21 -46v-329z" />
    <glyph glyph-name="arrowdownleft" unicode="&#x2199;" horiz-adv-x="660" 
d="M430 0h-332l-1 1v329q0 29 20 46l52 45v-301l378 380l53 -56l-385 -376h303l-42 -47q-17 -21 -46 -21z" />
    <glyph glyph-name="minus" unicode="&#x2212;" horiz-adv-x="546" 
d="M78 271v77h390v-77h-390z" />
    <glyph glyph-name="infinity" unicode="&#x221e;" horiz-adv-x="778" 
d="M576 152q45 0 75 30.5t30 72.5q0 43 -30 74.5t-75 31.5q-48 0 -104 -56l-41 -50l43 -47q56 -56 102 -56zM202 149q52 0 106 59l44 47l-48 50q-55 53 -102 53q-46 0 -74.5 -30t-28.5 -73t28.5 -74.5t74.5 -31.5zM341 168q-71 -71 -144 -71q-78 0 -119.5 45.5t-41.5 112.5
q0 65 41.5 109t119.5 44q75 0 140 -65l52 -52l48 52q63 68 145 68q75 0 117 -45.5t42 -110.5q0 -67 -42 -111t-117 -44q-76 0 -142 68l-50 50z" />
    <glyph glyph-name="notequal" unicode="&#x2260;" horiz-adv-x="546" 
d="M468 188h-181l-24 -112h-75l24 112h-134v72h149l21 100h-170v72h185l23 110h75l-23 -110h130v-72h-145l-21 -100h166v-72z" />
    <glyph glyph-name="lessequal" unicode="&#x2264;" horiz-adv-x="597" 
d="M517 171l-437 165v77l437 164v-77l-343 -124l343 -125v-80zM517 44l-437 165v76l437 -163v-78z" />
    <glyph glyph-name="greaterequal" unicode="&#x2265;" horiz-adv-x="597" 
d="M80 171v80l343 125l-343 124v77l437 -164v-77zM80 44v78l437 163v-76z" />
    <glyph glyph-name="uni22A0" unicode="&#x22a0;" horiz-adv-x="817" 
d="M62 0v700h693v-700h-693zM142 74h533v551h-533v-551zM508 199l-104 104l-105 -105l-47 49l104 104l-104 104l47 49l105 -105l104 104l48 -48l-104 -104l104 -104z" />
    <glyph glyph-name="house" unicode="&#x2302;" horiz-adv-x="828" 
d="M98 0v309l315 333l316 -333v-309h-631z" />
    <glyph glyph-name="uni2460" unicode="&#x2460;" horiz-adv-x="829" 
d="M414 -11q-148 0 -252 104.5t-104 252.5q0 149 104 254t252 105t252 -105t104 -254q0 -148 -104 -252.5t-252 -104.5zM291 178h256v67h-92v317h-20q-25 0 -52 -12l-87 -40v-70l86 36v-231h-91v-67z" />
    <glyph glyph-name="uni2461" unicode="&#x2461;" horiz-adv-x="829" 
d="M414 -11q-148 0 -252 104.5t-104 252.5q0 149 104 254t252 105t252 -105t104 -254q0 -148 -104 -252.5t-252 -104.5zM292 173h252v67h-169v12q0 23 47 53l35 20q86 55 86 124q0 48 -37.5 78.5t-103.5 30.5q-56 0 -110 -26l19 -59q42 21 84 21q34 0 52.5 -15t18.5 -39
q0 -37 -51 -70l-36 -21q-30 -19 -43.5 -29t-28.5 -33t-15 -49v-65z" />
    <glyph glyph-name="uni2462" unicode="&#x2462;" horiz-adv-x="829" 
d="M414 -11q-148 0 -252 104.5t-104 252.5q0 149 104 254t252 105t252 -105t104 -254q0 -148 -104 -252.5t-252 -104.5zM480 362v2l3 -1q-1 0 -3 -1zM406 156q72 0 107.5 33t35.5 87q0 32 -19 56t-47 31q24 12 39 36.5t15 51.5q0 43 -32 69.5t-97 26.5q-57 0 -103 -19
l16 -59q50 16 78 16q62 0 62 -47q0 -21 -16 -34.5t-44 -13.5h-41v-61h42q72 0 72 -52q0 -54 -72 -54q-45 0 -78 15l-22 -63q43 -19 104 -19z" />
    <glyph glyph-name="uni2463" unicode="&#x2463;" horiz-adv-x="829" 
d="M414 -11q-148 0 -252 104.5t-104 252.5q0 149 104 254t252 105t252 -105t104 -254q0 -148 -104 -252.5t-252 -104.5zM422 168h70v87h45v63h-45v231h-86l-153 -236v-58h169v-87zM325 318l94 149v-149h-94z" />
    <glyph glyph-name="uni2464" unicode="&#x2464;" horiz-adv-x="829" 
d="M414 -11q-148 0 -252 104.5t-104 252.5q0 149 104 254t252 105t252 -105t104 -254q0 -148 -104 -252.5t-252 -104.5zM382 148q77 0 121 38.5t44 105.5q0 57 -34.5 87t-85.5 30q-25 0 -49 -7v67h154v67h-224v-188l38 -12q21 13 56 13q33 0 53 -17t20 -44q0 -35 -25 -54
t-66 -19q-37 0 -73 15l-23 -63q33 -19 94 -19z" />
    <glyph glyph-name="uni2465" unicode="&#x2465;" horiz-adv-x="829" 
d="M414 -11q-148 0 -252 104.5t-104 252.5q0 149 104 254t252 105t252 -105t104 -254q0 -148 -104 -252.5t-252 -104.5zM415 153q59 0 96.5 40.5t37.5 99.5q0 48 -31.5 83t-86.5 35q-54 0 -89 -42q7 108 95 110q42 0 72 -16l14 63q-33 19 -85 19q-70 0 -121 -47t-51 -148
v-14q0 -83 41 -133t108 -50zM412 220q-32 0 -51.5 26t-19.5 59v6q11 17 30.5 28.5t40.5 11.5q30 0 45.5 -19.5t15.5 -45.5q0 -28 -17 -47t-44 -19z" />
    <glyph glyph-name="uni2466" unicode="&#x2466;" horiz-adv-x="829" 
d="M414 -11q-148 0 -252 104.5t-104 252.5q0 149 104 254t252 105t252 -105t104 -254q0 -148 -104 -252.5t-252 -104.5zM336 145h82q10 97 48 185t83 147l-2 49h-259v-67h184q-115 -142 -136 -314z" />
    <glyph glyph-name="uni2467" unicode="&#x2467;" horiz-adv-x="829" 
d="M414 -11q-148 0 -252 104.5t-104 252.5q0 149 104 254t252 105t252 -105t104 -254q0 -148 -104 -252.5t-252 -104.5zM413 154q63 0 101.5 31.5t38.5 83.5q0 70 -67 99q53 22 53 78q0 43 -34.5 71.5t-90.5 28.5q-55 0 -89.5 -29t-34.5 -74q0 -57 56 -87q-70 -24 -70 -91
q0 -51 37.5 -81t99.5 -30zM429 385l-12 3q-54 9 -54 50q0 23 14.5 36.5t36.5 13.5q23 0 37 -14t14 -36q0 -36 -36 -53zM414 215q-29 0 -48 16.5t-19 41.5q0 21 15 38t42 24l20 -5q58 -14 58 -56q0 -26 -19 -42.5t-49 -16.5z" />
    <glyph glyph-name="uni2468" unicode="&#x2468;" horiz-adv-x="829" 
d="M414 -11q-148 0 -252 104.5t-104 252.5q0 149 104 254t252 105t252 -105t104 -254q0 -148 -104 -252.5t-252 -104.5zM421 344q-33 0 -51.5 19.5t-18.5 47.5t17.5 46.5t46.5 18.5q35 0 52.5 -26t17.5 -66v-17q-27 -23 -64 -23zM398 152q161 0 161 189v32q0 79 -38 124.5
t-105 45.5q-62 0 -101 -37.5t-39 -95.5q0 -54 33.5 -89.5t94.5 -35.5q46 0 80 27v-4q0 -91 -84 -91q-56 0 -85 24l-15 -62q33 -27 98 -27z" />
    <glyph glyph-name="uni24C5" unicode="&#x24c5;" horiz-adv-x="904" 
d="M452 -25q-167 0 -280.5 113t-113.5 279q0 165 114 278t280 113t280 -113t114 -278q0 -166 -114 -279t-280 -113zM452 42q135 0 227 93.5t92 231.5q0 137 -92 230.5t-227 93.5q-136 0 -227.5 -93.5t-91.5 -230.5q0 -138 91.5 -231.5t227.5 -93.5zM451 352q68 0 94.5 29.5
t26.5 70.5q0 71 -89 71h-96v-163q32 -8 64 -8zM450 292q-30 0 -63 7v-146h-70v431h160q87 0 126.5 -37.5t39.5 -94.5q0 -69 -48 -114.5t-145 -45.5z" />
    <glyph glyph-name="uni24EA" unicode="&#x24ea;" horiz-adv-x="829" 
d="M414 -11q-148 0 -252 104.5t-104 252.5q0 149 104 254t252 105t252 -105t104 -254q0 -148 -104 -252.5t-252 -104.5zM415 153q72 0 109 56.5t37 141.5q0 82 -37 137t-109 55q-71 0 -107.5 -55t-36.5 -137q0 -85 36.5 -141.5t107.5 -56.5zM415 220q-33 0 -51 35t-18 96
q0 59 18 92t51 33q34 0 52.5 -33t18.5 -92q0 -61 -18.5 -96t-52.5 -35z" />
    <glyph glyph-name="uni25A0" unicode="&#x25a0;" horiz-adv-x="817" 
d="M62 0v700h693v-700h-693z" />
    <glyph glyph-name="uni25A1" unicode="&#x25a1;" horiz-adv-x="817" 
d="M62 0v700h693v-700h-693zM142 74h533v551h-533v-551z" />
    <glyph glyph-name="uni25AA" unicode="&#x25aa;" horiz-adv-x="619" 
d="M62 0v500h495v-500h-495z" />
    <glyph glyph-name="uni25AB" unicode="&#x25ab;" horiz-adv-x="619" 
d="M62 0v500h495v-500h-495zM138 71h343v358h-343v-358z" />
    <glyph glyph-name="triagup" unicode="&#x25b2;" horiz-adv-x="650" 
d="M80 0l240 510h10l240 -510h-490z" />
    <glyph glyph-name="triagrt" unicode="&#x25ba;" horiz-adv-x="635" 
d="M117 -10v520h8l413 -250v-10l-413 -260h-8z" />
    <glyph glyph-name="triagdn" unicode="&#x25bc;" horiz-adv-x="650" 
d="M320 -11l-240 511h490l-240 -511h-10z" />
    <glyph glyph-name="triaglf" unicode="&#x25c4;" horiz-adv-x="635" 
d="M510 -10l-413 260v10l413 250h8v-520h-8z" />
    <glyph glyph-name="uni25CB" unicode="&#x25cb;" horiz-adv-x="829" 
d="M414 -11q-148 0 -252 104.5t-104 252.5q0 149 104 254t252 105t252 -105t104 -254q0 -148 -104 -252.5t-252 -104.5zM414 64q114 0 192.5 82.5t78.5 199.5q0 119 -78.5 202t-192.5 83t-193 -83t-79 -202q0 -117 79 -199.5t193 -82.5z" />
    <glyph glyph-name="uni25CF" unicode="&#x25cf;" horiz-adv-x="829" 
d="M414 -11q-148 0 -252 104.5t-104 252.5q0 149 104 254t252 105t252 -105t104 -254q0 -148 -104 -252.5t-252 -104.5z" />
    <glyph glyph-name="uni2605" unicode="&#x2605;" horiz-adv-x="882" 
d="M646 -6l-205 152l-205 -152l-19 13l85 237l-212 142l7 22l258 -8l74 241h24l74 -241l258 8l7 -22l-212 -142l85 -237z" />
    <glyph glyph-name="uni2612" unicode="&#x2612;" horiz-adv-x="619" 
d="M62 0v500h495v-500h-495zM138 71h343v358h-343v-358zM410 104l-100 100l-102 -101l-44 45l101 101l-101 100l44 46l102 -101l100 100l45 -45l-101 -100l101 -101z" />
    <glyph glyph-name="uni263D" unicode="&#x263d;" horiz-adv-x="752" 
d="M450 -15q-170 0 -263 85.5t-93 242.5q0 145 95 236t261 91q54 0 110 -17t95 -46l13 -9l-13 -23l-14 4q-39 12 -69 12q-90 0 -152 -66.5t-62 -174.5t63 -181.5t152 -73.5q37 0 67 11l15 5l13 -24l-13 -9q-39 -29 -95 -46t-110 -17z" />
    <glyph glyph-name="spade" unicode="&#x2660;" horiz-adv-x="796" 
d="M294 0v21q78 94 90 248h-4q-23 -58 -63.5 -96.5t-96.5 -38.5q-59 0 -99.5 42.5t-40.5 104.5q0 32 12 60.5t38 56t48 46t60 47.5l12 9q36 28 58.5 48t47.5 50.5t37 60.5h10q18 -44 52.5 -80t89.5 -80q91 -71 117 -99q54 -59 54 -119q0 -62 -40.5 -104.5t-99.5 -42.5
q-56 0 -96.5 38.5t-63.5 96.5h-4q12 -151 92 -248v-21h-210z" />
    <glyph glyph-name="club" unicode="&#x2663;" horiz-adv-x="792" 
d="M291 0v22q78 99 89 238h-6q-52 -130 -154 -130q-59 0 -99.5 41t-40.5 101q0 63 38.5 104.5t99.5 41.5q33 0 67 -19l1 2q-30 48 -30 95q0 61 40.5 103.5t99.5 42.5t99.5 -42.5t40.5 -103.5q0 -47 -30 -95l1 -2q34 19 67 19q61 0 99.5 -41.5t38.5 -104.5q0 -60 -40.5 -101
t-99.5 -41q-102 0 -154 130h-6q11 -138 90 -238v-22h-211z" />
    <glyph glyph-name="heart" unicode="&#x2665;" horiz-adv-x="860" 
d="M429 -10q-344 256 -344 464q0 70 45 115t121 45q74 0 114 -33t62 -89h6q22 56 62 89t114 33q76 0 121 -45t45 -115q0 -210 -344 -464h-2z" />
    <glyph glyph-name="diamond" unicode="&#x2666;" horiz-adv-x="738" 
d="M356 -7l-3 5q-49 82 -121 163t-152 146v28q168 135 273 308l3 5h26l3 -5q105 -173 273 -308v-28q-80 -65 -152 -146t-121 -163l-3 -5h-26z" />
    <glyph glyph-name="uni2672" unicode="&#x2672;" horiz-adv-x="875" 
d="M615 432l-138 25l33 19l-58 100q-11 19 -29 30.5t-31 13.5l-13 2h155q19 0 29 -1.5t22.5 -10t21.5 -25.5l23 -39l34 19zM336 408l-120 69l54 95q9 15 27 25q37 19 77.5 8t54.5 -36zM675 190l-93 161l119 69l55 -94q8 -14 8 -35q1 -38 -30 -69.5t-59 -31.5zM203 96
l-76 134q-9 17 -12.5 26t-2.5 24.5t11 32.5l23 39l-34 19l139 25l48 -133l-33 19q-56 -96 -58 -100q-11 -18 -11.5 -39.5t3.5 -34.5l5 -12h-2zM555 -8l-91 109l91 108v-39h116q21 0 40 10t27 20l9 11v-1l-76 -134q-12 -18 -17 -24t-19.5 -13.5t-34.5 -7.5h-45v-39zM305 31
q-19 0 -35 11q-34 20 -46 63.5t3 64.5h186v-139h-108z" />
    <glyph glyph-name="uni26AA" unicode="&#x26aa;" horiz-adv-x="621" 
d="M310 -11q-108 0 -184 76.5t-76 184.5q0 109 75.5 185t184.5 76t185 -76t76 -185q0 -108 -76 -184.5t-185 -76.5zM310 59q78 0 133 56t55 135q0 80 -54.5 136t-133.5 56q-77 0 -131.5 -56t-54.5 -136q0 -79 54.5 -135t131.5 -56z" />
    <glyph glyph-name="uni26AB" unicode="&#x26ab;" horiz-adv-x="621" 
d="M310 -11q-108 0 -184 76.5t-76 184.5q0 109 75.5 185t184.5 76t185 -76t76 -185q0 -108 -76 -184.5t-185 -76.5z" />
    <glyph glyph-name="uni29EB" unicode="&#x29eb;" horiz-adv-x="561" 
d="M274 -12l-209 323l210 325h12l209 -327l-209 -321h-13z" />
    <glyph glyph-name="onefifth" horiz-adv-x="900" 
d="M165 0l487 700h85l-488 -700h-84zM345 307h-288v61h113v250l-108 -40v65l106 40q24 10 50 10h19v-325h108v-61zM660 -8q-75 0 -119 23l22 58q40 -20 99 -20q52 0 83.5 20t31.5 59q0 32 -26 50.5t-69 18.5q-49 0 -88 -21l-35 11v193h264v-61h-198v-78q33 12 77 12
q59 0 100 -31.5t41 -89.5q0 -68 -49 -106t-134 -38z" />
    <glyph glyph-name="onesixth" horiz-adv-x="900" 
d="M186 0l487 700h85l-488 -700h-84zM367 307h-288v61h113v250l-108 -40v65l106 40q24 10 50 10h19v-325h108v-61zM821 133q0 -61 -41 -101t-109 -40q-75 0 -118 49t-43 132v16q0 102 54.5 150t131.5 48q60 0 100 -24l-13 -58q-40 21 -88 21q-108 -2 -116 -121q41 48 111 48
q63 0 97 -34.5t34 -85.5zM669 53q40 0 62 21t22 53q0 29 -20.5 49t-59.5 20q-31 0 -57 -13.5t-38 -34.5q2 -38 24.5 -66.5t66.5 -28.5z" />
    <glyph glyph-name="twofifths" horiz-adv-x="900" 
d="M171 0l487 700h85l-488 -700h-84zM54 307v60q0 42 26 69.5t73 49.5l49 21q35 16 51.5 31.5t16.5 38.5q0 26 -24 43t-67 17q-57 0 -107 -26l-17 54q60 30 130 30q73 0 114 -31t41 -79q0 -42 -27.5 -70.5t-75.5 -50.5l-49 -21q-59 -28 -59 -65v-9h212v-62h-287zM663 -8
q-75 0 -119 23l22 58q40 -20 99 -20q52 0 83.5 20t31.5 59q0 32 -26 50.5t-69 18.5q-49 0 -88 -21l-35 11v193h264v-61h-198v-78q33 12 77 12q59 0 100 -31.5t41 -89.5q0 -68 -49 -106t-134 -38z" />
    <glyph glyph-name="threefifths" horiz-adv-x="900" 
d="M151 0l487 700h85l-488 -700h-84zM202 300q-71 0 -123 22l20 57q43 -18 100 -18q102 0 102 60q0 57 -92 57h-54v56h53q39 0 59.5 15t20.5 38q0 50 -88 50q-52 0 -102 -19l-16 54q53 23 125 23q75 0 112.5 -27t37.5 -70q0 -30 -18 -54t-46 -35q33 -6 55 -31t22 -57
q0 -54 -41.5 -87.5t-126.5 -33.5zM638 -8q-75 0 -119 23l22 58q40 -20 99 -20q52 0 83.5 20t31.5 59q0 32 -26 50.5t-69 18.5q-49 0 -88 -21l-35 11v193h264v-61h-198v-78q33 12 77 12q59 0 100 -31.5t41 -89.5q0 -68 -49 -106t-134 -38z" />
    <glyph glyph-name="fourfifths" horiz-adv-x="900" 
d="M173 0l487 700h85l-488 -700h-84zM275 455v172l-144 -172h144zM386 398h-46v-91h-65v91h-219v54l205 240h79v-237h46v-57zM661 -8q-75 0 -119 23l22 58q40 -20 99 -20q52 0 83.5 20t31.5 59q0 32 -26 50.5t-69 18.5q-49 0 -88 -21l-35 11v193h264v-61h-198v-78
q33 12 77 12q59 0 100 -31.5t41 -89.5q0 -68 -49 -106t-134 -38z" />
    <glyph glyph-name="zero.sups" 
d="M197 406q-80 0 -122.5 57t-42.5 142q0 82 42.5 138t122.5 56q82 0 124.5 -55.5t42.5 -138.5q0 -85 -42.5 -142t-124.5 -57zM198 467q46 0 72 38t26 100q0 60 -26 96.5t-73 36.5q-46 0 -71.5 -36.5t-25.5 -96.5q0 -62 25.5 -100t72.5 -38z" />
    <glyph glyph-name="one.sups" 
d="M342 413h-288v61h113v250l-108 -40v65l106 40q24 10 50 10h19v-325h108v-61z" />
    <glyph glyph-name="two.sups" 
d="M55 413v60q0 42 26 69.5t73 49.5l49 21q35 16 51.5 31.5t16.5 38.5q0 26 -24 43t-67 17q-57 0 -107 -26l-17 54q60 30 130 30q73 0 114 -31t41 -79q0 -42 -27.5 -70.5t-75.5 -50.5l-49 -21q-59 -28 -59 -65v-9h212v-62h-287z" />
    <glyph glyph-name="three.sups" 
d="M174 406q-71 0 -123 22l20 57q43 -18 100 -18q102 0 102 60q0 57 -92 57h-54v56h53q39 0 59.5 15t20.5 38q0 50 -88 50q-52 0 -102 -19l-16 54q53 23 125 23q75 0 112.5 -27t37.5 -70q0 -30 -18 -54t-46 -35q33 -6 55 -31t22 -57q0 -54 -41.5 -87.5t-126.5 -33.5z" />
    <glyph glyph-name="four.sups" 
d="M251 561v172l-144 -172h144zM362 504h-46v-91h-65v91h-219v54l205 240h79v-237h46v-57z" />
    <glyph glyph-name="five.sups" 
d="M166 406q-75 0 -119 23l22 58q40 -20 99 -20q52 0 83.5 20t31.5 59q0 32 -26 50.5t-69 18.5q-49 0 -88 -21l-35 11v193h264v-61h-198v-78q33 12 77 12q59 0 100 -31.5t41 -89.5q0 -68 -49 -106t-134 -38z" />
    <glyph glyph-name="six.sups" 
d="M357 547q0 -61 -41 -101t-109 -40q-75 0 -118 49t-43 132v16q0 102 54.5 150t131.5 48q60 0 100 -24l-13 -58q-40 21 -88 21q-108 -2 -116 -121q41 48 111 48q63 0 97 -34.5t34 -85.5zM205 467q40 0 62 21t22 53q0 29 -20.5 49t-59.5 20q-31 0 -57 -13.5t-38 -34.5
q2 -38 24.5 -66.5t66.5 -28.5z" />
    <glyph glyph-name="seven.sups" 
d="M183 413h-75q14 95 63 178.5t112 145.5h-243v61h318l3 -47q-60 -59 -113 -149t-65 -189z" />
    <glyph glyph-name="eight.sups" 
d="M197 406q-69 0 -110.5 30t-41.5 81q0 32 19.5 56.5t56.5 36.5q-61 28 -61 86q0 45 39 75t101 30q61 0 100 -28.5t39 -71.5q0 -57 -60 -79q75 -31 75 -101q0 -53 -42.5 -84t-114.5 -31zM195 642l25 -5q51 16 51 56q0 25 -19.5 39.5t-51.5 14.5t-52 -14.5t-20 -38.5
q0 -40 67 -52zM197 462q42 0 66.5 16.5t24.5 43.5q0 46 -72 62l-36 7q-33 -7 -51 -25t-18 -41q0 -28 24 -45.5t62 -17.5z" />
    <glyph glyph-name="nine.sups" 
d="M197 595q51 0 84 27v16q0 44 -21.5 73t-67.5 29q-38 0 -60.5 -20t-22.5 -53q0 -31 22 -51.5t66 -20.5zM174 406q-75 0 -111 30l15 55q36 -25 97 -25q99 0 105 104q-39 -32 -98 -32q-69 0 -105.5 35.5t-36.5 91.5q0 59 42.5 97.5t110.5 38.5q74 0 115 -46t41 -126v-34
q0 -189 -175 -189z" />
    <glyph glyph-name="a.sups" horiz-adv-x="458" 
d="M215 464q33 0 66 11.5t49 30.5q-5 44 -37 70t-83 26q-43 0 -67.5 -18.5t-24.5 -51.5q0 -31 25.5 -49.5t71.5 -18.5zM341 418l-6 44q-12 -20 -49.5 -36t-85.5 -16q-68 0 -109.5 33t-41.5 86q0 57 42.5 90.5t108.5 33.5q91 0 129 -64v47q0 48 -26 74.5t-91 26.5
q-64 0 -119 -25l-16 57q61 27 139 27q179 0 179 -150v-228h-54z" />
    <glyph glyph-name="b.sups" horiz-adv-x="488" 
d="M225 410q-89 0 -157 39v524h65v-248q18 33 55.5 52t79.5 19q83 0 127 -50.5t44 -132.5q0 -94 -55 -148.5t-159 -54.5zM233 468q71 0 104.5 40.5t33.5 102.5q0 55 -26.5 90.5t-86.5 35.5q-50 0 -86 -31t-36 -94v-124q33 -20 97 -20z" />
    <glyph glyph-name="c.sups" horiz-adv-x="415" 
d="M259 410q-100 0 -154.5 54.5t-54.5 138.5t54.5 138.5t154.5 54.5q74 0 123 -24l-20 -54q-44 19 -102 19q-70 0 -106 -37t-36 -97t36 -97t106 -37q56 0 104 20l19 -55q-51 -24 -124 -24z" />
    <glyph glyph-name="d.sups" horiz-adv-x="488" 
d="M243 468q44 0 77 23.5t33 69.5v139q-11 15 -40.5 26t-65.5 11q-62 0 -96 -38.5t-34 -97.5q0 -56 31.5 -94.5t94.5 -38.5zM357 464q-16 -25 -51 -39.5t-75 -14.5q-84 0 -132.5 52.5t-48.5 138.5t52.5 140.5t138.5 54.5q73 0 115 -39v216h65v-555h-58z" />
    <glyph glyph-name="e.sups" horiz-adv-x="461" 
d="M351 638q0 42 -27 71t-85 29q-102 0 -118 -100h230zM410 439q-71 -29 -150 -29q-105 0 -157.5 54.5t-52.5 138.5q0 82 48.5 137.5t140.5 55.5q94 0 137 -49.5t43 -131.5v-27h-301q9 -120 145 -120q70 0 128 23z" />
    <glyph glyph-name="f.sups" horiz-adv-x="345" 
d="M99 418v314l-71 12v44h71v66q0 127 157 127q44 0 77 -12l-10 -56q-32 9 -63 9q-92 0 -92 -72v-62h144v-48l-144 -9v-313h-69z" />
    <glyph glyph-name="g.sups" horiz-adv-x="454" 
d="M208 226q-78 -1 -127.5 28t-49.5 83q0 41 32 69.5t85 41.5q-17 14 -17 35q0 38 47 55q-63 6 -100 39.5t-37 82.5q0 57 49 96.5t127 39.5q47 0 85 -16l120 25l11 -50l-33 -7l-46 -3q33 -36 33 -79q0 -97 -139 -136l-23 -6q-25 -7 -25 -23t26 -22l54 -11q71 -16 104.5 -41
t33.5 -71q0 -61 -62 -95.5t-148 -34.5zM221 580q43 0 72 22.5t29 60.5q0 30 -27.5 54t-77.5 24q-51 0 -81.5 -22.5t-30.5 -60.5q0 -33 31 -55.5t85 -22.5zM212 281q55 0 96 18.5t41 52.5q0 45 -91 62l-53 10l-4 1q-46 -6 -76 -26t-30 -49q0 -34 33 -51.5t84 -17.5z" />
    <glyph glyph-name="h.sups" horiz-adv-x="497" 
d="M136 616v-198h-68v555h65v-250q21 33 59 53t78 20q80 0 122 -45.5t42 -125.5v-207h-68v197q0 64 -30 93.5t-81 29.5q-48 0 -83.5 -30.5t-35.5 -91.5z" />
    <glyph glyph-name="i.sups" horiz-adv-x="212" 
d="M106 844q-20 0 -33 13t-13 33t13 33t33 13t33.5 -13.5t13.5 -32.5t-13.5 -32.5t-33.5 -13.5zM72 418v370h69v-370h-69z" />
    <glyph glyph-name="j.sups" horiz-adv-x="210" 
d="M105 844q-20 0 -33.5 13.5t-13.5 32.5t13.5 32.5t33.5 13.5q19 0 32.5 -13.5t13.5 -32.5t-13.5 -32.5t-32.5 -13.5zM12 231q-38 0 -59 9l10 53q13 -6 38 -6q36 0 53 19.5t17 63.5v418h68v-423q0 -134 -127 -134z" />
    <glyph glyph-name="k.sups" horiz-adv-x="453" 
d="M133 438q-14 -20 -41 -20h-25v555h67v-450l200 265h75l-134 -170l153 -200h-75l-118 150z" />
    <glyph glyph-name="l.sups" horiz-adv-x="236" 
d="M163 413q-94 0 -94 94v466h68v-464q0 -40 36 -40q22 0 30 6l9 -53q-17 -9 -49 -9z" />
    <glyph glyph-name="m.sups" horiz-adv-x="788" 
d="M136 616v-198h-68v370h35q18 0 19 -15l8 -53q20 35 58.5 55.5t79.5 20.5q113 0 148 -89q16 37 57.5 63t89.5 26q79 0 120.5 -45.5t41.5 -125.5v-207h-68v197q0 63 -29.5 93t-79.5 30q-47 0 -82.5 -30.5t-35.5 -91.5v-198h-68v197q0 123 -109 123q-46 0 -81.5 -30.5
t-35.5 -91.5z" />
    <glyph glyph-name="n.sups" horiz-adv-x="497" 
d="M136 616v-198h-68v370h35q18 0 19 -16l8 -52q20 34 59 55t81 21q80 0 122 -45.5t42 -125.5v-207h-68v197q0 64 -30 93.5t-81 29.5q-48 0 -83.5 -30.5t-35.5 -91.5z" />
    <glyph glyph-name="o.sups" horiz-adv-x="478" 
d="M239 410q-92 0 -140.5 55.5t-48.5 137.5t48.5 137.5t140.5 55.5q94 0 142 -55t48 -138t-48 -138t-142 -55zM239 468q63 0 92 37.5t29 97.5t-29 97.5t-92 37.5t-92 -37.5t-29 -97.5t29 -97.5t92 -37.5z" />
    <glyph glyph-name="p.sups" horiz-adv-x="488" 
d="M235 468q70 0 103 40t33 101q0 56 -26.5 92t-86.5 36q-50 0 -86 -31t-36 -94v-120q38 -24 99 -24zM136 435v-202h-68v555h34q16 0 20 -16l9 -51q17 35 55 55t82 20q83 0 127 -51t44 -134q0 -90 -51 -145.5t-145 -55.5q-63 0 -107 25z" />
    <glyph glyph-name="q.sups" horiz-adv-x="488" 
d="M421 233h-68v226q-15 -21 -49 -35t-73 -14q-84 0 -132.5 52.5t-48.5 138.5t52.5 140.5t138.5 54.5q74 0 116 -39l7 31h57v-555zM243 468q44 0 77 23.5t33 69.5v139q-11 15 -40.5 26t-65.5 11q-62 0 -96 -38.5t-34 -97.5q0 -55 31.5 -94t94.5 -39z" />
    <glyph glyph-name="r.sups" horiz-adv-x="322" 
d="M136 418h-68v370h35q18 0 19 -16l8 -63q17 41 51 64t74 23q28 0 55 -10l-14 -71q-22 12 -53 12q-45 0 -76 -30t-31 -94v-185z" />
    <glyph glyph-name="s.sups" horiz-adv-x="426" 
d="M195 410q-77 0 -144 25l19 56q64 -22 124 -22q115 0 115 54q0 22 -22.5 35.5t-78.5 20.5q-85 12 -119.5 37.5t-34.5 70.5q1 43 44.5 76t126.5 33q78 0 137 -22l-19 -57q-61 21 -115 21q-105 0 -105 -48q0 -20 20 -32t79 -21q81 -12 118.5 -38t37.5 -70q0 -50 -45.5 -84.5
t-137.5 -34.5z" />
    <glyph glyph-name="t.sups" horiz-adv-x="351" 
d="M239 411q-140 0 -140 134v188l-78 11v44h78v109h68v-109h149v-50l-149 -9v-179q0 -45 19.5 -64t63.5 -19q33 0 57 9l11 -53q-33 -12 -79 -12z" />
    <glyph glyph-name="u.sups" horiz-adv-x="489" 
d="M368 418l-7 71q-18 -36 -56.5 -57.5t-80.5 -21.5q-78 0 -119 45.5t-41 125.5v207h68v-197q0 -63 29.5 -93t77.5 -30q46 0 81 30.5t35 91.5v198h68v-370h-55z" />
    <glyph glyph-name="v.sups" horiz-adv-x="447" 
d="M251 411h-25q-26 0 -37 23l-161 354h72l126 -291l122 291h72z" />
    <glyph glyph-name="w.sups" horiz-adv-x="635" 
d="M424 438l-101 275l-105 -303h-30q-26 0 -35 26l-125 352h69l93 -286l96 276h45q24 0 32 -21l98 -253l81 284h66l-119 -378h-25q-30 0 -40 28z" />
    <glyph glyph-name="x.sups" horiz-adv-x="446" 
d="M327 437l-103 128l-119 -147h-77l156 190l-148 180h49q29 0 42 -17l95 -117l110 134h77l-148 -177l158 -193h-50q-28 0 -42 19z" />
    <glyph glyph-name="y.sups" horiz-adv-x="487" 
d="M231 230q-81 0 -146 42l24 57q58 -40 120 -40q72 0 100.5 30t28.5 86v79q-20 -34 -57 -54t-77 -20q-78 0 -119 45.5t-41 125.5v207h68v-197q0 -63 29 -93t77 -30q46 0 81 30.5t35 91.5v198h68v-383q0 -85 -44.5 -130t-146.5 -45z" />
    <glyph glyph-name="z.sups" horiz-adv-x="401" 
d="M362 418h-322v14q0 35 18 57l210 241l-216 -1v59h303v-20q0 -28 -16 -47l-215 -245l238 2v-60z" />
    <glyph glyph-name="period.sups" horiz-adv-x="203" 
d="M101 417q-24 0 -40.5 16t-16.5 40q0 23 16.5 40t40.5 17t40.5 -17t16.5 -40q0 -24 -16.5 -40t-40.5 -16z" />
    <glyph glyph-name="comma.sups" horiz-adv-x="199" 
d="M39 320l-18 25q52 34 52 86q0 34 -29 48q0 21 15 36t37 15q28 0 43.5 -19.5t15.5 -47.5q0 -51 -38 -91t-78 -52z" />
    <glyph glyph-name="hyphen.sups" horiz-adv-x="438" 
d="M67 577v70h304v-70h-304z" />
    <glyph glyph-name="parenleft.sups" horiz-adv-x="263" 
d="M186 297q-48 57 -86 154.5t-38 214.5q0 167 80 307h77q-80 -140 -80 -307q0 -112 36.5 -210t84.5 -159h-74z" />
    <glyph glyph-name="parenright.sups" horiz-adv-x="263" 
d="M2 297q49 60 85.5 158.5t36.5 210.5q0 162 -80 307h76q80 -137 80 -307q0 -118 -37.5 -215.5t-85.5 -153.5h-75z" />
    <glyph glyph-name="plus.sups" horiz-adv-x="438" 
d="M371 619h-116v-117h-71v117h-117v70h117v118h71v-118h116v-70z" />
    <glyph glyph-name="minus.sups" horiz-adv-x="438" 
d="M67 619v70h304v-70h-304z" />
    <glyph glyph-name="multiply.sups" horiz-adv-x="438" 
d="M302 522l-83 83l-83 -84l-49 51l83 83l-83 83l49 49l83 -83l83 83l50 -49l-83 -83l83 -83z" />
    <glyph glyph-name="equal.sups" horiz-adv-x="438" 
d="M67 685v68h304v-68h-304zM67 550v68h304v-68h-304z" />
    <glyph glyph-name="divide.sups" horiz-adv-x="438" 
d="M219 730q-23 0 -38.5 15.5t-15.5 37.5q0 23 15.5 38.5t38.5 15.5t38.5 -15.5t15.5 -38.5q0 -22 -15.5 -37.5t-38.5 -15.5zM67 621v66h304v-66h-304zM219 472q-23 0 -38.5 15.5t-15.5 37.5q0 23 15.5 38.5t38.5 15.5t38.5 -15.5t15.5 -38.5q0 -22 -15.5 -37.5t-38.5 -15.5
z" />
    <glyph glyph-name="dollar.sups" horiz-adv-x="328" 
d="M194 361h-51v57q-64 0 -107 24l21 60q42 -20 85 -20q85 0 85 51q0 21 -14.5 33t-46.5 20l-36 9q-99 24 -99 100q0 40 28 70.5t79 39.5v50h51v-46q49 -1 93 -17l-18 -62q-48 16 -81 16q-81 0 -81 -48q0 -34 56 -45l33 -8q108 -25 108 -105q0 -42 -26.5 -74t-78.5 -43v-62z
" />
    <glyph glyph-name="cent.sups" horiz-adv-x="281" 
d="M235 485q-24 -12 -56 -15v-52h-54v57q-47 11 -72.5 48t-25.5 90t25.5 90t72.5 48v58h54v-53q36 -3 56 -14l-15 -60q-26 11 -50 11q-32 0 -50.5 -21.5t-18.5 -58.5t18.5 -58t50.5 -21q29 0 51 11z" />
    <glyph glyph-name="sterling.sups" horiz-adv-x="336" 
d="M306 492v-67h-273v67h22q35 0 54.5 15.5t19.5 43.5q0 10 -1 15h-86v41h57l-15 13q-46 41 -46 84q0 47 38.5 76t99.5 29q59 0 113 -25l-18 -59q-42 21 -89 21q-32 0 -50.5 -14t-18.5 -37t21 -42l30 -29q8 -7 15 -17h85v-41h-71q1 -4 1 -12q0 -38 -29 -62h141z" />
    <glyph glyph-name="florin.sups" horiz-adv-x="272" 
d="M10 289q-26 0 -43 7l14 57q8 -4 22 -4q39 0 43 45l22 222h-55l7 53h51l4 37q11 103 126 103q37 0 61 -11l-20 -57q-18 6 -39 6q-51 0 -56 -48l-3 -30h82l-6 -54h-80l-21 -228q-9 -98 -109 -98z" />
    <glyph glyph-name="yen.sups" horiz-adv-x="388" 
d="M297 478h-72v-53h-70v53h-74v42h74v25h-74v43h74v23l-135 185h81l89 -133l99 133h78l-142 -185v-23h72v-43h-72v-25h72v-42z" />
    <glyph glyph-name="Euro.sups" horiz-adv-x="323" 
d="M228 628h-225l11 48h28q13 62 52.5 97.5t101.5 35.5q45 0 85 -20l-16 -62q-32 13 -62 13q-63 0 -83 -64h119zM251 427q-27 -9 -54 -9q-62 0 -101.5 35.5t-53.5 98.5h-39l11 48h205l-11 -48h-88q22 -65 84 -65q33 0 63 14z" />
    <glyph glyph-name="zero.subs" horiz-adv-x="394" 
d="M196 -169q-80 0 -122.5 57t-42.5 142q0 82 42.5 138t122.5 56q82 0 124.5 -55.5t42.5 -138.5q0 -85 -42.5 -142t-124.5 -57zM197 -108q46 0 72 38t26 100q0 60 -26 96.5t-73 36.5q-46 0 -71.5 -36.5t-25.5 -96.5q0 -62 25.5 -100t72.5 -38z" />
    <glyph glyph-name="one.subs" horiz-adv-x="394" 
d="M341 -162h-288v61h113v250l-108 -40v65l106 40q24 10 50 10h19v-325h108v-61z" />
    <glyph glyph-name="two.subs" 
d="M54 -162v60q0 42 26 69.5t73 49.5l49 21q35 16 51.5 31.5t16.5 38.5q0 26 -24 43t-67 17q-57 0 -107 -26l-17 54q60 30 130 30q73 0 114 -31t41 -79q0 -42 -27.5 -70.5t-75.5 -50.5l-49 -21q-59 -28 -59 -65v-9h212v-62h-287z" />
    <glyph glyph-name="three.subs" 
d="M175 -169q-71 0 -123 22l20 57q43 -18 100 -18q102 0 102 60q0 57 -92 57h-54v56h53q39 0 59.5 15t20.5 38q0 50 -88 50q-52 0 -102 -19l-16 54q53 23 125 23q75 0 112.5 -27t37.5 -70q0 -30 -18 -54t-46 -35q33 -6 55 -31t22 -57q0 -54 -41.5 -87.5t-126.5 -33.5z" />
    <glyph glyph-name="four.subs" horiz-adv-x="394" 
d="M251 -14v172l-144 -172h144zM362 -71h-46v-91h-65v91h-219v54l205 240h79v-237h46v-57z" />
    <glyph glyph-name="five.subs" horiz-adv-x="394" 
d="M165 -169q-75 0 -119 23l22 58q40 -20 99 -20q52 0 83.5 20t31.5 59q0 32 -26 50.5t-69 18.5q-49 0 -88 -21l-35 11v193h264v-61h-198v-78q33 12 77 12q59 0 100 -31.5t41 -89.5q0 -68 -49 -106t-134 -38z" />
    <glyph glyph-name="six.subs" 
d="M353 -28q0 -61 -41 -101t-109 -40q-75 0 -118 49t-43 132v16q0 102 54.5 150t131.5 48q60 0 100 -24l-13 -58q-40 21 -88 21q-108 -2 -116 -121q41 48 111 48q63 0 97 -34.5t34 -85.5zM201 -108q40 0 62 21t22 53q0 29 -20.5 49t-59.5 20q-31 0 -57 -13.5t-38 -34.5
q2 -38 24.5 -66.5t66.5 -28.5z" />
    <glyph glyph-name="seven.subs" 
d="M180 -162h-75q14 95 63 178.5t112 145.5h-243v61h318l3 -47q-60 -59 -113 -149t-65 -189z" />
    <glyph glyph-name="eight.subs" 
d="M195 -169q-69 0 -110.5 30t-41.5 81q0 32 19.5 56.5t56.5 36.5q-61 28 -61 86q0 45 39 75t101 30q61 0 100 -28.5t39 -71.5q0 -57 -60 -79q75 -31 75 -101q0 -53 -42.5 -84t-114.5 -31zM193 67l25 -5q51 16 51 56q0 25 -19.5 39.5t-51.5 14.5t-52 -14.5t-20 -38.5
q0 -40 67 -52zM195 -113q42 0 66.5 16.5t24.5 43.5q0 46 -72 62l-36 7q-33 -7 -51 -25t-18 -41q0 -28 24 -45.5t62 -17.5z" />
    <glyph glyph-name="nine.subs" 
d="M200 20q51 0 84 27v16q0 44 -21.5 73t-67.5 29q-38 0 -60.5 -20t-22.5 -53q0 -31 22 -51.5t66 -20.5zM177 -169q-75 0 -111 30l15 55q36 -25 97 -25q48 0 74.5 23.5t30.5 80.5q-39 -32 -98 -32q-69 0 -105.5 35.5t-36.5 91.5q0 59 42.5 97.5t110.5 38.5q74 0 115 -46
t41 -126v-34q0 -189 -175 -189z" />
    <glyph glyph-name="a.subs" horiz-adv-x="458" 
d="M215 -110q33 0 66 11.5t49 30.5q-5 44 -37 70t-83 26q-43 0 -67.5 -18.5t-24.5 -51.5q0 -31 25.5 -49.5t71.5 -18.5zM341 -156l-6 44q-12 -20 -49.5 -36t-85.5 -16q-68 0 -109.5 33t-41.5 86q0 57 42.5 90.5t108.5 33.5q91 0 129 -64v47q0 48 -26 74.5t-91 26.5
q-64 0 -119 -25l-16 57q62 27 139 27q179 0 179 -150v-228h-54z" />
    <glyph glyph-name="b.subs" horiz-adv-x="488" 
d="M225 -164q-89 0 -157 39v524h65v-248q18 33 55.5 52t79.5 19q83 0 127 -50.5t44 -132.5q0 -94 -55 -148.5t-159 -54.5zM233 -106q71 0 104.5 40.5t33.5 102.5q0 55 -26.5 90.5t-86.5 35.5q-50 0 -86 -31t-36 -94v-124q33 -20 97 -20z" />
    <glyph glyph-name="c.subs" horiz-adv-x="415" 
d="M259 -164q-100 0 -154.5 54.5t-54.5 138.5t54.5 138.5t154.5 54.5q74 0 123 -24l-20 -54q-44 19 -102 19q-70 0 -106 -37t-36 -97t36 -97t106 -37q56 0 104 20l19 -55q-51 -24 -124 -24z" />
    <glyph glyph-name="d.subs" horiz-adv-x="488" 
d="M243 -106q44 0 77 23.5t33 69.5v139q-11 15 -40.5 26t-65.5 11q-62 0 -96 -38.5t-34 -97.5q0 -56 31.5 -94.5t94.5 -38.5zM357 -110q-16 -25 -51 -39.5t-75 -14.5q-84 0 -132.5 52.5t-48.5 138.5t52.5 140.5t138.5 54.5q73 0 115 -39v216h65v-555h-58z" />
    <glyph glyph-name="e.subs" horiz-adv-x="461" 
d="M351 64q0 42 -27 71t-85 29q-102 0 -118 -100h230zM410 -135q-71 -29 -150 -29q-105 0 -157.5 54.5t-52.5 138.5q0 82 48.5 137.5t140.5 55.5q94 0 137 -49.5t43 -131.5v-27h-301q9 -120 145 -120q70 0 128 23z" />
    <glyph glyph-name="f.subs" horiz-adv-x="345" 
d="M99 -156v314l-71 12v44h71v66q0 127 157 127q44 0 77 -12l-10 -56q-32 9 -63 9q-92 0 -92 -72v-62h144v-48l-144 -9v-313h-69z" />
    <glyph glyph-name="g.subs" horiz-adv-x="454" 
d="M208 -348q-78 -1 -127.5 28t-49.5 83q0 41 32 69.5t85 41.5q-17 14 -17 35q0 38 47 55q-63 6 -100 39.5t-37 82.5q0 57 49 96.5t127 39.5q47 0 85 -16l120 25l11 -50l-33 -7l-46 -3q33 -36 33 -79q0 -97 -139 -136l-23 -6q-25 -7 -25 -23t26 -22l54 -11q71 -16 104.5 -41
t33.5 -71q0 -61 -62 -95.5t-148 -34.5zM221 6q43 0 72 22.5t29 60.5q0 30 -27.5 54t-77.5 24q-51 0 -81.5 -22.5t-30.5 -60.5q0 -33 31 -55.5t85 -22.5zM212 -293q55 0 96 18.5t41 52.5q0 45 -91 62l-53 10l-4 1q-46 -6 -76 -26t-30 -49q0 -34 33 -51.5t84 -17.5z" />
    <glyph glyph-name="h.subs" horiz-adv-x="497" 
d="M136 42v-198h-68v555h65v-250q21 33 59 53t78 20q80 0 122 -45.5t42 -125.5v-207h-68v197q0 64 -30 93.5t-81 29.5q-48 0 -83.5 -30.5t-35.5 -91.5z" />
    <glyph glyph-name="i.subs" horiz-adv-x="212" 
d="M106 270q-20 0 -33 13t-13 33t13 33t33 13t33.5 -13.5t13.5 -32.5t-13.5 -32.5t-33.5 -13.5zM72 -156v370h69v-370h-69z" />
    <glyph glyph-name="j.subs" horiz-adv-x="210" 
d="M105 270q-20 0 -33.5 13.5t-13.5 32.5t13.5 32.5t33.5 13.5q19 0 32.5 -13.5t13.5 -32.5t-13.5 -32.5t-32.5 -13.5zM12 -343q-38 0 -59 9l10 53q13 -6 38 -6q36 0 53 19.5t17 63.5v418h68v-423q0 -134 -127 -134z" />
    <glyph glyph-name="k.subs" horiz-adv-x="453" 
d="M133 -136q-14 -20 -41 -20h-25v555h67v-450l200 265h75l-134 -170l153 -200h-75l-118 150z" />
    <glyph glyph-name="l.subs" horiz-adv-x="236" 
d="M163 -161q-94 0 -94 94v466h68v-464q0 -40 36 -40q22 0 30 6l9 -53q-17 -9 -49 -9z" />
    <glyph glyph-name="m.subs" horiz-adv-x="788" 
d="M136 42v-198h-68v370h35q18 0 19 -15l8 -53q20 35 58.5 55.5t79.5 20.5q113 0 148 -89q16 37 57.5 63t89.5 26q79 0 120.5 -45.5t41.5 -125.5v-207h-68v197q0 63 -29.5 93t-79.5 30q-47 0 -82.5 -30.5t-35.5 -91.5v-198h-68v197q0 123 -109 123q-46 0 -81.5 -30.5
t-35.5 -91.5z" />
    <glyph glyph-name="n.subs" horiz-adv-x="497" 
d="M136 42v-198h-68v370h35q18 0 19 -16l8 -52q20 34 59 55t81 21q80 0 122 -45.5t42 -125.5v-207h-68v197q0 64 -30 93.5t-81 29.5q-48 0 -83.5 -30.5t-35.5 -91.5z" />
    <glyph glyph-name="o.subs" horiz-adv-x="478" 
d="M239 -164q-92 0 -140.5 55.5t-48.5 137.5t48.5 137.5t140.5 55.5q94 0 142 -55t48 -138t-48 -138t-142 -55zM239 -106q63 0 92 37.5t29 97.5t-29 97.5t-92 37.5t-92 -37.5t-29 -97.5t29 -97.5t92 -37.5z" />
    <glyph glyph-name="p.subs" horiz-adv-x="488" 
d="M235 -106q70 0 103 40t33 101q0 56 -26.5 92t-86.5 36q-50 0 -86 -31t-36 -94v-120q38 -24 99 -24zM136 -139v-202h-68v555h34q16 0 20 -16l9 -51q17 35 55 55t82 20q83 0 127 -51t44 -134q0 -90 -51 -145.5t-145 -55.5q-63 0 -107 25z" />
    <glyph glyph-name="q.subs" horiz-adv-x="488" 
d="M421 -341h-68v226q-15 -21 -49 -35t-73 -14q-84 0 -132.5 52.5t-48.5 138.5t52.5 140.5t138.5 54.5q74 0 116 -39l7 31h57v-555zM243 -106q44 0 77 23.5t33 69.5v139q-11 15 -40.5 26t-65.5 11q-62 0 -96 -38.5t-34 -97.5q0 -55 31.5 -94t94.5 -39z" />
    <glyph glyph-name="r.subs" horiz-adv-x="322" 
d="M136 -156h-68v370h35q18 0 19 -16l8 -63q17 41 51 64t74 23q28 0 55 -10l-14 -71q-22 12 -53 12q-45 0 -76 -30t-31 -94v-185z" />
    <glyph glyph-name="s.subs" horiz-adv-x="426" 
d="M195 -164q-77 0 -144 25l19 56q64 -22 124 -22q115 0 115 54q0 22 -22.5 35.5t-78.5 20.5q-85 12 -119.5 37.5t-34.5 70.5q1 43 44.5 76t126.5 33q78 0 137 -22l-19 -57q-61 21 -115 21q-105 0 -105 -48q0 -20 20 -32t79 -21q81 -12 118.5 -38t37.5 -70
q0 -50 -45.5 -84.5t-137.5 -34.5z" />
    <glyph glyph-name="t.subs" horiz-adv-x="351" 
d="M239 -163q-140 0 -140 134v188l-78 11v44h78v109h68v-109h149v-50l-149 -9v-179q0 -45 19.5 -64t63.5 -19q33 0 57 9l11 -53q-33 -12 -79 -12z" />
    <glyph glyph-name="u.subs" horiz-adv-x="489" 
d="M368 -156l-7 71q-18 -36 -56.5 -57.5t-80.5 -21.5q-78 0 -119 45.5t-41 125.5v207h68v-197q0 -63 29.5 -93t77.5 -30q46 0 81 30.5t35 91.5v198h68v-370h-55z" />
    <glyph glyph-name="v.subs" horiz-adv-x="447" 
d="M251 -163h-25q-26 0 -37 23l-161 354h72l126 -291l122 291h72z" />
    <glyph glyph-name="w.subs" horiz-adv-x="635" 
d="M424 -136l-101 275l-105 -303h-30q-26 0 -35 26l-125 352h69l93 -286l96 276h45q24 0 32 -21l98 -253l81 284h66l-119 -378h-25q-30 0 -40 28z" />
    <glyph glyph-name="x.subs" horiz-adv-x="446" 
d="M327 -137l-103 128l-119 -147h-77l156 190l-148 180h49q29 0 42 -17l95 -117l110 134h77l-148 -177l158 -193h-50q-28 0 -42 19z" />
    <glyph glyph-name="y.subs" horiz-adv-x="487" 
d="M231 -344q-81 0 -146 42l24 57q58 -40 120 -40q72 0 100.5 30t28.5 86v79q-20 -34 -57 -54t-77 -20q-78 0 -119 45.5t-41 125.5v207h68v-197q0 -63 29 -93t77 -30q46 0 81 30.5t35 91.5v198h68v-383q0 -85 -44.5 -130t-146.5 -45z" />
    <glyph glyph-name="z.subs" horiz-adv-x="401" 
d="M362 -156h-322v14q0 35 18 57l210 241l-216 -1v59h303v-20q0 -28 -16 -47l-215 -245l238 2v-60z" />
    <glyph glyph-name="period.subs" horiz-adv-x="203" 
d="M101 -158q-24 0 -40.5 16t-16.5 40q0 23 16.5 40t40.5 17t40.5 -17t16.5 -40q0 -24 -16.5 -40t-40.5 -16z" />
    <glyph glyph-name="comma.subs" horiz-adv-x="199" 
d="M39 -255l-18 25q52 34 52 86q0 34 -29 48q0 21 15 36t37 15q28 0 43.5 -19.5t15.5 -47.5q0 -51 -38 -91t-78 -52z" />
    <glyph glyph-name="hyphen.subs" horiz-adv-x="438" 
d="M67 2v70h304v-70h-304z" />
    <glyph glyph-name="parenleft.subs" horiz-adv-x="263" 
d="M186 -278q-48 57 -86 154.5t-38 214.5q0 167 80 307h77q-80 -140 -80 -307q0 -112 36.5 -210t84.5 -159h-74z" />
    <glyph glyph-name="parenright.subs" horiz-adv-x="263" 
d="M2 -278q49 60 85.5 158.5t36.5 210.5q0 162 -80 307h76q80 -137 80 -307q0 -118 -37.5 -215.5t-85.5 -153.5h-75z" />
    <glyph glyph-name="plus.subs" horiz-adv-x="438" 
d="M371 44h-116v-117h-71v117h-117v70h117v118h71v-118h116v-70z" />
    <glyph glyph-name="minus.subs" horiz-adv-x="438" 
d="M67 44v70h304v-70h-304z" />
    <glyph glyph-name="multiply.subs" horiz-adv-x="438" 
d="M302 -53l-83 83l-83 -84l-49 51l83 83l-83 83l49 49l83 -83l83 83l50 -49l-83 -83l83 -83z" />
    <glyph glyph-name="equal.subs" horiz-adv-x="438" 
d="M67 110v68h304v-68h-304zM67 -25v68h304v-68h-304z" />
    <glyph glyph-name="divide.subs" horiz-adv-x="438" 
d="M219 155q-23 0 -38.5 15.5t-15.5 37.5t15.5 38t38.5 16t38.5 -16t15.5 -38t-15.5 -37.5t-38.5 -15.5zM67 46v66h304v-66h-304zM219 -103q-23 0 -38.5 15.5t-15.5 37.5t15.5 38t38.5 16t38.5 -16t15.5 -38t-15.5 -37.5t-38.5 -15.5z" />
    <glyph glyph-name="dollar.subs" horiz-adv-x="328" 
d="M194 -214h-51v57q-64 0 -107 24l21 60q42 -20 85 -20q85 0 85 51q0 21 -14.5 33t-46.5 20l-36 9q-99 24 -99 100q0 40 28 70.5t79 39.5v50h51v-46q49 -1 93 -17l-18 -62q-48 16 -81 16q-81 0 -81 -48q0 -34 56 -45l33 -8q108 -25 108 -105q0 -42 -26.5 -74t-78.5 -43v-62
z" />
    <glyph glyph-name="cent.subs" horiz-adv-x="281" 
d="M235 -90q-24 -12 -56 -15v-52h-54v57q-47 11 -72.5 48t-25.5 90t25.5 90t72.5 48v58h54v-53q36 -3 56 -14l-15 -60q-26 11 -50 11q-32 0 -50.5 -21.5t-18.5 -58.5t18.5 -58t50.5 -21q29 0 51 11z" />
    <glyph glyph-name="sterling.subs" horiz-adv-x="336" 
d="M306 -83v-67h-273v67h22q35 0 54.5 15.5t19.5 43.5q0 10 -1 15h-86v41h57l-15 13q-46 41 -46 84q0 47 38.5 76t99.5 29q59 0 113 -25l-18 -59q-42 21 -89 21q-32 0 -50.5 -14t-18.5 -37t21 -42l30 -29q8 -7 15 -17h85v-41h-71q1 -4 1 -12q0 -38 -29 -62h141z" />
    <glyph glyph-name="florin.subs" horiz-adv-x="272" 
d="M10 -286q-26 0 -43 7l14 57q8 -4 22 -4q39 0 43 45l22 222h-55l7 53h51l4 37q11 103 126 103q37 0 61 -11l-20 -57q-18 6 -39 6q-51 0 -56 -48l-3 -30h82l-6 -54h-80l-21 -228q-9 -98 -109 -98z" />
    <glyph glyph-name="yen.subs" horiz-adv-x="359" 
d="M297 -97h-72v-53h-70v53h-74v42h74v25h-74v43h74v23l-135 185h81l89 -133l99 133h78l-142 -185v-23h72v-43h-72v-25h72v-42z" />
    <glyph glyph-name="Euro.subs" horiz-adv-x="323" 
 />
    <glyph glyph-name="zero.numr" horiz-adv-x="394" 
d="M196 300q-80 0 -122.5 57t-42.5 142q0 82 42.5 138t122.5 56q82 0 124.5 -55.5t42.5 -138.5q0 -85 -42.5 -142t-124.5 -57zM197 361q46 0 72 38t26 100q0 60 -26 96.5t-73 36.5q-46 0 -71.5 -36.5t-25.5 -96.5q0 -62 25.5 -100t72.5 -38z" />
    <glyph glyph-name="one.numr" horiz-adv-x="394" 
d="M341 307h-288v61h113v250l-108 -40v65l106 40q24 10 50 10h19v-325h108v-61z" />
    <glyph glyph-name="two.numr" 
d="M54 307v60q0 42 26 69.5t73 49.5l49 21q35 16 51.5 31.5t16.5 38.5q0 26 -24 43t-67 17q-57 0 -107 -26l-17 54q60 30 130 30q73 0 114 -31t41 -79q0 -42 -27.5 -70.5t-75.5 -50.5l-49 -21q-59 -28 -59 -65v-9h212v-62h-287z" />
    <glyph glyph-name="three.numr" 
d="M175 300q-71 0 -123 22l20 57q43 -18 100 -18q102 0 102 60q0 57 -92 57h-54v56h53q39 0 59.5 15t20.5 38q0 50 -88 50q-52 0 -102 -19l-16 54q53 23 125 23q75 0 112.5 -27t37.5 -70q0 -30 -18 -54t-46 -35q33 -6 55 -31t22 -57q0 -54 -41.5 -87.5t-126.5 -33.5z" />
    <glyph glyph-name="four.numr" horiz-adv-x="394" 
d="M251 455v172l-144 -172h144zM362 398h-46v-91h-65v91h-219v54l205 240h79v-237h46v-57z" />
    <glyph glyph-name="five.numr" horiz-adv-x="394" 
d="M165 300q-75 0 -119 23l22 58q40 -20 99 -20q52 0 83.5 20t31.5 59q0 32 -26 50.5t-69 18.5q-49 0 -88 -21l-35 11v193h264v-61h-198v-78q33 12 77 12q59 0 100 -31.5t41 -89.5q0 -68 -49 -106t-134 -38z" />
    <glyph glyph-name="six.numr" 
d="M353 441q0 -61 -41 -101t-109 -40q-75 0 -118 49t-43 132v16q0 102 54.5 150t131.5 48q60 0 100 -24l-13 -58q-40 21 -88 21q-108 -2 -116 -121q41 48 111 48q63 0 97 -34.5t34 -85.5zM201 361q40 0 62 21t22 53q0 29 -20.5 49t-59.5 20q-31 0 -57 -13.5t-38 -34.5
q2 -38 24.5 -66.5t66.5 -28.5z" />
    <glyph glyph-name="seven.numr" 
d="M180 307h-75q14 95 63 178.5t112 145.5h-243v61h318l3 -47q-60 -59 -113 -149t-65 -189z" />
    <glyph glyph-name="eight.numr" 
d="M195 300q-69 0 -110.5 30t-41.5 81q0 32 19.5 56.5t56.5 36.5q-61 28 -61 86q0 45 39 75t101 30q61 0 100 -28.5t39 -71.5q0 -57 -60 -79q75 -31 75 -101q0 -53 -42.5 -84t-114.5 -31zM193 536l25 -5q51 16 51 56q0 25 -19.5 39.5t-51.5 14.5t-52 -14.5t-20 -38.5
q0 -40 67 -52zM195 356q42 0 66.5 16.5t24.5 43.5q0 46 -72 62l-36 7q-33 -7 -51 -25t-18 -41q0 -28 24 -45.5t62 -17.5z" />
    <glyph glyph-name="nine.numr" 
d="M200 489q51 0 84 27v16q0 44 -21.5 73t-67.5 29q-38 0 -60.5 -20t-22.5 -53q0 -31 22 -51.5t66 -20.5zM177 300q-75 0 -111 30l15 55q36 -25 97 -25q48 0 74.5 23.5t30.5 80.5q-39 -32 -98 -32q-69 0 -105.5 35.5t-36.5 91.5q0 59 42.5 97.5t110.5 38.5q74 0 115 -46
t41 -126v-34q0 -189 -175 -189z" />
    <glyph glyph-name="dollar.numr" horiz-adv-x="328" 
d="M194 255h-51v57q-64 0 -107 24l21 60q42 -20 85 -20q85 0 85 51q0 21 -14.5 33t-46.5 20l-36 9q-99 24 -99 100q0 40 28 70.5t79 39.5v50h51v-46q49 -1 93 -17l-18 -62q-48 16 -81 16q-81 0 -81 -48q0 -34 56 -45l33 -8q108 -25 108 -105q0 -42 -26.5 -74t-78.5 -43v-62z
" />
    <glyph glyph-name="parenleft.numr" horiz-adv-x="263" 
d="M186 191q-48 57 -86 154.5t-38 214.5q0 167 80 307h77q-80 -140 -80 -307q0 -112 36.5 -210t84.5 -159h-74z" />
    <glyph glyph-name="parenright.numr" horiz-adv-x="263" 
d="M2 191q49 60 85.5 158.5t36.5 210.5q0 162 -80 307h76q80 -137 80 -307q0 -118 -37.5 -215.5t-85.5 -153.5h-75z" />
    <glyph glyph-name="hyphen.numr" horiz-adv-x="438" 
d="M67 471v70h304v-70h-304z" />
    <glyph glyph-name="zero.dnom" horiz-adv-x="394" 
d="M196 -8q-80 0 -122.5 57t-42.5 142q0 82 42.5 138t122.5 56q82 0 124.5 -55.5t42.5 -138.5q0 -85 -42.5 -142t-124.5 -57zM197 53q46 0 72 38t26 100q0 60 -26 96.5t-73 36.5q-46 0 -71.5 -36.5t-25.5 -96.5q0 -62 25.5 -100t72.5 -38z" />
    <glyph glyph-name="one.dnom" horiz-adv-x="394" 
d="M341 -1h-288v61h113v250l-108 -40v65l106 40q24 10 50 10h19v-325h108v-61z" />
    <glyph glyph-name="two.dnom" 
d="M54 -1v60q0 42 26 69.5t73 49.5l49 21q35 16 51.5 31.5t16.5 38.5q0 26 -24 43t-67 17q-57 0 -107 -26l-17 54q60 30 130 30q73 0 114 -31t41 -79q0 -42 -27.5 -70.5t-75.5 -50.5l-49 -21q-59 -28 -59 -65v-9h212v-62h-287z" />
    <glyph glyph-name="three.dnom" 
d="M175 -8q-71 0 -123 22l20 57q43 -18 100 -18q102 0 102 60q0 57 -92 57h-54v56h53q39 0 59.5 15t20.5 38q0 50 -88 50q-52 0 -102 -19l-16 54q53 23 125 23q75 0 112.5 -27t37.5 -70q0 -30 -18 -54t-46 -35q33 -6 55 -31t22 -57q0 -54 -41.5 -87.5t-126.5 -33.5z" />
    <glyph glyph-name="four.dnom" horiz-adv-x="394" 
d="M251 147v172l-144 -172h144zM362 90h-46v-91h-65v91h-219v54l205 240h79v-237h46v-57z" />
    <glyph glyph-name="five.dnom" horiz-adv-x="394" 
d="M165 -8q-75 0 -119 23l22 58q40 -20 99 -20q52 0 83.5 20t31.5 59q0 32 -26 50.5t-69 18.5q-49 0 -88 -21l-35 11v193h264v-61h-198v-78q33 12 77 12q59 0 100 -31.5t41 -89.5q0 -68 -49 -106t-134 -38z" />
    <glyph glyph-name="six.dnom" 
d="M353 133q0 -61 -41 -101t-109 -40q-75 0 -118 49t-43 132v16q0 102 54.5 150t131.5 48q60 0 100 -24l-13 -58q-40 21 -88 21q-108 -2 -116 -121q41 48 111 48q63 0 97 -34.5t34 -85.5zM201 53q40 0 62 21t22 53q0 29 -20.5 49t-59.5 20q-31 0 -57.5 -14t-37.5 -35
q2 -38 24.5 -66t66.5 -28z" />
    <glyph glyph-name="seven.dnom" 
d="M180 -1h-75q25 174 175 324h-243v61h318l3 -47q-60 -59 -113 -149t-65 -189z" />
    <glyph glyph-name="eight.dnom" 
d="M195 -8q-69 0 -110.5 30t-41.5 81q0 32 19.5 56.5t56.5 36.5q-61 28 -61 86q0 45 39 75t101 30q61 0 100 -28.5t39 -71.5q0 -57 -60 -79q75 -31 75 -101q0 -53 -42.5 -84t-114.5 -31zM193 228l25 -5q51 16 51 56q0 25 -19.5 39.5t-51.5 14.5t-52 -14.5t-20 -38.5
q0 -40 67 -52zM195 48q42 0 66.5 16.5t24.5 43.5q0 46 -72 62l-36 7q-33 -7 -51 -25t-18 -41q0 -28 24 -45.5t62 -17.5z" />
    <glyph glyph-name="nine.dnom" 
d="M200 181q51 0 84 27v16q0 44 -21.5 73t-67.5 29q-38 0 -60.5 -20t-22.5 -53q0 -31 22 -51.5t66 -20.5zM177 -8q-75 0 -111 30l15 55q36 -25 97 -25q48 0 74.5 23.5t30.5 80.5q-39 -32 -98 -32q-69 0 -105.5 35.5t-36.5 91.5q0 59 42.5 97.5t110.5 38.5q74 0 115 -46
t41 -126v-34q0 -189 -175 -189z" />
    <glyph glyph-name="dollar.dnom" horiz-adv-x="328" 
d="M194 -53h-51v57q-64 0 -107 24l21 60q42 -20 85 -20q85 0 85 51q0 21 -14.5 33t-46.5 20l-36 9q-99 24 -99 100q0 40 28 70.5t79 39.5v50h51v-46q49 -1 93 -17l-18 -62q-48 16 -81 16q-81 0 -81 -48q0 -34 56 -45l33 -8q108 -25 108 -105q0 -42 -26.5 -74t-78.5 -43v-62z
" />
    <glyph glyph-name="parenleft.dnom" horiz-adv-x="263" 
d="M186 -117q-48 57 -86 154.5t-38 214.5q0 167 80 307h77q-80 -140 -80 -307q0 -112 36.5 -210t84.5 -159h-74z" />
    <glyph glyph-name="parenright.dnom" horiz-adv-x="263" 
d="M2 -117q49 60 85.5 158.5t36.5 210.5q0 162 -80 307h76q80 -137 80 -307q0 -118 -37.5 -215.5t-85.5 -153.5h-75z" />
    <glyph glyph-name="hyphen.dnom" horiz-adv-x="438" 
d="M67 163v70h304v-70h-304z" />
    <glyph glyph-name="IJacute" horiz-adv-x="874" 
d="M669 738l130 112h132l-176 -112h-86zM78 737l130 111h132l-176 -111h-86zM86 700h83v-700h-83v700zM693 700h83v-351q0 -175 -82 -268.5t-228 -93.5q-133 0 -223 77l38 66q78 -68 185 -68q105 0 166 72t61 212v354z" />
    <glyph glyph-name="ijacute" horiz-adv-x="492" 
d="M317 566l70 132h97l-98 -132h-69zM72 566l70 132h97l-97 -132h-70zM74 0v500h84v-500h-84zM245 -253q-39 0 -68 12l13 66q18 -8 42 -8q45 0 66.5 25t21.5 82v576h84v-582q0 -89 -43 -130t-116 -41z" />
    <glyph glyph-name="gravecomb.case" horiz-adv-x="386" 
d="M205 789l-139 116h81q40 0 64 -30l67 -86h-73z" />
    <glyph glyph-name="acutecomb.case" horiz-adv-x="409" 
d="M78 787l130 111h133l-177 -111h-86z" />
    <glyph glyph-name="dieresiscomb.case" horiz-adv-x="514" 
d="M353 787q-23 0 -40 17t-17 41t17 41.5t40 17.5q24 0 41 -17.5t17 -41.5t-17 -41t-41 -17zM144 787q-24 0 -40.5 17t-16.5 41t16.5 41.5t40.5 17.5t41 -17.5t17 -41.5t-17 -41t-41 -17z" />
    <glyph glyph-name="circumflexcomb.case" horiz-adv-x="514" 
d="M323 787l-64 62l-68 -62h-91l125 112h40q26 0 45 -17l105 -95h-92z" />
    <glyph glyph-name="tildecomb.case" horiz-adv-x="528" 
d="M86 789q-12 12 -12 40q0 35 28 59.5t77 24.5q36 0 64.5 -15.5t51 -31t44.5 -15.5q27 0 39.5 21.5t12.5 45.5h54q10 -15 10 -37q0 -42 -31 -71.5t-77 -29.5q-38 0 -66.5 16t-50.5 31.5t-43 15.5q-25 0 -36.5 -17t-11.5 -37h-53z" />
    <glyph glyph-name="exclamdown.case" horiz-adv-x="253" 
d="M127 568q-29 0 -49 19.5t-20 48.5t20 49t49 20q28 0 48.5 -20.5t20.5 -48.5t-20.5 -48t-48.5 -20zM75 0l23 490h57l23 -490h-103z" />
    <glyph glyph-name="questiondown.case" horiz-adv-x="509" 
d="M316 568q-29 0 -49 20t-20 48t20.5 48.5t48.5 20.5t48.5 -20.5t20.5 -48.5t-20 -48t-49 -20zM278 -11q-248 0 -248 187q0 100 71.5 152t175.5 57l8 109h65l5 -162q-58 0 -109 -11.5t-91.5 -45t-40.5 -85.5q0 -126 168 -126q93 0 169 32l20 -74q-80 -33 -193 -33z" />
    <glyph glyph-name="braceleft.case" horiz-adv-x="327" 
d="M241 -11q-64 0 -104.5 27.5t-40.5 88.5q0 24 11.5 70.5t11.5 68.5q0 29 -17 46.5t-48 17.5h-12v70h12q31 0 48 17.5t17 46.5q0 23 -11.5 73.5t-11.5 75.5q0 114 145 114q28 0 43 -3l1 -58q-104 0 -104 -71q0 -23 10 -66.5t10 -63.5q0 -95 -85 -99v-3q85 -4 85 -98
q0 -19 -10 -59t-10 -61q0 -72 104 -72l-1 -59q-30 -3 -43 -3z" />
    <glyph glyph-name="braceright.case" horiz-adv-x="327" 
d="M86 -11q-13 0 -43 3l-1 59q104 0 104 72q0 21 -10 61t-10 59q0 94 85 98v3q-85 4 -85 99q0 20 10 63.5t10 66.5q0 71 -104 71l1 58q15 3 43 3q145 0 145 -114q0 -25 -11.5 -75.5t-11.5 -73.5q0 -29 17 -46.5t48 -17.5h12v-70h-12q-31 0 -48 -17.5t-17 -46.5
q0 -22 11.5 -68.5t11.5 -70.5q0 -61 -40.5 -88.5t-104.5 -27.5z" />
    <glyph glyph-name="bracketleft.case" horiz-adv-x="313" 
d="M245 66v-66h-157v700h157v-66h-72v-568h72z" />
    <glyph glyph-name="bracketright.case" horiz-adv-x="313" 
d="M225 0h-157v66h72v568h-72v66h157v-700z" />
    <glyph glyph-name="emdash.case" horiz-adv-x="1061" 
d="M140 327v76h781v-76h-781z" />
    <glyph glyph-name="endash.case" horiz-adv-x="674" 
d="M90 327v76h494v-76h-494z" />
    <glyph glyph-name="hyphen.case" horiz-adv-x="487" 
d="M78 327v76h330v-76h-330z" />
    <glyph glyph-name="guillemotleft.case" horiz-adv-x="540" 
d="M385 112l-168 200v7l168 200h96l-170 -203l170 -204h-96zM215 112l-168 200v7l168 200h96l-170 -203l170 -204h-96z" />
    <glyph glyph-name="guillemotright.case" horiz-adv-x="541" 
d="M230 112l170 204l-170 203h97l168 -200v-7l-168 -200h-97zM58 112l170 204l-170 203h97l168 -200v-7l-168 -200h-97z" />
    <glyph glyph-name="guilsinglleft.case" horiz-adv-x="370" 
d="M215 112l-168 200v7l168 200h96l-170 -203l170 -204h-96z" />
    <glyph glyph-name="guilsinglright.case" horiz-adv-x="370" 
d="M58 112l170 204l-170 203h97l168 -200v-7l-168 -200h-97z" />
    <glyph glyph-name="arrowdown.case" horiz-adv-x="635" 
d="M319 -11h-2l-201 194q-19 16 -19 47v62l187 -179l-3 185v402h73v-402l-3 -185l187 179v-62q0 -29 -19 -47z" />
    <glyph glyph-name="arrowup.case" horiz-adv-x="635" 
d="M354 397v-397h-73v397l3 184l-187 -179v63q0 29 19 47l201 193h2l200 -193q19 -19 19 -47v-63l-187 179z" />
    <glyph glyph-name="arrowupdn.case" horiz-adv-x="635" 
d="M316 -11l-200 135q-19 13 -19 46v43l187 -125l-3 134v250l3 134l-187 -124v42q0 35 19 46l201 135h2l200 -135q19 -10 19 -46v-42l-187 125l3 -135v-250l-3 -134l187 125v-42q0 -35 -19 -47l-201 -135h-2z" />
    <glyph glyph-name="arrowboth.case" horiz-adv-x="1129" 
d="M347 143q-29 0 -47 18l-200 202v2l200 200q19 19 47 19h68l-189 -187l189 3h299l188 -3l-188 187h67q28 0 47 -19l201 -200v-2l-201 -202q-18 -18 -47 -18h-67l187 187l-187 -3h-299l-188 3l188 -187h-68z" />
    <glyph glyph-name="arrowleft.case" horiz-adv-x="774" 
d="M415 327l-187 3l187 -187h-68q-29 0 -47 18l-200 202v2l200 200q19 19 47 19h68l-187 -187l187 3h279v-73h-279z" />
    <glyph glyph-name="arrowright.case" horiz-adv-x="774" 
d="M427 143h-68l187 187l-187 -3h-279v73h279l187 -3l-187 187h68q28 0 47 -19l200 -200v-2l-200 -202q-18 -18 -47 -18z" />
    <glyph glyph-name="arrowdownleft.case" horiz-adv-x="867" 
d="M430 0h-332l-1 1v329q0 28 20 45l52 45v-300l585 583l53 -55l-593 -580h303l-42 -47q-15 -21 -45 -21z" />
    <glyph glyph-name="arrowdownright.case" horiz-adv-x="866" 
d="M768 0h-332q-30 0 -45 21l-43 47h304l-592 581l53 55l584 -584v300l51 -45q21 -17 21 -45v-329z" />
    <glyph glyph-name="arrowupleft.case" horiz-adv-x="863" 
d="M803 56l-52 -56l-582 580v-300l-52 45q-20 17 -20 45v329l1 1h332q30 0 45 -21l42 -47h-303z" />
    <glyph glyph-name="arrowupright.case" horiz-adv-x="863" 
d="M695 280v300l-582 -580l-53 56l589 576h-303l42 47q17 21 46 21h331l1 -1v-329q0 -29 -20 -45z" />
    <glyph glyph-name="at.case" horiz-adv-x="1079" 
d="M498 -165q-194 0 -316 120.5t-122 316.5q0 212 138 344.5t349 132.5q204 0 338 -120.5t134 -314.5q0 -137 -61 -207t-144 -70q-71 0 -114 46.5t-45 116.5l-1 40q-20 -96 -74 -149.5t-124 -53.5q-78 0 -127.5 60t-49.5 167q0 125 73.5 208t198.5 83q64 0 122 -27l38 17
l14 -5v-334q0 -48 26.5 -74t68.5 -26q48 0 82.5 50.5t34.5 157.5q0 163 -110 263t-280 100q-177 0 -291 -111t-114 -294q0 -164 98.5 -262t257.5 -98q62 0 116 18l20 -73q-64 -22 -136 -22zM468 113q68 0 121.5 89.5t53.5 244.5v21q-44 21 -93 21q-82 0 -134.5 -61
t-52.5 -162q0 -72 28.5 -112.5t76.5 -40.5z" />
    <glyph glyph-name="colon.case" horiz-adv-x="312" 
d="M156 395q-26 0 -43.5 17.5t-17.5 42.5t17.5 43t43.5 18q25 0 42.5 -17.5t17.5 -43.5q0 -25 -17 -42.5t-43 -17.5zM156 123q-26 0 -43.5 17.5t-17.5 42.5t17.5 43t43.5 18q25 0 42.5 -17.5t17.5 -43.5q0 -25 -17 -42.5t-43 -17.5z" />
    <glyph glyph-name="periodcentered.case" horiz-adv-x="275" 
d="M137 288q-25 0 -42.5 17.5t-17.5 42.5t17.5 43t42.5 18t43 -17.5t18 -43.5q0 -25 -17.5 -42.5t-43.5 -17.5z" />
    <glyph glyph-name="LA.calt" horiz-adv-x="646" 
d="M95 0v700h83v-625h441l-39 -75h-485z" />
    <glyph glyph-name="ZA.calt" horiz-adv-x="696" 
d="M636 0h-594v15q0 30 7.5 46.5t29.5 42.5l466 521h-481v75h590v-20q0 -26 -6 -41t-24 -35l-473 -529h524z" />
    <glyph glyph-name="EA.calt" horiz-adv-x="700" 
d="M95 0v700h564v-75h-481v-225h433v-75h-433v-250h492l-39 -75h-536z" />
    <glyph glyph-name="EgraveA.calt" horiz-adv-x="700" 
d="M367 741l-139 115h82q39 0 63 -30l67 -85h-73zM95 0v700h564v-75h-481v-225h433v-75h-433v-250h492l-39 -75h-536z" />
    <glyph glyph-name="EacuteA.calt" horiz-adv-x="700" 
d="M287 739l130 111h132l-176 -111h-86zM95 0v700h564v-75h-481v-225h433v-75h-433v-250h492l-39 -75h-536z" />
    <glyph glyph-name="EcircumflexA.calt" horiz-adv-x="700" 
d="M432 739l-64 62l-67 -62h-92l125 112h40q26 0 45 -18l106 -94h-93zM95 0v700h564v-75h-481v-225h433v-75h-433v-250h492l-39 -75h-536z" />
    <glyph glyph-name="EdieresisA.calt" horiz-adv-x="700" 
d="M481 739q-24 0 -41 17t-17 41t17 41.5t41 17.5t41 -17.5t17 -41.5t-17 -41t-41 -17zM272 739q-24 0 -41 17t-17 41t17 41.5t41 17.5q23 0 40 -17.5t17 -41.5t-17 -41t-40 -17zM95 0v700h564v-75h-481v-225h433v-75h-433v-250h492l-39 -75h-536z" />
    <glyph glyph-name="LM.calt" horiz-adv-x="643" 
d="M95 0v700h83v-625h425l-22 -75h-486z" />
    <glyph glyph-name="EM.calt" horiz-adv-x="699" 
d="M95 0v700h564v-75h-481v-225h433v-75h-433v-250h481l-22 -75h-542z" />
    <glyph glyph-name="EgraveM.calt" horiz-adv-x="699" 
d="M362 741l-139 115h82q39 0 63 -30l67 -85h-73zM95 0v700h564v-75h-481v-225h433v-75h-433v-250h481l-22 -75h-542z" />
    <glyph glyph-name="EacuteM.calt" horiz-adv-x="699" 
d="M291 739l130 111h132l-176 -111h-86zM95 0v700h564v-75h-481v-225h433v-75h-433v-250h481l-22 -75h-542z" />
    <glyph glyph-name="EcircumflexM.calt" horiz-adv-x="699" 
d="M444 739l-64 62l-67 -62h-92l125 112h40q26 0 45 -18l106 -94h-93zM95 0v700h564v-75h-481v-225h433v-75h-433v-250h481l-22 -75h-542z" />
    <glyph glyph-name="EdieresisM.calt" horiz-adv-x="699" 
d="M474 739q-24 0 -41 17t-17 41t17 41.5t41 17.5t41 -17.5t17 -41.5t-17 -41t-41 -17zM265 739q-24 0 -41 17t-17 41t17 41.5t41 17.5q23 0 40 -17.5t17 -41.5t-17 -41t-40 -17zM95 0v700h564v-75h-481v-225h433v-75h-433v-250h481l-22 -75h-542z" />
    <glyph glyph-name="EW.calt" horiz-adv-x="704" 
d="M95 0v700h538l21 -75h-476v-225h442v-75h-442v-250h476v-75h-559z" />
    <glyph glyph-name="EgraveW.calt" horiz-adv-x="704" 
d="M365 741l-139 115h82q39 0 63 -30l67 -85h-73zM95 0v700h538l21 -75h-476v-225h442v-75h-442v-250h476v-75h-559z" />
    <glyph glyph-name="EacuteW.calt" horiz-adv-x="704" 
d="M286 739l130 111h132l-176 -111h-86zM95 0v700h538l21 -75h-476v-225h442v-75h-442v-250h476v-75h-559z" />
    <glyph glyph-name="EcircumflexW.calt" horiz-adv-x="704" 
d="M435 739l-64 62l-67 -62h-92l125 112h40q26 0 45 -18l106 -94h-93zM95 0v700h538l21 -75h-476v-225h442v-75h-442v-250h476v-75h-559z" />
    <glyph glyph-name="EdieresisW.calt" horiz-adv-x="704" 
d="M479 739q-24 0 -41 17t-17 41t17 41.5t41 17.5t41 -17.5t17 -41.5t-17 -41t-41 -17zM270 739q-24 0 -41 17t-17 41t17 41.5t41 17.5q23 0 40 -17.5t17 -41.5t-17 -41t-40 -17zM95 0v700h538l21 -75h-476v-225h442v-75h-442v-250h476v-75h-559z" />
    <glyph glyph-name="EV.calt" horiz-adv-x="696" 
d="M95 0v700h528l33 -75h-478v-225h442v-75h-442v-250h476v-75h-559z" />
    <glyph glyph-name="EgraveV.calt" horiz-adv-x="696" 
d="M363 741l-139 115h82q39 0 63 -30l67 -85h-73zM95 0v700h528l33 -75h-478v-225h442v-75h-442v-250h476v-75h-559z" />
    <glyph glyph-name="EacuteV.calt" horiz-adv-x="696" 
d="M288 739l130 111h132l-176 -111h-86zM95 0v700h528l33 -75h-478v-225h442v-75h-442v-250h476v-75h-559z" />
    <glyph glyph-name="EcircumflexV.calt" horiz-adv-x="696" 
d="M441 739l-64 62l-67 -62h-92l125 112h40q26 0 45 -18l106 -94h-93zM95 0v700h528l33 -75h-478v-225h442v-75h-442v-250h476v-75h-559z" />
    <glyph glyph-name="EdieresisV.calt" horiz-adv-x="696" 
d="M467 739q-24 0 -41 17t-17 41t17 41.5t41 17.5t41 -17.5t17 -41.5t-17 -41t-41 -17zM258 739q-24 0 -41 17t-17 41t17 41.5t41 17.5q23 0 40 -17.5t17 -41.5t-17 -41t-40 -17zM95 0v700h528l33 -75h-478v-225h442v-75h-442v-250h476v-75h-559z" />
    <glyph glyph-name="TW.calt" horiz-adv-x="756" 
d="M329 0v623l-314 13v64h697l14 -65l-314 -12v-623h-83z" />
    <glyph glyph-name="TV.calt" horiz-adv-x="756" 
d="M329 0v623l-314 13v64h687l24 -65l-314 -12v-623h-83z" />
    </font>
</defs>
</svg>
