<?xml version="1.0" standalone="no"?>
<!DOCTYPE svg PUBLIC "-//W3C//DTD SVG 1.1//EN" "http://www.w3.org/Graphics/SVG/1.1/DTD/svg11.dtd" >
<svg xmlns="http://www.w3.org/2000/svg" xmlns:xlink="http://www.w3.org/1999/xlink" version="1.1">
<metadata>
Created by FontForge 20170731 at Tue Oct 27 13:11:37 2015
 By Aleksey,,,
Copyright 2015 LATAM Airlines. All Rights Reserved.
</metadata>
<defs>
<font id="LatamSans-Bold" horiz-adv-x="336" >
  <font-face 
    font-family="Latam Sans"
    font-weight="600"
    font-stretch="normal"
    units-per-em="1000"
    panose-1="2 11 8 5 3 4 3 2 2 4"
    ascent="750"
    descent="-250"
    x-height="500"
    cap-height="700"
    bbox="-76 -328.035 1249 974"
    underline-thickness="0"
    underline-position="0"
    unicode-range="U+0020-FB04"
  />
<missing-glyph horiz-adv-x="600" 
 />
    <glyph glyph-name="ff" unicode="ff" horiz-adv-x="736" 
d="M107 0v409l-89 14v77h89v74q0 84 46.5 125t146.5 41q48 0 83 -14l-15 -99q-25 9 -59 9q-78 0 -78 -74v-62h220v96q0 84 48 125t151 41q51 0 87 -14l-15 -99q-27 9 -62 9q-85 0 -85 -74v-84h139v-81l-139 -12v-407h-124v405h-220v-405h-124z" />
    <glyph glyph-name="fi" unicode="fi" horiz-adv-x="646" 
d="M516 569q-32 0 -53.5 21.5t-21.5 53.5t21.5 53.5t53.5 21.5t53.5 -21.5t21.5 -53.5t-21.5 -53.5t-53.5 -21.5zM107 0v404l-89 16v80h89v96q0 84 48 125t151 41q51 0 87 -14l-15 -99q-27 9 -63 9q-84 0 -84 -74v-84h139v-83l-139 -17v-400h-124zM454 0v500h124v-500h-124z
" />
    <glyph glyph-name="fl" unicode="fl" horiz-adv-x="665" 
d="M591 -7q-139 0 -139 129v628h124v-622q0 -35 37 -35q17 0 28 6l14 -94q-27 -12 -64 -12zM107 0v404l-89 16v80h89v96q0 84 48 125t151 41q51 0 87 -14l-15 -99q-27 9 -63 9q-84 0 -84 -74v-84h139v-83l-139 -17v-400h-124z" />
    <glyph glyph-name="ffi" unicode="ffi" horiz-adv-x="991" 
d="M861 573q-32 0 -54 22t-22 54q0 31 22 53t54 22q31 0 53 -22t22 -53q0 -32 -21.5 -54t-53.5 -22zM799 0v500h124v-500h-124zM107 0v409l-89 14v77h89v74q0 84 47.5 125t148.5 41q52 0 87 -14l-15 -99q-25 9 -62 9q-82 0 -82 -74v-62h220v96q0 84 48 125t151 41
q51 0 87 -14l-15 -99q-27 9 -62 9q-85 0 -85 -74v-84h139v-81l-139 -12v-407h-124v405h-220v-405h-124z" />
    <glyph glyph-name="ffl" unicode="ffl" horiz-adv-x="1006" 
d="M932 -7q-138 0 -138 129v628h123v-622q0 -35 38 -35q18 0 27 6l14 -94q-26 -12 -64 -12zM107 0v409l-89 14v77h89v74q0 84 46.5 125t146.5 41q48 0 83 -14l-15 -99q-25 9 -59 9q-78 0 -78 -74v-62h220v96q0 84 48 125t151 41q51 0 87 -14l-15 -99q-27 9 -62 9
q-85 0 -85 -74v-84h139v-81l-139 -12v-407h-124v405h-220v-405h-124z" />
    <glyph glyph-name="f_b" unicode="fb" horiz-adv-x="943" 
d="M645 -12q-114 0 -197 47v715h119v-303q48 65 136 65q93 0 146 -66.5t53 -179.5q0 -135 -67 -206.5t-190 -71.5zM107 0v404l-89 16v80h89v96q0 84 48 125t151 41q51 0 87 -14l-15 -99q-27 9 -63 9q-84 0 -84 -74v-84h139v-83l-139 -17v-400h-124zM655 90q64 0 94 47.5
t30 123.5q0 67 -25 107.5t-76 40.5q-46 0 -76 -38.5t-30 -114.5v-149q30 -17 83 -17z" />
    <glyph glyph-name="f_f_b" unicode="ffb" horiz-adv-x="1285" 
d="M987 -12q-114 0 -197 47v715h119v-303q48 65 136 65q93 0 146 -66.5t53 -179.5q0 -135 -67 -206.5t-190 -71.5zM997 90q64 0 94 47.5t30 123.5q0 67 -25 107.5t-76 40.5q-46 0 -76 -38.5t-30 -114.5v-149q30 -17 83 -17zM107 0v409l-89 14v77h89v72q0 168 199 168
q54 0 90 -14l-15 -99q-27 9 -65 9q-85 0 -85 -76v-60h215v96q0 166 207 166q51 0 86 -14l-14 -99q-27 9 -63 9q-39 0 -65.5 -17.5t-26.5 -56.5v-84h139v-81l-139 -12v-407h-124v405h-215v-405h-124z" />
    <glyph glyph-name="f_h" unicode="fh" horiz-adv-x="939" 
d="M107 0v404l-89 16v80h89v96q0 84 48 125t151 41q51 0 87 -14l-15 -99q-27 9 -63 9q-84 0 -84 -74v-84h139v-83l-139 -17v-400h-124zM572 306v-306h-124v750h119v-306q51 68 138 68q89 0 133 -50.5t44 -138.5v-323h-124v306q0 53 -25 78.5t-67 25.5q-39 0 -66.5 -26
t-27.5 -78z" />
    <glyph glyph-name="f_f_h" unicode="ffh" horiz-adv-x="1286" 
d="M919 306v-306h-124v750h119v-306q51 68 138 68q89 0 133 -50.5t44 -138.5v-323h-124v306q0 53 -25 78.5t-67 25.5q-39 0 -66.5 -26t-27.5 -78zM107 0v409l-89 14v77h89v74q0 84 47.5 125t148.5 41q52 0 87 -14l-15 -99q-25 9 -62 9q-82 0 -82 -74v-62h220v96
q0 84 49.5 125t153.5 41q51 0 87 -14l-15 -99q-27 9 -62 9q-89 0 -89 -74v-84h139v-81l-139 -12v-407h-124v405h-220v-405h-124z" />
    <glyph glyph-name="f_k" unicode="fk" horiz-adv-x="924" 
d="M107 0v404l-89 16v80h89v96q0 84 48 125t151 41q51 0 87 -14l-15 -99q-27 9 -63 9q-84 0 -84 -74v-84h139v-83l-139 -17v-400h-124zM560 29q-20 -29 -58 -29h-54v750h119v-557l195 307h126l-152 -218l166 -282h-122l-110 187z" />
    <glyph glyph-name="f_f_k" unicode="ffk" horiz-adv-x="1271" 
d="M107 0v409l-89 14v77h89v74q0 84 47.5 125t148.5 41q52 0 87 -14l-15 -99q-25 9 -62 9q-82 0 -82 -74v-62h220v96q0 84 49.5 125t153.5 41q51 0 87 -14l-15 -99q-27 9 -62 9q-89 0 -89 -74v-84h139v-81l-139 -12v-407h-124v405h-220v-405h-124zM907 29q-20 -29 -58 -29
h-53v750h118v-557l195 307h126l-152 -218l166 -282h-122l-110 187z" />
    <glyph glyph-name="f_j" unicode="fj" horiz-adv-x="645" 
d="M515 569q-31 0 -53 21.5t-22 53.5t22 53.5t53 21.5t53 -21.5t22 -53.5t-22 -53.5t-53 -21.5zM107 0v404l-89 16v80h89v96q0 84 48 125t151 41q51 0 87 -14l-15 -99q-27 9 -63 9q-84 0 -84 -74v-84h139v-83l-139 -17v-400h-124zM402 -252q-45 0 -78 12l15 96q18 -8 40 -8
q39 0 56.5 21.5t17.5 67.5v563h124v-573q0 -92 -43.5 -135.5t-131.5 -43.5z" />
    <glyph glyph-name="f_f_j" unicode="ffj" horiz-adv-x="991" 
d="M861 573q-32 0 -54 22t-22 54q0 31 22 53t54 22q31 0 53 -22t22 -53q0 -32 -21.5 -54t-53.5 -22zM107 0v409l-89 14v77h89v74q0 84 47.5 125t148.5 41q52 0 87 -14l-15 -99q-25 9 -62 9q-82 0 -82 -74v-62h220v96q0 84 48 125t151 41q51 0 87 -14l-15 -99q-27 9 -62 9
q-85 0 -85 -74v-84h139v-81l-139 -12v-407h-124v405h-220v-405h-124zM747 -252q-46 0 -77 12l14 96q18 -8 41 -8q39 0 56.5 21.5t17.5 67.5v563h124v-573q0 -179 -176 -179z" />
    <glyph glyph-name="f_idieresis" unicode="f&#xef;" horiz-adv-x="649" 
d="M606 574q-27 0 -45 19t-18 48q0 28 18 47.5t45 19.5t46 -19.5t19 -47.5t-19 -47.5t-46 -19.5zM442 574q-27 0 -45.5 19.5t-18.5 47.5t18.5 47.5t45.5 19.5t45.5 -19.5t18.5 -47.5t-18.5 -47.5t-45.5 -19.5zM107 0v404l-89 16v80h89v100q0 82 44.5 122t140.5 40
q42 0 75 -12l-23 -100q-22 8 -43 8q-70 0 -70 -69v-89h139v-83l-139 -17v-400h-124zM457 0v500h124v-500h-124z" />
    <glyph glyph-name=".notdef" horiz-adv-x="600" 
 />
    <glyph glyph-name=".null" horiz-adv-x="0" 
 />
    <glyph glyph-name="nonmarkingreturn" horiz-adv-x="333" 
 />
    <glyph glyph-name="space" unicode=" " horiz-adv-x="238" 
 />
    <glyph glyph-name="exclam" unicode="!" horiz-adv-x="259" 
d="M94 215l-31 485h137l-31 -485h-75zM132 -12q-34 0 -56.5 23t-22.5 55q0 34 22.5 56.5t56.5 22.5q32 0 55 -22.5t23 -56.5q0 -32 -23 -55t-55 -23z" />
    <glyph glyph-name="quotedbl" unicode="&#x22;" horiz-adv-x="357" 
d="M231 472l-27 207v21h118v-21l-30 -207h-61zM62 472l-27 207v21h118v-21l-30 -207h-61z" />
    <glyph glyph-name="numbersign" unicode="#" horiz-adv-x="631" 
d="M366 292l8 116h-103l-8 -116h103zM346 0l14 198h-104l-13 -198h-105l14 198h-78v94h84l8 116h-92v94h99l13 198h105l-14 -198h104l13 198h105l-14 -198h78v-94h-84l-8 -116h92v-94h-99l-13 -198h-105z" />
    <glyph glyph-name="dollar" unicode="$" horiz-adv-x="569" 
d="M163 504q0 -60 87 -85v173q-87 -20 -87 -88zM410 197q0 34 -19 55.5t-60 36.5v-183q79 24 79 91zM331 -117h-81v105h-2q-115 0 -196 43l36 102q76 -37 158 -37h4v214l-24 6q-183 44 -183 182q0 75 54.5 131.5t152.5 70.5v89h81v-84q94 -3 167 -33l-30 -103
q-78 27 -137 29v-197l2 -1q197 -45 197 -191q0 -77 -50 -136t-149 -78v-112z" />
    <glyph glyph-name="percent" unicode="%" horiz-adv-x="755" 
d="M205 0h-124l411 601q-30 -7 -54 -7q-46 0 -102 13q9 -24 9 -52q0 -62 -43.5 -105.5t-105.5 -43.5t-106 43.5t-44 105.5t44 106t106 44h2q40 0 116.5 -15.5t132.5 -15.5q93 0 205 29v-22q0 -27 -17 -53zM196 499q23 0 38.5 16t15.5 40t-15.5 40t-38.5 16t-39 -16t-16 -40
t16 -40t39 -16zM559 -10q-62 0 -106 44t-44 106q0 61 44 105t106 44t106 -43.5t44 -105.5t-44 -106t-106 -44zM559 84q23 0 38.5 16t15.5 40t-15.5 40t-38.5 16t-39 -16t-16 -40t16 -40t39 -16z" />
    <glyph glyph-name="ampersand" unicode="&#x26;" horiz-adv-x="725" 
d="M633 -9q-69 26 -139 67q-94 -66 -211 -66q-114 0 -183.5 57t-69.5 143q0 131 156 200q-18 51 -18 106q0 93 53.5 150t139.5 57q73 0 120 -42t47 -104q0 -135 -194 -208q51 -84 157 -160q66 74 100 187l92 -38q-36 -119 -105 -204q53 -30 100 -48zM288 503q0 -38 10 -71
q114 45 114 123q0 26 -14.5 41.5t-36.5 15.5q-33 0 -53 -29.5t-20 -79.5zM286 96q58 0 112 26q-115 87 -173 185q-75 -44 -75 -109q0 -46 39.5 -74t96.5 -28z" />
    <glyph glyph-name="quotesingle" unicode="'" horiz-adv-x="189" 
d="M62 472l-27 207v21h119v-21l-30 -207h-62z" />
    <glyph glyph-name="parenleft" unicode="(" horiz-adv-x="349" 
d="M248 -171q-66 71 -119 203.5t-53 293.5t52.5 293.5t119.5 204.5h113q-66 -81 -115 -213t-49 -285q0 -152 49 -284t115 -213h-113z" />
    <glyph glyph-name="parenright" unicode=")" horiz-adv-x="349" 
d="M-12 -171q66 81 115 213t49 284q0 153 -48.5 284.5t-115.5 213.5h112q67 -72 120 -204t53 -294q0 -161 -53 -294t-120 -203h-112z" />
    <glyph glyph-name="asterisk" unicode="*" horiz-adv-x="359" 
d="M292 440l-88 56l5 -105h-62l8 106l-90 -57l-29 51l97 47l-95 49l27 49l91 -58l-6 104h62l-7 -103l92 55l26 -48l-94 -48l94 -48z" />
    <glyph glyph-name="plus" unicode="+" horiz-adv-x="590" 
d="M511 253h-159v-159h-113v159h-160v113h160v159h113v-159h159v-113z" />
    <glyph glyph-name="comma" unicode="," horiz-adv-x="277" 
d="M69 -169l-22 38q64 46 64 123q0 48 -36 70q0 31 20 53t50 22q37 0 57 -28t20 -70q0 -74 -50 -132.5t-103 -75.5z" />
    <glyph glyph-name="hyphen" unicode="-" horiz-adv-x="478" 
d="M79 210v112h320v-112h-320z" />
    <glyph glyph-name="period" unicode="." horiz-adv-x="280" 
d="M146 -12q-34 0 -57 23t-23 57q0 33 23 56.5t57 23.5t57 -23.5t23 -56.5q0 -34 -23 -57t-57 -23z" />
    <glyph glyph-name="slash" unicode="/" horiz-adv-x="584" 
d="M100 -117l259 906h125l-259 -906h-125z" />
    <glyph glyph-name="zero" unicode="0" horiz-adv-x="580" 
d="M289 -12q-126 0 -191 103t-65 259q0 151 65 251.5t191 100.5q86 0 146 -50t86 -127.5t26 -174.5q0 -74 -15.5 -138t-46 -115t-81 -80t-115.5 -29zM289 100q63 0 98 67.5t35 182.5q0 110 -35 175t-98 65t-97 -64.5t-34 -175.5q0 -116 34 -183t97 -67z" />
    <glyph glyph-name="one" unicode="1" horiz-adv-x="580" 
d="M524 0h-466v113h171v447l-162 -68v120l160 70q48 21 92 21h34v-590h171v-113z" />
    <glyph glyph-name="two" unicode="2" horiz-adv-x="580" 
d="M62 0v112q0 37 12.5 68t40 57t48 40.5t59.5 38.5l68 42q100 61 100 134q0 46 -36.5 76t-102.5 30q-77 0 -155 -38l-32 100q100 45 198 45q121 0 189 -55.5t68 -141.5q0 -75 -43.5 -128.5t-117.5 -98.5l-65 -40q-93 -56 -93 -106v-21h320v-114h-458z" />
    <glyph glyph-name="three" unicode="3" horiz-adv-x="580" 
d="M248 -12q-108 0 -190 34l38 104q66 -27 146 -27q78 0 112 31t34 78q0 103 -140 103h-81v102h79q57 0 87.5 27t30.5 68q0 91 -125 91q-73 0 -146 -29l-28 100q34 14 88 24.5t100 10.5q119 0 178.5 -49t59.5 -127q0 -51 -28.5 -95t-73.5 -66q56 -14 90.5 -58.5t34.5 -103.5
q0 -98 -65.5 -158t-200.5 -60z" />
    <glyph glyph-name="four" unicode="4" horiz-adv-x="580" 
d="M348 271v293l-187 -293h187zM552 165h-84v-165h-120v165h-311v99l285 436h146v-429h84v-106z" />
    <glyph glyph-name="five" unicode="5" horiz-adv-x="580" 
d="M224 -12q-105 0 -171 34l40 107q62 -29 135 -29q79 0 127 38t48 107q0 55 -39 88t-104 33q-64 0 -109 -24l-66 21v337h413v-112h-290v-131q44 13 91 13q96 0 161.5 -56t65.5 -162q0 -122 -81 -193t-221 -71z" />
    <glyph glyph-name="six" unicode="6" horiz-adv-x="580" 
d="M545 243q0 -108 -66.5 -181.5t-172.5 -73.5q-117 0 -189 90.5t-72 241.5v25q0 78 18 140.5t47.5 102.5t69.5 67t82 38.5t87 11.5q91 0 150 -35l-24 -107q-58 30 -129 29q-159 -2 -174 -209q64 80 162 80q100 0 155.5 -64.5t55.5 -155.5zM303 99q52 0 84 38.5t32 94.5
q0 50 -30 87.5t-87 37.5q-42 0 -78 -24.5t-54 -61.5q3 -67 38 -119.5t95 -52.5z" />
    <glyph glyph-name="seven" unicode="7" horiz-adv-x="580" 
d="M281 0h-138q39 316 261 588h-351v112h477l6 -84q-87 -113 -161.5 -274.5t-93.5 -341.5z" />
    <glyph glyph-name="eight" unicode="8" horiz-adv-x="580" 
d="M288 -12q-113 0 -181.5 54t-68.5 145q0 59 33 105t96 69q-101 54 -101 158q0 80 62.5 133t161.5 53q100 0 162.5 -51.5t62.5 -130.5q0 -102 -95 -145q122 -57 122 -182q0 -95 -69.5 -151.5t-184.5 -56.5zM296 416l27 -7q67 34 67 99q0 45 -28 71.5t-73 26.5
q-43 0 -71 -25.5t-28 -67.5q0 -71 106 -97zM289 90q59 0 96 31t37 80q0 76 -109 108l-47 14q-51 -16 -78.5 -48t-27.5 -73q0 -49 36.5 -80.5t92.5 -31.5z" />
    <glyph glyph-name="nine" unicode="9" horiz-adv-x="580" 
d="M290 335q72 0 121 45v30q0 78 -32.5 130.5t-97.5 52.5q-55 0 -88 -36t-33 -92q0 -54 33.5 -92t96.5 -38zM251 -12q-59 0 -105.5 14.5t-69.5 34.5l27 102q60 -41 150 -41q69 0 109 42t47 141q-60 -51 -146 -51q-109 0 -169 65.5t-60 165.5q0 105 69 174.5t180 69.5
q118 0 185.5 -83.5t67.5 -227.5v-60q0 -97 -22.5 -166.5t-63.5 -107.5t-89.5 -55t-109.5 -17z" />
    <glyph glyph-name="colon" unicode=":" horiz-adv-x="297" 
d="M149 299q-34 0 -56.5 22.5t-22.5 55.5t22.5 56t56.5 23q32 0 55 -23t23 -56t-23 -55.5t-55 -22.5zM149 40q-34 0 -56.5 22t-22.5 56q0 33 22.5 55.5t56.5 22.5q32 0 55 -22.5t23 -55.5t-22.5 -55.5t-55.5 -22.5z" />
    <glyph glyph-name="semicolon" unicode=";" horiz-adv-x="297" 
d="M149 299q-34 0 -56.5 22.5t-22.5 55.5t22.5 56t56.5 23q32 0 55 -23t23 -56t-23 -55.5t-55 -22.5zM73 -141l-22 35q30 19 48 48.5t18 62.5q0 21 -11.5 38.5t-26.5 25.5q0 27 21 47.5t51 20.5q38 0 58.5 -25.5t20.5 -63.5q0 -67 -51 -120.5t-106 -68.5z" />
    <glyph glyph-name="less" unicode="&#x3c;" horiz-adv-x="599" 
d="M517 104l-437 169v99l437 168v-108l-289 -108l289 -109v-111z" />
    <glyph glyph-name="equal" unicode="=" horiz-adv-x="590" 
d="M79 343v107h432v-107h-432zM79 154v107h432v-107h-432z" />
    <glyph glyph-name="greater" unicode="&#x3e;" horiz-adv-x="599" 
d="M80 104v111l289 109l-289 108v108l437 -168v-99z" />
    <glyph glyph-name="question" unicode="?" horiz-adv-x="444" 
d="M196 215h-85l-8 159q52 0 94.5 10t75 39.5t32.5 75.5q0 45 -29.5 73.5t-91.5 28.5t-124 -35l-26 104q72 35 164 35q112 0 170.5 -54.5t58.5 -137.5q0 -98 -63.5 -151.5t-160.5 -61.5zM155 -12q-33 0 -55.5 23t-22.5 55q0 34 22.5 56.5t55.5 22.5t56 -22.5t23 -56.5
q0 -32 -23 -55t-56 -23z" />
    <glyph glyph-name="at" unicode="@" horiz-adv-x="1016" 
d="M448 -202q-173 0 -282 118.5t-109 310.5q0 212 131 345t330 133q191 0 316 -120.5t125 -314.5q0 -139 -57.5 -210t-137.5 -71q-68 0 -108 46t-41 117v3q-19 -80 -66 -123t-108 -43q-80 0 -131.5 62t-51.5 170q0 126 75 208.5t196 82.5q67 0 121 -29l47 18l17 -5v-341
q0 -40 18.5 -61.5t49.5 -21.5q39 0 67.5 48.5t28.5 149.5q0 164 -101.5 263.5t-258.5 99.5q-167 0 -273.5 -111t-106.5 -295q0 -161 86 -258t224 -97q65 0 116 19l20 -71q-64 -22 -136 -22zM467 97q48 0 88 71.5t40 208.5v33q-33 14 -64 14q-63 0 -104 -54.5t-41 -143.5
q0 -59 22.5 -94t58.5 -35z" />
    <glyph glyph-name="A" unicode="A" horiz-adv-x="637" 
d="M397 291l-79 270l-79 -270h158zM481 0l-55 191h-216l-56 -191h-132l231 702h80q27 0 41.5 -10.5t22.5 -37.5l218 -654h-134z" />
    <glyph glyph-name="B" unicode="B" horiz-adv-x="614" 
d="M276 -12q-119 0 -218 32v680h242q122 0 181 -49.5t59 -128.5q0 -53 -28 -93.5t-68 -57.5q57 -14 94 -60.5t37 -106.5q0 -110 -80.5 -163t-218.5 -53zM308 594h-129v-181h132q52 0 79 27t27 66q0 36 -24.5 62t-84.5 26zM282 96q78 0 120.5 28.5t42.5 82.5q0 48 -35.5 77
t-97.5 29h-133v-205q62 -12 103 -12z" />
    <glyph glyph-name="C" unicode="C" horiz-adv-x="580" 
d="M372 -12q-154 0 -238.5 100t-84.5 262q0 158 85 256.5t237 98.5q99 0 171 -43l-33 -105q-61 33 -127 33q-98 0 -152.5 -65t-54.5 -175q0 -114 54.5 -180.5t153.5 -66.5q65 0 129 34l32 -106q-71 -43 -172 -43z" />
    <glyph glyph-name="D" unicode="D" horiz-adv-x="649" 
d="M249 -12q-98 0 -191 31v681h226q48 0 92.5 -10.5t86 -35.5t72.5 -61.5t49.5 -92t18.5 -124.5q0 -189 -99 -288.5t-255 -99.5zM254 104q107 0 164 67.5t57 195.5q0 104 -50 162t-138 58h-106v-475q38 -8 73 -8z" />
    <glyph glyph-name="E" unicode="E" horiz-adv-x="564" 
d="M58 0v700h460v-113h-337v-168h306v-111h-306v-195h337v-113h-460z" />
    <glyph glyph-name="F" unicode="F" horiz-adv-x="522" 
d="M58 0v700h453v-113h-330v-174h286v-111h-286v-302h-123z" />
    <glyph glyph-name="G" unicode="G" horiz-adv-x="639" 
d="M591 46q-98 -58 -217 -58q-154 0 -239.5 100t-85.5 260q0 159 91 258t253 99q107 0 191 -50l-34 -104q-68 39 -147 39q-107 0 -167.5 -65.5t-60.5 -176.5t55.5 -178t154.5 -67q46 0 86 14v266h120v-337z" />
    <glyph glyph-name="H" unicode="H" horiz-adv-x="648" 
d="M58 0v700h123v-280h286v280h123v-700h-123v307h-286v-307h-123z" />
    <glyph glyph-name="I" unicode="I" horiz-adv-x="268" 
d="M72 0v700h124v-700h-124z" />
    <glyph glyph-name="J" unicode="J" horiz-adv-x="472" 
d="M186 -12q-110 0 -179 72l91 79q36 -39 88 -39q47 0 78.5 33.5t31.5 113.5v453h123v-461q0 -56 -14.5 -100.5t-37.5 -72t-54 -46t-62.5 -25.5t-64.5 -7z" />
    <glyph glyph-name="K" unicode="K" horiz-adv-x="605" 
d="M445 0l-265 333v-333h-122v700h122v-295l247 295h144l-275 -324l298 -376h-149z" />
    <glyph glyph-name="L" unicode="L" horiz-adv-x="488" 
d="M58 0v700h123v-587h284v-113h-407z" />
    <glyph glyph-name="M" unicode="M" horiz-adv-x="889" 
d="M372 181l-125 360l-102 -541h-123l139 701h112q17 0 26.5 -7.5t16.5 -28.5l131 -375l153 411h106q19 0 29 -9t14 -32l118 -660h-119l-95 544l-147 -399h-92q-30 0 -42 36z" />
    <glyph glyph-name="N" unicode="N" horiz-adv-x="656" 
d="M467 37l-292 447l3 -484h-120v701h68q39 0 59 -31l296 -453l-3 483h120v-700h-63q-45 0 -68 37z" />
    <glyph glyph-name="O" unicode="O" horiz-adv-x="678" 
d="M339 -12q-97 0 -164.5 51.5t-97 131t-29.5 179.5q0 153 74 254t217 101q74 0 131 -28.5t91 -78.5t51.5 -112.5t17.5 -135.5q0 -100 -29.5 -179.5t-97 -131t-164.5 -51.5zM339 100q79 0 122.5 67.5t43.5 182.5q0 111 -43.5 177t-122.5 66q-80 0 -122.5 -65.5t-42.5 -177.5
q0 -116 42.5 -183t122.5 -67z" />
    <glyph glyph-name="P" unicode="P" horiz-adv-x="584" 
d="M263 301q49 0 84 15t52 40.5t24 51t7 53.5q0 51 -28.5 88.5t-97.5 37.5h-123v-273q39 -13 82 -13zM271 191q-47 0 -90 12v-203h-123v700h240q71 0 124 -19.5t83 -53.5t44 -75.5t14 -89.5q0 -115 -74.5 -193t-217.5 -78z" />
    <glyph glyph-name="Q" unicode="Q" horiz-adv-x="678" 
d="M607 -88q-145 1 -270.5 40t-191.5 112q-97 100 -97 286q0 153 74 254t217 101q74 0 131 -28.5t91 -78.5t51.5 -112.5t17.5 -135.5q0 -129 -58.5 -219.5t-176.5 -108.5q89 -19 223 -19zM339 100q79 0 122.5 67.5t43.5 182.5q0 111 -43.5 177t-122.5 66q-80 0 -122.5 -65.5
t-42.5 -177.5q0 -116 42.5 -183t122.5 -67z" />
    <glyph glyph-name="R" unicode="R" horiz-adv-x="609" 
d="M263 313q49 0 84 14.5t52 39t24 49t7 52.5q0 48 -28.5 83.5t-97.5 35.5h-123v-262q40 -12 82 -12zM264 202q-44 0 -83 12v-214h-123v700h240q71 0 124 -19t83 -52t44 -73t14 -87q0 -74 -31.5 -134.5t-96.5 -94.5l150 -240h-134l-127 206q-38 -4 -60 -4z" />
    <glyph glyph-name="S" unicode="S" horiz-adv-x="563" 
d="M245 -11q-119 0 -203 48l38 104q79 -42 164 -42q79 0 117.5 26.5t38.5 71.5q0 38 -26 61t-86 39l-66 18q-89 24 -132 69t-43 116q0 88 70 146t192 58q104 0 190 -37l-32 -105q-79 33 -154 33q-74 0 -109 -25.5t-35 -66.5q0 -62 101 -86l61 -16q191 -49 191 -193
q0 -94 -70.5 -156.5t-206.5 -62.5z" />
    <glyph glyph-name="T" unicode="T" horiz-adv-x="555" 
d="M216 0v583l-191 19v98h506v-98l-192 -19v-583h-123z" />
    <glyph glyph-name="U" unicode="U" horiz-adv-x="652" 
d="M326 -12q-38 0 -74.5 8t-73 28t-64 50.5t-44.5 80t-17 112.5v433h123v-425q0 -95 43 -135t107 -40t107 40t43 135v425h123v-433q0 -63 -17 -112.5t-44.5 -80t-64 -50.5t-73 -28t-74.5 -8z" />
    <glyph glyph-name="V" unicode="V" horiz-adv-x="640" 
d="M385 -6h-82q-46 0 -61 46l-218 660h72q59 0 75 -54l149 -497l165 551h131z" />
    <glyph glyph-name="W" unicode="W" horiz-adv-x="988" 
d="M618 38l-121 525l-137 -567h-117q-24 0 -35.5 9.5t-15.5 31.5l-153 663h83q43 0 52 -44l113 -533l135 573h101q31 0 44.5 -11.5t19.5 -39.5l114 -517l123 572h125l-163 -704h-117q-24 0 -35 9.5t-16 32.5z" />
    <glyph glyph-name="X" unicode="X" horiz-adv-x="616" 
d="M436 32l-128 221l-148 -253h-136l216 356l-205 344h95q36 0 57 -33l121 -206l139 239h133l-204 -343l215 -357h-101q-37 0 -54 32z" />
    <glyph glyph-name="Y" unicode="Y" horiz-adv-x="601" 
d="M235 0v247l-220 453h93q47 0 66 -46l124 -284l148 330h140l-226 -453v-247h-125z" />
    <glyph glyph-name="Z" unicode="Z" horiz-adv-x="561" 
d="M527 0h-493v23q0 36 4.5 54.5t19.5 41.5l302 468h-300v113h452v-30q0 -51 -18 -79l-305 -478h338v-113z" />
    <glyph glyph-name="bracketleft" unicode="[" horiz-adv-x="328" 
d="M280 -90v-94h-196v1039h196v-94h-72v-851h72z" />
    <glyph glyph-name="backslash" unicode="\" horiz-adv-x="584" 
d="M359 -117l-259 906h125l259 -906h-125z" />
    <glyph glyph-name="bracketright" unicode="]" horiz-adv-x="328" 
d="M244 -184h-196v94h72v851h-72v94h196v-1039z" />
    <glyph glyph-name="underscore" unicode="_" horiz-adv-x="590" 
d="M79 -113v113h432v-113h-432z" />
    <glyph glyph-name="a" unicode="a" horiz-adv-x="515" 
d="M253 78q61 0 92 40q0 52 -28 85t-73 33q-36 0 -60.5 -22t-24.5 -57t26 -57t68 -22zM360 0l-10 56q-16 -28 -53.5 -48t-87.5 -20q-77 0 -124.5 46t-47.5 115q0 78 51.5 124.5t128.5 46.5q88 0 128 -60v32q0 55 -26 85.5t-91 30.5q-64 0 -128 -35l-26 104q70 35 167 35
q217 0 217 -204v-308h-98z" />
    <glyph glyph-name="b" unicode="b" horiz-adv-x="556" 
d="M259 -12q-114 0 -197 47v715h119v-303q48 65 136 65q93 0 145.5 -66.5t52.5 -179.5q0 -134 -66.5 -206t-189.5 -72zM269 90q63 0 93 47.5t30 123.5q0 67 -25 107.5t-76 40.5q-45 0 -75 -38.5t-30 -114.5v-149q28 -17 83 -17z" />
    <glyph glyph-name="c" unicode="c" horiz-adv-x="446" 
d="M292 -12q-120 0 -185.5 72.5t-65.5 189.5t65.5 189.5t185.5 72.5q74 0 126 -26l-25 -101q-47 20 -95 20q-64 0 -99 -42t-35 -113t35 -113t99 -42q49 0 96 21l24 -101q-56 -27 -126 -27z" />
    <glyph glyph-name="d" unicode="d" horiz-adv-x="556" 
d="M273 90q40 0 68.5 27.5t28.5 78.5v165q-11 18 -36 33t-57 15q-54 0 -83.5 -44.5t-29.5 -115.5q0 -70 27 -114.5t82 -44.5zM378 65q-21 -34 -59.5 -55.5t-83.5 -21.5q-89 0 -141.5 68.5t-52.5 189.5q0 120 58 193t156 73q73 0 120 -45v283h119v-750h-106z" />
    <glyph glyph-name="e" unicode="e" horiz-adv-x="518" 
d="M266 411q-81 0 -97 -106h186q-1 44 -23 75t-66 31zM471 30q-81 -42 -178 -42q-124 0 -188 74.5t-64 187.5t57 187.5t168 74.5q109 0 159 -68.5t50 -183.5v-34h-309q4 -67 36 -102t100 -35q81 0 138 32z" />
    <glyph glyph-name="f" unicode="f" horiz-adv-x="392" 
d="M107 0v404l-89 16v80h89v96q0 84 48 125t151 41q51 0 87 -14l-15 -99q-27 9 -63 9q-84 0 -84 -74v-84h139v-83l-139 -17v-400h-124z" />
    <glyph glyph-name="g" unicode="g" horiz-adv-x="530" 
d="M236 -260q-99 -1 -159 37.5t-60 110.5q0 47 31 83t86 55q-29 21 -29 54q0 63 89 88q-70 8 -114.5 52t-44.5 111q0 77 59.5 129t153.5 52q56 0 100 -19l149 32l18 -81l-38 -9l-50 -3q34 -45 34 -101q0 -141 -178 -184l-26 -7q-28 -7 -28 -26t28 -24l74 -12
q165 -28 165 -145q0 -91 -76 -141.5t-184 -51.5zM250 234q42 0 67.5 25t25.5 67q0 38 -25.5 65t-70.5 27q-43 0 -69 -25.5t-26 -66.5q0 -40 26 -66t72 -26zM254 -163q48 0 82.5 21.5t34.5 62.5q0 57 -82 67l-78 10l-11 2q-30 -11 -48 -33.5t-18 -49.5q0 -39 33.5 -59.5
t86.5 -20.5z" />
    <glyph glyph-name="h" unicode="h" horiz-adv-x="552" 
d="M186 306v-306h-124v750h119v-306q22 31 59 49.5t79 18.5q88 0 132.5 -51t44.5 -138v-323h-124v306q0 53 -25 78.5t-67 25.5q-39 0 -66.5 -26t-27.5 -78z" />
    <glyph glyph-name="i" unicode="i" horiz-adv-x="260" 
d="M130 569q-32 0 -53.5 21.5t-21.5 53.5t21.5 53.5t53.5 21.5t53.5 -21.5t21.5 -53.5t-21.5 -53.5t-53.5 -21.5zM68 0v500h124v-500h-124z" />
    <glyph glyph-name="j" unicode="j" horiz-adv-x="259" 
d="M129 569q-32 0 -53.5 21.5t-21.5 53.5t21.5 53.5t53.5 21.5q31 0 53 -21.5t22 -53.5t-22 -53.5t-53 -21.5zM16 -252q-46 0 -78 12l14 96q18 -8 41 -8q39 0 56.5 21.5t17.5 67.5v563h124v-573q0 -179 -175 -179z" />
    <glyph glyph-name="k" unicode="k" horiz-adv-x="537" 
d="M173 29q-20 -29 -58 -29h-53v750h118v-557l195 307h126l-151 -218l166 -282h-123l-110 187z" />
    <glyph glyph-name="l" unicode="l" horiz-adv-x="278" 
d="M205 -7q-139 0 -139 129v628h123v-622q0 -35 38 -35q18 0 27 6l14 -94q-26 -12 -63 -12z" />
    <glyph glyph-name="m" unicode="m" horiz-adv-x="859" 
d="M186 306v-306h-124v500h68q23 0 30 -21l9 -40q23 33 62.5 53t85.5 20q116 0 156 -84q20 38 62.5 61t90.5 23q88 0 132 -50.5t44 -138.5v-323h-124v306q0 53 -24.5 78.5t-65.5 25.5q-38 0 -65 -26t-27 -78v-306h-124v306q0 53 -25 78.5t-67 25.5q-39 0 -66.5 -26
t-27.5 -78z" />
    <glyph glyph-name="n" unicode="n" horiz-adv-x="552" 
d="M186 306v-306h-124v500h68q23 0 30 -21l9 -40q23 33 62.5 53t85.5 20q90 0 134.5 -50.5t44.5 -138.5v-323h-124v306q0 53 -25 78.5t-67 25.5q-39 0 -66.5 -26t-27.5 -78z" />
    <glyph glyph-name="o" unicode="o" horiz-adv-x="532" 
d="M266 -12q-111 0 -168 74.5t-57 187.5t57 187.5t168 74.5t168 -74.5t57 -187.5t-57 -187.5t-168 -74.5zM266 89q51 0 76 42.5t25 118.5t-25 118.5t-76 42.5q-101 0 -101 -161t101 -161z" />
    <glyph glyph-name="p" unicode="p" horiz-adv-x="556" 
d="M275 90q60 0 88.5 47t28.5 123q0 67 -25 108t-76 41q-45 0 -75 -38.5t-30 -114.5v-139q42 -27 89 -27zM186 21v-271h-124v750h68q24 0 29 -21l11 -49q21 38 60.5 60t86.5 22q93 0 145.5 -67t52.5 -181q0 -129 -56.5 -202.5t-159.5 -73.5q-69 0 -113 33z" />
    <glyph glyph-name="q" unicode="q" horiz-adv-x="556" 
d="M494 -250h-124v300q-18 -26 -55.5 -44t-79.5 -18q-89 0 -141.5 68.5t-52.5 189.5q0 120 58 193t156 73q80 0 126 -51l14 39h99v-750zM273 90q40 0 68.5 27.5t28.5 78.5v165q-11 18 -36 33t-57 15q-54 0 -83.5 -44.5t-29.5 -115.5q0 -70 27 -114.5t82 -44.5z" />
    <glyph glyph-name="r" unicode="r" horiz-adv-x="361" 
d="M186 274v-274h-124v500h68q23 0 30 -21l12 -52q18 39 54 62t82 23q25 0 46 -8l-27 -119q-22 10 -46 10q-41 0 -68 -30t-27 -91z" />
    <glyph glyph-name="s" unicode="s" horiz-adv-x="472" 
d="M214 -12q-93 0 -173 37l31 96q81 -31 140 -31q96 0 96 54q0 43 -69 58l-22 4q-87 16 -128.5 52t-41.5 97q0 60 52.5 108.5t152.5 48.5q93 0 158 -29l-26 -98q-75 25 -123 25q-93 0 -93 -50q0 -22 16.5 -33.5t51.5 -18.5l22 -5q87 -17 129 -53t42 -96q0 -71 -54 -118.5
t-161 -47.5z" />
    <glyph glyph-name="t" unicode="t" horiz-adv-x="392" 
d="M279 -8q-88 0 -131.5 43.5t-43.5 135.5v232l-89 17v80h89v145h124v-145h136v-87l-136 -16v-216q0 -46 17.5 -67.5t56.5 -21.5q23 0 45 10l15 -95q-34 -15 -83 -15z" />
    <glyph glyph-name="u" unicode="u" horiz-adv-x="552" 
d="M395 0l-10 71q-22 -36 -63 -59.5t-89 -23.5q-87 0 -130 50.5t-43 138.5v323h124v-306q0 -53 25 -78.5t66 -25.5q39 0 67 26t28 78v306h124v-500h-99z" />
    <glyph glyph-name="v" unicode="v" horiz-adv-x="512" 
d="M307 -9h-64q-22 0 -33 8t-19 30l-176 471h90q40 0 52 -36l99 -312l111 348h130z" />
    <glyph glyph-name="w" unicode="w" horiz-adv-x="716" 
d="M568 -10h-65q-24 0 -36 9.5t-18 33.5l-87 338l-99 -380h-66q-24 0 -35.5 8.5t-18.5 32.5l-128 468h89q33 0 40 -34l68 -316l94 350h80q32 0 40 -29l86 -325l79 354h110z" />
    <glyph glyph-name="x" unicode="x" horiz-adv-x="512" 
d="M342 29l-84 135l-105 -164h-139l174 256l-164 244h103q34 0 51 -26l78 -124l95 150h138l-164 -243l174 -257h-103q-36 0 -54 29z" />
    <glyph glyph-name="y" unicode="y" horiz-adv-x="542" 
d="M256 -255q-48 0 -93.5 14.5t-73.5 37.5l26 96q66 -44 132 -44q68 0 95 35t27 97v80q-22 -33 -60 -53t-81 -20q-85 0 -126.5 50.5t-41.5 138.5v323h124v-306q0 -53 23.5 -78.5t62.5 -25.5q37 0 63.5 26t26.5 78v306h124v-529q0 -226 -228 -226z" />
    <glyph glyph-name="z" unicode="z" horiz-adv-x="455" 
d="M424 0h-391v29q0 34 6.5 53t24.5 43l200 268l-212 -2v109h361v-31q0 -55 -28 -91l-204 -271l243 2v-109z" />
    <glyph glyph-name="braceleft" unicode="{" horiz-adv-x="363" 
d="M264 -189q-72 0 -118 39.5t-46 125.5q0 40 11.5 119t11.5 116q0 35 -17 55.5t-49 20.5h-11v92h11q32 0 49 20.5t17 55.5q0 37 -11.5 116t-11.5 118q0 87 46 126t118 39q36 0 62 -6l1 -88q-104 0 -104 -89q0 -38 10 -108.5t10 -107.5q0 -56 -21.5 -86.5t-53.5 -34.5v-3
q32 -5 53.5 -35t21.5 -85q0 -37 -10 -107.5t-10 -109.5q0 -49 30.5 -69t73.5 -20l-1 -88q-26 -6 -62 -6z" />
    <glyph glyph-name="bar" unicode="|" horiz-adv-x="616" 
d="M246 -117v906h124v-906h-124z" />
    <glyph glyph-name="braceright" unicode="}" horiz-adv-x="363" 
d="M99 -189q-36 0 -62 6l-1 88q43 0 73.5 20t30.5 69q0 39 -10 109.5t-10 107.5q0 55 21.5 85t53.5 35v3q-32 4 -53.5 34.5t-21.5 86.5q0 37 10 107.5t10 108.5q0 89 -104 89l1 88q26 6 62 6q72 0 118 -39t46 -126q0 -39 -11.5 -118t-11.5 -116q0 -35 17 -55.5t49 -20.5h11
v-92h-11q-32 0 -49 -20.5t-17 -55.5q0 -37 11.5 -116t11.5 -119q0 -86 -46 -125.5t-118 -39.5z" />
    <glyph glyph-name="exclamdown" unicode="&#xa1;" horiz-adv-x="255" 
d="M128 347q-34 0 -56.5 22.5t-22.5 56.5q0 32 22.5 55t56.5 23q32 0 55 -23t23 -55q0 -34 -23 -56.5t-55 -22.5zM59 -250l31 525h75l31 -525h-137z" />
    <glyph glyph-name="cent" unicode="&#xa2;" horiz-adv-x="486" 
d="M416 110q-50 -23 -105 -26v-96h-93v103q-87 20 -133.5 88t-46.5 166t46.5 166t133.5 89v105h93v-98q59 -3 104 -26l-25 -101q-43 20 -95 20q-63 0 -98.5 -42t-35.5 -113t35.5 -113t98.5 -42q51 0 96 21z" />
    <glyph glyph-name="sterling" unicode="&#xa3;" horiz-adv-x="584" 
d="M543 112v-112h-495v112h37q64 0 100.5 31.5t36.5 85.5q0 16 -1 23h-146v90h87l-23 21q-83 72 -83 150q0 85 69.5 138.5t180.5 53.5q109 0 205 -45l-32 -100q-78 38 -162 38q-61 0 -97.5 -26.5t-36.5 -70.5q0 -42 41 -81l53 -51q13 -12 24 -27h164v-90h-131q1 -6 1 -20
q0 -72 -53 -120h261z" />
    <glyph glyph-name="currency" unicode="&#xa4;" horiz-adv-x="691" 
d="M494 379l-65 65l85 85l65 -64zM198 378l-86 86l65 65l85 -85zM345 112q-28 0 -49 55t-21 129q0 71 22 128q23 55 51 55q27 0 48 -55q20 -53 20 -130q0 -73 -21 -127q-23 -55 -50 -55zM176 62l-64 65l85 85l65 -65zM515 61l-86 86l66 64l85 -85z" />
    <glyph glyph-name="yen" unicode="&#xa5;" horiz-adv-x="601" 
d="M493 81h-133v-81h-125v81h-132v77h132v47h-132v78h132v29l-220 388h140l143 -272l148 272h140l-226 -388v-29h133v-78h-133v-47h133v-77z" />
    <glyph glyph-name="brokenbar" unicode="&#xa6;" horiz-adv-x="616" 
d="M246 403v386h124v-386h-124zM246 -117v386h124v-386h-124z" />
    <glyph glyph-name="section" unicode="&#xa7;" horiz-adv-x="644" 
d="M337 171q63 -57 89 -110q20 26 20 64q0 43 -19.5 75.5t-58.5 66.5l-86 74q-35 32 -57 67q-26 -22 -26 -63q0 -52 47 -95zM256 -253q-77 0 -130 51l32 96q38 -40 92 -40q42 0 63 26.5t21 66.5q0 42 -20 74.5t-58 66.5l-86 74q-92 82 -92 180q0 51 29.5 96t85.5 65v20
q0 73 51 127.5t145 54.5q78 0 125 -44l-48 -87q-35 31 -74 31t-60 -23.5t-21 -57.5q0 -53 48 -95l90 -79q117 -103 117 -218q0 -59 -29 -109.5t-86 -73.5q-3 -82 -52 -142t-143 -60z" />
    <glyph glyph-name="copyright" unicode="&#xa9;" horiz-adv-x="879" 
d="M440 -22q-164 0 -275 109t-111 270q0 162 111 271t275 109t274.5 -109t110.5 -271q0 -161 -110.5 -270t-274.5 -109zM440 63q125 0 208.5 84t83.5 210q0 127 -83.5 211.5t-208.5 84.5t-209 -84.5t-84 -211.5q0 -126 84 -210t209 -84zM446 136q-102 0 -158.5 62t-56.5 161
q0 96 56.5 157t157.5 61q66 0 115 -27l-22 -70q-40 20 -85 20q-62 0 -97 -38.5t-35 -102.5q0 -67 34.5 -106.5t97.5 -39.5q41 0 87 21l21 -71q-49 -27 -115 -27z" />
    <glyph glyph-name="ordfeminine" unicode="&#xaa;" horiz-adv-x="385" 
d="M192 488q34 0 56 22v3q-2 35 -20.5 56.5t-46.5 21.5q-22 0 -37 -13.5t-15 -36.5t17.5 -38t45.5 -15zM261 425l-8 40q-12 -21 -38.5 -35t-62.5 -14q-55 0 -88.5 34t-33.5 83q0 56 37 88.5t93 32.5q63 0 89 -42v14q0 86 -81 86q-46 0 -92 -27l-20 83q49 26 124 26
q161 0 161 -151v-218h-80zM51 261v90h286v-90h-286z" />
    <glyph glyph-name="guillemotleft" unicode="&#xab;" horiz-adv-x="582" 
d="M212 32l-168 200v7l168 200h131l-170 -203l170 -204h-131zM413 32l-168 200v7l168 200h131l-170 -203l170 -204h-131z" />
    <glyph glyph-name="registered" unicode="&#xae;" horiz-adv-x="621" 
d="M310 206q-112 0 -187.5 74.5t-75.5 184.5t75.5 184.5t187.5 74.5t188 -74.5t76 -184.5t-76 -184.5t-188 -74.5zM310 266q84 0 140.5 57t56.5 142t-56.5 141.5t-140.5 56.5t-140 -56.5t-56 -141.5t56 -142t140 -57zM300 457q67 0 67 59q0 43 -50 43h-50v-98q15 -4 33 -4z
M301 409q-19 0 -34 4v-85h-54v280h101q58 0 84.5 -26t26.5 -66q0 -65 -53 -92l62 -96h-60l-52 82q-7 -1 -21 -1z" />
    <glyph glyph-name="degree" unicode="&#xb0;" horiz-adv-x="338" 
d="M169 491q-52 0 -94.5 35t-42.5 99q0 65 42.5 99.5t94.5 34.5q51 0 94 -34.5t43 -99.5q0 -64 -43 -99t-94 -35zM169 561q27 0 45 17t18 47t-18 47t-45 17t-45 -17t-18 -47t18 -47t45 -17z" />
    <glyph glyph-name="plusminus" unicode="&#xb1;" horiz-adv-x="590" 
d="M483 379h-139v-142h-97v142h-140v87h140v146h97v-146h139v-87zM107 101v88h376v-88h-376z" />
    <glyph glyph-name="paragraph" unicode="&#xb6;" horiz-adv-x="788" 
d="M501 -250v868h-75v-868h-106v490h-19q-112 0 -183.5 62t-71.5 164q0 107 66.5 170.5t202.5 63.5h381v-82h-89v-868h-106z" />
    <glyph glyph-name="periodcentered" unicode="&#xb7;" horiz-adv-x="257" 
d="M129 212q-34 0 -56.5 22.5t-22.5 56.5q0 33 23 55.5t56 22.5q32 0 55 -23t23 -55q0 -33 -22.5 -56t-55.5 -23z" />
    <glyph glyph-name="ordmasculine" unicode="&#xba;" horiz-adv-x="396" 
d="M198 416q-82 0 -124 54t-42 135t42 135t124 54t123.5 -54t41.5 -135t-41.5 -135t-123.5 -54zM198 498q64 0 64 107t-64 107t-64 -107t64 -107zM59 261v90h278v-90h-278z" />
    <glyph glyph-name="guillemotright" unicode="&#xbb;" horiz-adv-x="582" 
d="M44 32l170 204l-170 203h131l168 -200v-7l-168 -200h-131zM245 32l170 204l-170 203h131l168 -200v-7l-168 -200h-131z" />
    <glyph glyph-name="onequarter" unicode="&#xbc;" horiz-adv-x="742" 
d="M105 0l501 700h107l-500 -700h-108zM297 329h-257v80h84v190l-79 -34v85l86 40q30 14 58 14h24v-295h84v-80zM590 151v143l-85 -143h85zM714 79h-41v-79h-83v79h-162v68l142 225h103v-221h41v-72z" />
    <glyph glyph-name="onehalf" unicode="&#xbd;" horiz-adv-x="844" 
d="M118 0l500 700h108l-501 -700h-107zM297 329h-257v80h84v190l-79 -34v85l86 40q30 14 58 14h24v-295h84v-80zM552 0v72q0 25 12.5 45.5t26 31t36.5 25.5q5 3 8 5l31 18q44 28 44 58q0 19 -15.5 31.5t-43.5 12.5q-41 0 -82 -22l-22 71q60 27 114 27q64 0 102 -29.5
t38 -77.5q0 -70 -82 -121l-29 -18q-39 -25 -39 -39v-9h153v-81h-252z" />
    <glyph glyph-name="threequarters" unicode="&#xbe;" horiz-adv-x="699" 
d="M60 0l501 700h107l-500 -700h-108zM142 321q-61 0 -107 20l27 75q32 -14 73 -14q56 0 56 41q0 40 -56 40h-44v73h42q46 0 46 36q0 37 -48 37q-30 0 -74 -16l-20 71q46 19 107 19q63 0 94.5 -26t31.5 -68q0 -26 -14 -50.5t-32 -35.5q24 -7 41 -30t17 -52q0 -54 -34.5 -87
t-105.5 -33zM546 151v143l-85 -143h85zM671 79h-42v-79h-83v79h-161v68l142 225h102v-221h42v-72z" />
    <glyph glyph-name="questiondown" unicode="&#xbf;" horiz-adv-x="440" 
d="M298 355q-33 0 -56 22.5t-23 56.5q0 32 23 55t56 23t56 -23t23 -55q0 -34 -23 -56.5t-56 -22.5zM256 -255q-112 0 -171 55t-59 137q0 95 64.5 149.5t159.5 63.5l7 135h85l8 -209q-83 0 -142.5 -29.5t-59.5 -95.5q0 -46 29.5 -74t92.5 -28q60 0 124 35l25 -104
q-72 -35 -163 -35z" />
    <glyph glyph-name="Agrave" unicode="&#xc0;" horiz-adv-x="637" 
d="M297 739l-126 121h102q39 0 59 -31l60 -90h-95zM397 291l-79 270l-79 -270h158zM481 0l-55 191h-216l-56 -191h-132l231 702h80q27 0 41.5 -10.5t22.5 -37.5l218 -654h-134z" />
    <glyph glyph-name="Aacute" unicode="&#xc1;" horiz-adv-x="637" 
d="M235 742l110 116h149l-156 -116h-103zM397 291l-79 270l-79 -270h158zM481 0l-55 191h-216l-56 -191h-132l231 702h80q27 0 41.5 -10.5t22.5 -37.5l218 -654h-134z" />
    <glyph glyph-name="Acircumflex" unicode="&#xc2;" horiz-adv-x="637" 
d="M376 742l-54 60l-57 -60h-116l118 117h72q32 0 55 -22l100 -95h-118zM397 291l-79 270l-79 -270h158zM481 0l-55 191h-216l-56 -191h-132l231 702h80q27 0 41.5 -10.5t22.5 -37.5l218 -654h-134z" />
    <glyph glyph-name="Atilde" unicode="&#xc3;" horiz-adv-x="637" 
d="M163 742q-12 12 -12 43q0 37 25 63t68 26q38 0 76 -25.5t58 -25.5t30 18t10 37h58q8 -14 8 -40q0 -43 -27.5 -73t-68.5 -30q-39 0 -75 25t-55 25q-20 0 -29 -13.5t-9 -29.5h-57zM397 291l-79 270l-79 -270h158zM481 0l-55 191h-216l-56 -191h-132l231 702h80
q27 0 41.5 -10.5t22.5 -37.5l218 -654h-134z" />
    <glyph glyph-name="Adieresis" unicode="&#xc4;" horiz-adv-x="637" 
d="M424 732q-30 0 -50 20.5t-20 51.5t20 52t50 21q29 0 49 -21t20 -52t-20 -51.5t-49 -20.5zM211 732q-29 0 -49.5 20.5t-20.5 51.5t20.5 52t49.5 21t49.5 -21t20.5 -52q0 -30 -20.5 -51t-49.5 -21zM397 291l-79 270l-79 -270h158zM481 0l-55 191h-216l-56 -191h-132
l231 702h80q27 0 41.5 -10.5t22.5 -37.5l218 -654h-134z" />
    <glyph glyph-name="AE" unicode="&#xc6;" horiz-adv-x="935" 
d="M319 279h144v236zM12 0l451 700h427v-113h-304v-168h272v-111h-272v-195h304v-113h-427v179h-206l-110 -179h-135z" />
    <glyph glyph-name="Ccedilla" unicode="&#xc7;" horiz-adv-x="580" 
d="M323 -253q-40 0 -74 14.5t-49 28.5l-14 14l32 61q4 -5 12 -12.5t34.5 -20.5t54.5 -13t43 11.5t15 30.5q0 18 -14 29t-35 11q-16 0 -29 -5.5t-19 -11.5l-5 -5l-42 18l55 100q-115 26 -177 121t-62 232q0 158 85 256.5t237 98.5q99 0 171 -43l-33 -105q-61 33 -127 33
q-98 0 -152.5 -65t-54.5 -175q0 -114 54.5 -180.5t153.5 -66.5q65 0 129 34l32 -106q-71 -43 -172 -43h-14l-19 -36q6 1 19 1q43 0 73.5 -23.5t30.5 -70.5q0 -52 -38 -82t-101 -30z" />
    <glyph glyph-name="Egrave" unicode="&#xc8;" horiz-adv-x="564" 
d="M261 739l-126 121h101q39 0 59 -31l61 -90h-95zM58 0v700h460v-113h-337v-168h306v-111h-306v-195h337v-113h-460z" />
    <glyph glyph-name="Eacute" unicode="&#xc9;" horiz-adv-x="564" 
d="M199 742l110 116h148l-155 -116h-103zM58 0v700h460v-113h-337v-168h306v-111h-306v-195h337v-113h-460z" />
    <glyph glyph-name="Ecircumflex" unicode="&#xca;" horiz-adv-x="564" 
d="M340 742l-55 60l-56 -60h-117l119 117h71q33 0 55 -22l100 -95h-117zM58 0v700h460v-113h-337v-168h306v-111h-306v-195h337v-113h-460z" />
    <glyph glyph-name="Edieresis" unicode="&#xcb;" horiz-adv-x="564" 
d="M387 732q-29 0 -49.5 20.5t-20.5 51.5t20.5 52t49.5 21t49.5 -21t20.5 -52t-20.5 -51.5t-49.5 -20.5zM174 732q-29 0 -49.5 20.5t-20.5 51.5t20.5 52t49.5 21t49.5 -21t20.5 -52t-20.5 -51.5t-49.5 -20.5zM58 0v700h460v-113h-337v-168h306v-111h-306v-195h337v-113h-460
z" />
    <glyph glyph-name="Igrave" unicode="&#xcc;" horiz-adv-x="268" 
d="M113 739l-126 121h102q37 0 59 -31l60 -90h-95zM72 0v700h124v-700h-124z" />
    <glyph glyph-name="Iacute" unicode="&#xcd;" horiz-adv-x="268" 
d="M51 742l110 116h149l-156 -116h-103zM72 0v700h124v-700h-124z" />
    <glyph glyph-name="Icircumflex" unicode="&#xce;" horiz-adv-x="268" 
d="M192 742l-55 60l-56 -60h-117l119 117h72q32 0 54 -22l101 -95h-118zM72 0v700h124v-700h-124z" />
    <glyph glyph-name="Idieresis" unicode="&#xcf;" horiz-adv-x="268" 
d="M239 732q-29 0 -49.5 20.5t-20.5 51.5t20.5 52t49.5 21t49.5 -21t20.5 -52t-20.5 -51.5t-49.5 -20.5zM26 732q-29 0 -49 20.5t-20 51.5t20 52t49 21t49.5 -21t20.5 -52t-20.5 -51.5t-49.5 -20.5zM72 0v700h124v-700h-124z" />
    <glyph glyph-name="Ntilde" unicode="&#xd1;" horiz-adv-x="656" 
d="M161 742q-12 12 -12 43q0 37 25 63t68 26q38 0 76 -25.5t58 -25.5t30 18t10 37h57q9 -16 9 -40q0 -43 -27.5 -73t-68.5 -30q-40 0 -76 25t-54 25q-20 0 -29 -13.5t-9 -29.5h-57zM467 37l-292 447l3 -484h-120v701h68q39 0 59 -31l296 -453l-3 483h120v-700h-63
q-45 0 -68 37z" />
    <glyph glyph-name="Ograve" unicode="&#xd2;" horiz-adv-x="678" 
d="M318 739l-126 121h102q37 0 59 -31l60 -90h-95zM339 -12q-97 0 -164.5 51.5t-97 131t-29.5 179.5q0 153 74 254t217 101q74 0 131 -28.5t91 -78.5t51.5 -112.5t17.5 -135.5q0 -100 -29.5 -179.5t-97 -131t-164.5 -51.5zM339 100q79 0 122.5 67.5t43.5 182.5
q0 111 -43.5 177t-122.5 66q-80 0 -122.5 -65.5t-42.5 -177.5q0 -116 42.5 -183t122.5 -67z" />
    <glyph glyph-name="Oacute" unicode="&#xd3;" horiz-adv-x="678" 
d="M256 742l110 116h149l-156 -116h-103zM339 -12q-97 0 -164.5 51.5t-97 131t-29.5 179.5q0 153 74 254t217 101q74 0 131 -28.5t91 -78.5t51.5 -112.5t17.5 -135.5q0 -100 -29.5 -179.5t-97 -131t-164.5 -51.5zM339 100q79 0 122.5 67.5t43.5 182.5q0 111 -43.5 177
t-122.5 66q-80 0 -122.5 -65.5t-42.5 -177.5q0 -116 42.5 -183t122.5 -67z" />
    <glyph glyph-name="Ocircumflex" unicode="&#xd4;" horiz-adv-x="678" 
d="M397 742l-55 60l-56 -60h-117l119 117h72q32 0 54 -22l101 -95h-118zM339 -12q-97 0 -164.5 51.5t-97 131t-29.5 179.5q0 153 74 254t217 101q74 0 131 -28.5t91 -78.5t51.5 -112.5t17.5 -135.5q0 -100 -29.5 -179.5t-97 -131t-164.5 -51.5zM339 100q79 0 122.5 67.5
t43.5 182.5q0 111 -43.5 177t-122.5 66q-80 0 -122.5 -65.5t-42.5 -177.5q0 -116 42.5 -183t122.5 -67z" />
    <glyph glyph-name="Otilde" unicode="&#xd5;" horiz-adv-x="678" 
d="M184 742q-12 12 -12 43q0 37 25 63t68 26q39 0 76 -25.5t58 -25.5q20 0 30 18t10 37h57q9 -16 9 -40q0 -43 -27.5 -73t-68.5 -30q-40 0 -76 25t-54 25q-20 0 -29 -13.5t-9 -29.5h-57zM339 -12q-97 0 -164.5 51.5t-97 131t-29.5 179.5q0 153 74 254t217 101
q74 0 131 -28.5t91 -78.5t51.5 -112.5t17.5 -135.5q0 -100 -29.5 -179.5t-97 -131t-164.5 -51.5zM339 100q79 0 122.5 67.5t43.5 182.5q0 111 -43.5 177t-122.5 66q-80 0 -122.5 -65.5t-42.5 -177.5q0 -116 42.5 -183t122.5 -67z" />
    <glyph glyph-name="Odieresis" unicode="&#xd6;" horiz-adv-x="678" 
d="M444 732q-29 0 -49 20.5t-20 51.5t20 52t49 21t49.5 -21t20.5 -52t-20.5 -51.5t-49.5 -20.5zM232 732q-30 0 -50 20.5t-20 51.5t20 52t50 21q29 0 49 -21t20 -52t-20 -51.5t-49 -20.5zM339 -12q-97 0 -164.5 51.5t-97 131t-29.5 179.5q0 153 74 254t217 101
q74 0 131 -28.5t91 -78.5t51.5 -112.5t17.5 -135.5q0 -100 -29.5 -179.5t-97 -131t-164.5 -51.5zM339 100q79 0 122.5 67.5t43.5 182.5q0 111 -43.5 177t-122.5 66q-80 0 -122.5 -65.5t-42.5 -177.5q0 -116 42.5 -183t122.5 -67z" />
    <glyph glyph-name="multiply" unicode="&#xd7;" horiz-adv-x="590" 
d="M408 117l-113 113l-113 -113l-79 79l113 113l-113 113l79 80l113 -113l113 113l80 -80l-113 -113l113 -113z" />
    <glyph glyph-name="Ugrave" unicode="&#xd9;" horiz-adv-x="652" 
d="M305 739l-126 121h101q39 0 59 -31l61 -90h-95zM326 -12q-38 0 -74.5 8t-73 28t-64 50.5t-44.5 80t-17 112.5v433h123v-425q0 -95 43 -135t107 -40t107 40t43 135v425h123v-433q0 -63 -17 -112.5t-44.5 -80t-64 -50.5t-73 -28t-74.5 -8z" />
    <glyph glyph-name="Uacute" unicode="&#xda;" horiz-adv-x="652" 
d="M243 742l110 116h148l-155 -116h-103zM326 -12q-38 0 -74.5 8t-73 28t-64 50.5t-44.5 80t-17 112.5v433h123v-425q0 -95 43 -135t107 -40t107 40t43 135v425h123v-433q0 -63 -17 -112.5t-44.5 -80t-64 -50.5t-73 -28t-74.5 -8z" />
    <glyph glyph-name="Ucircumflex" unicode="&#xdb;" horiz-adv-x="652" 
d="M384 742l-55 60l-56 -60h-117l119 117h71q33 0 55 -22l100 -95h-117zM326 -12q-38 0 -74.5 8t-73 28t-64 50.5t-44.5 80t-17 112.5v433h123v-425q0 -95 43 -135t107 -40t107 40t43 135v425h123v-433q0 -63 -17 -112.5t-44.5 -80t-64 -50.5t-73 -28t-74.5 -8z" />
    <glyph glyph-name="Udieresis" unicode="&#xdc;" horiz-adv-x="652" 
d="M431 732q-29 0 -49.5 20.5t-20.5 51.5t20.5 52t49.5 21t49.5 -21t20.5 -52t-20.5 -51.5t-49.5 -20.5zM218 732q-29 0 -49.5 20.5t-20.5 51.5t20.5 52t49.5 21t49.5 -21t20.5 -52t-20.5 -51.5t-49.5 -20.5zM326 -12q-38 0 -74.5 8t-73 28t-64 50.5t-44.5 80t-17 112.5v433
h123v-425q0 -95 43 -135t107 -40t107 40t43 135v425h123v-433q0 -63 -17 -112.5t-44.5 -80t-64 -50.5t-73 -28t-74.5 -8z" />
    <glyph glyph-name="germandbls" unicode="&#xdf;" horiz-adv-x="619" 
d="M402 -12q-80 0 -150 28l28 97q68 -24 118 -24q40 0 60.5 16t20.5 40q0 23 -14.5 37t-50.5 29l-73 31q-39 15 -62.5 44.5t-23.5 70.5q0 72 69 121l48 34q44 32 44 70q0 30 -27.5 50.5t-68.5 20.5q-62 0 -97.5 -41t-35.5 -111v-501h-124v503q0 118 74 185t180 67
q99 0 158.5 -49t59.5 -116q0 -81 -72 -131l-47 -34q-39 -29 -39 -56q0 -33 41 -49l52 -22q69 -26 99 -63.5t30 -88.5q0 -66 -50.5 -112t-146.5 -46z" />
    <glyph glyph-name="agrave" unicode="&#xe0;" horiz-adv-x="515" 
d="M242 574l-116 151h93q38 0 56 -32l58 -119h-91zM253 78q61 0 92 40q0 52 -28 85t-73 33q-36 0 -60.5 -22t-24.5 -57t26 -57t68 -22zM360 0l-10 56q-16 -28 -53.5 -48t-87.5 -20q-77 0 -124.5 46t-47.5 115q0 78 51.5 124.5t128.5 46.5q88 0 128 -60v32q0 55 -26 85.5
t-91 30.5q-64 0 -128 -35l-26 104q70 35 167 35q217 0 217 -204v-308h-98z" />
    <glyph glyph-name="aacute" unicode="&#xe1;" horiz-adv-x="515" 
d="M179 574l100 151h135l-140 -151h-95zM253 78q61 0 92 40q0 52 -28 85t-73 33q-36 0 -60.5 -22t-24.5 -57t26 -57t68 -22zM360 0l-10 56q-16 -28 -53.5 -48t-87.5 -20q-77 0 -124.5 46t-47.5 115q0 78 51.5 124.5t128.5 46.5q88 0 128 -60v32q0 55 -26 85.5t-91 30.5
q-64 0 -128 -35l-26 104q70 35 167 35q217 0 217 -204v-308h-98z" />
    <glyph glyph-name="acircumflex" unicode="&#xe2;" horiz-adv-x="515" 
d="M311 574l-49 82l-50 -82h-106l105 151h65q39 0 62 -34l79 -117h-106zM253 78q61 0 92 40q0 52 -28 85t-73 33q-36 0 -60.5 -22t-24.5 -57t26 -57t68 -22zM360 0l-10 56q-16 -28 -53.5 -48t-87.5 -20q-77 0 -124.5 46t-47.5 115q0 78 51.5 124.5t128.5 46.5q88 0 128 -60
v32q0 55 -26 85.5t-91 30.5q-64 0 -128 -35l-26 104q70 35 167 35q217 0 217 -204v-308h-98z" />
    <glyph glyph-name="atilde" unicode="&#xe3;" horiz-adv-x="515" 
d="M118 577q-10 13 -10 44q0 37 23 64t62 27q35 0 69.5 -26.5t52.5 -26.5q19 0 27.5 19t8.5 38h54q7 -16 7 -40q0 -45 -25 -76t-62 -31q-29 0 -50 13.5t-37.5 26.5t-32.5 13q-17 0 -25 -14t-8 -31h-54zM253 78q61 0 92 40q0 52 -28 85t-73 33q-36 0 -60.5 -22t-24.5 -57
t26 -57t68 -22zM360 0l-10 56q-16 -28 -53.5 -48t-87.5 -20q-77 0 -124.5 46t-47.5 115q0 78 51.5 124.5t128.5 46.5q88 0 128 -60v32q0 55 -26 85.5t-91 30.5q-64 0 -128 -35l-26 104q70 35 167 35q217 0 217 -204v-308h-98z" />
    <glyph glyph-name="adieresis" unicode="&#xe4;" horiz-adv-x="515" 
d="M359 568q-29 0 -49.5 21t-20.5 52q0 30 20.5 51.5t49.5 21.5t49.5 -21.5t20.5 -51.5q0 -31 -20.5 -52t-49.5 -21zM161 568q-29 0 -49.5 21t-20.5 52q0 30 20.5 51.5t49.5 21.5t49.5 -21.5t20.5 -51.5q0 -31 -20.5 -52t-49.5 -21zM253 78q61 0 92 40q0 52 -28 85t-73 33
q-36 0 -60.5 -22t-24.5 -57t26 -57t68 -22zM360 0l-10 56q-16 -28 -53.5 -48t-87.5 -20q-77 0 -124.5 46t-47.5 115q0 78 51.5 124.5t128.5 46.5q88 0 128 -60v32q0 55 -26 85.5t-91 30.5q-64 0 -128 -35l-26 104q70 35 167 35q217 0 217 -204v-308h-98z" />
    <glyph glyph-name="ae" unicode="&#xe6;" horiz-adv-x="826" 
d="M476 307h186v6q0 41 -23 69.5t-66 28.5q-80 0 -97 -104zM219 -12q-81 0 -131 46t-50 116q0 77 52 123.5t130 46.5q80 0 126 -41v23q0 106 -117 106q-63 0 -129 -35l-25 104q70 35 167 35q122 0 174 -65q58 65 157 65q109 0 159.5 -68.5t50.5 -183.5v-32h-310q0 -5 3 -26
q16 -113 134 -113q79 0 138 32l30 -91q-81 -42 -178 -42q-134 0 -195 86q-25 -34 -74 -60t-112 -26zM256 78q35 0 66.5 19t41.5 50q-7 24 -11 42q-39 47 -104 47q-37 0 -63 -21.5t-26 -56.5q0 -36 26.5 -58t69.5 -22z" />
    <glyph glyph-name="ccedilla" unicode="&#xe7;" horiz-adv-x="446" 
d="M247 -253q-40 0 -74.5 14.5t-48.5 28.5l-15 14l32 61q4 -5 12.5 -12.5t34.5 -20.5t54 -13t43.5 11.5t15.5 30.5q0 18 -14 29t-36 11q-16 0 -29 -5.5t-18 -11.5l-6 -5l-41 18l55 101q-83 22 -127 89.5t-44 162.5q0 117 65.5 189.5t185.5 72.5q74 0 126 -26l-25 -101
q-47 20 -95 20q-64 0 -99 -42t-35 -113t35 -113t99 -42q49 0 96 21l24 -101q-56 -27 -126 -27h-10l-19 -36q6 1 19 1q43 0 73.5 -23.5t30.5 -70.5q0 -51 -38 -81.5t-101 -30.5z" />
    <glyph glyph-name="egrave" unicode="&#xe8;" horiz-adv-x="518" 
d="M231 574l-116 151h93q38 0 56 -32l58 -119h-91zM266 411q-81 0 -97 -106h186q-1 44 -23 75t-66 31zM471 30q-81 -42 -178 -42q-124 0 -188 74.5t-64 187.5t57 187.5t168 74.5q109 0 159 -68.5t50 -183.5v-34h-309q4 -67 36 -102t100 -35q81 0 138 32z" />
    <glyph glyph-name="eacute" unicode="&#xe9;" horiz-adv-x="518" 
d="M180 574l101 151h135l-140 -151h-96zM266 411q-81 0 -97 -106h186q-1 44 -23 75t-66 31zM471 30q-81 -42 -178 -42q-124 0 -188 74.5t-64 187.5t57 187.5t168 74.5q109 0 159 -68.5t50 -183.5v-34h-309q4 -67 36 -102t100 -35q81 0 138 32z" />
    <glyph glyph-name="ecircumflex" unicode="&#xea;" horiz-adv-x="518" 
d="M312 574l-49 82l-49 -82h-107l106 151h65q38 0 61 -34l80 -117h-107zM266 411q-81 0 -97 -106h186q-1 44 -23 75t-66 31zM471 30q-81 -42 -178 -42q-124 0 -188 74.5t-64 187.5t57 187.5t168 74.5q109 0 159 -68.5t50 -183.5v-34h-309q4 -67 36 -102t100 -35q81 0 138 32
z" />
    <glyph glyph-name="edieresis" unicode="&#xeb;" horiz-adv-x="518" 
d="M361 568q-30 0 -50 21t-20 52q0 30 20 51.5t50 21.5q28 0 48.5 -21.5t20.5 -51.5q0 -31 -20 -52t-49 -21zM163 568q-30 0 -50 21t-20 52q0 30 20 51.5t50 21.5q28 0 48.5 -21.5t20.5 -51.5q0 -31 -20 -52t-49 -21zM266 411q-81 0 -97 -106h186q-1 44 -23 75t-66 31z
M471 30q-81 -42 -178 -42q-124 0 -188 74.5t-64 187.5t57 187.5t168 74.5q109 0 159 -68.5t50 -183.5v-34h-309q4 -67 36 -102t100 -35q81 0 138 32z" />
    <glyph glyph-name="igrave" unicode="&#xec;" horiz-adv-x="260" 
d="M21 726h94q38 0 47 -33l35 -119h-93zM68 0v500h124v-500h-124z" />
    <glyph glyph-name="iacute" unicode="&#xed;" horiz-adv-x="260" 
d="M72 574l60 151h130l-97 -151h-93zM68 0v500h124v-500h-124z" />
    <glyph glyph-name="icircumflex" unicode="&#xee;" horiz-adv-x="260" 
d="M173 566l-43 87l-43 -87h-100l90 158h69q41 0 60 -33l66 -125h-99zM68 0v500h124v-500h-124z" />
    <glyph glyph-name="idieresis" unicode="&#xef;" horiz-adv-x="260" 
d="M217 574q-27 0 -45.5 19.5t-18.5 47.5t18.5 47.5t45.5 19.5t46 -19.5t19 -47.5t-19 -47.5t-46 -19.5zM53 574q-27 0 -46 19.5t-19 47.5t19 47.5t46 19.5q26 0 45 -19.5t19 -47.5t-19 -47.5t-45 -19.5zM68 0v500h124v-500h-124z" />
    <glyph glyph-name="ntilde" unicode="&#xf1;" horiz-adv-x="552" 
d="M137 577q-11 11 -11 44q0 37 23 64t62 27q35 0 69.5 -26.5t53.5 -26.5q18 0 27 19t9 38h54q7 -21 7 -40q0 -45 -25.5 -76t-62.5 -31q-36 0 -69 26.5t-51 26.5q-17 0 -25 -14t-8 -31h-53zM186 306v-306h-124v500h68q23 0 30 -21l9 -40q23 33 62.5 53t85.5 20
q90 0 134.5 -50.5t44.5 -138.5v-323h-124v306q0 53 -25 78.5t-67 25.5q-39 0 -66.5 -26t-27.5 -78z" />
    <glyph glyph-name="ograve" unicode="&#xf2;" horiz-adv-x="532" 
d="M238 574l-116 151h93q39 0 55 -32l59 -119h-91zM266 -12q-111 0 -168 74.5t-57 187.5t57 187.5t168 74.5t168 -74.5t57 -187.5t-57 -187.5t-168 -74.5zM266 89q51 0 76 42.5t25 118.5t-25 118.5t-76 42.5q-101 0 -101 -161t101 -161z" />
    <glyph glyph-name="oacute" unicode="&#xf3;" horiz-adv-x="532" 
d="M187 574l100 151h135l-139 -151h-96zM266 -12q-111 0 -168 74.5t-57 187.5t57 187.5t168 74.5t168 -74.5t57 -187.5t-57 -187.5t-168 -74.5zM266 89q51 0 76 42.5t25 118.5t-25 118.5t-76 42.5q-101 0 -101 -161t101 -161z" />
    <glyph glyph-name="ocircumflex" unicode="&#xf4;" horiz-adv-x="532" 
d="M319 574l-49 82l-50 -82h-106l105 151h66q38 0 61 -34l79 -117h-106zM266 -12q-111 0 -168 74.5t-57 187.5t57 187.5t168 74.5t168 -74.5t57 -187.5t-57 -187.5t-168 -74.5zM266 89q51 0 76 42.5t25 118.5t-25 118.5t-76 42.5q-101 0 -101 -161t101 -161z" />
    <glyph glyph-name="otilde" unicode="&#xf5;" horiz-adv-x="532" 
d="M126 577q-10 13 -10 44q0 37 23 64t62 27q35 0 69.5 -26.5t53.5 -26.5q18 0 26.5 19t8.5 38h55q7 -21 7 -40q0 -45 -25.5 -76t-62.5 -31q-29 0 -50 13.5t-37.5 26.5t-32.5 13q-17 0 -25 -14t-8 -31h-54zM266 -12q-111 0 -168 74.5t-57 187.5t57 187.5t168 74.5t168 -74.5
t57 -187.5t-57 -187.5t-168 -74.5zM266 89q51 0 76 42.5t25 118.5t-25 118.5t-76 42.5q-101 0 -101 -161t101 -161z" />
    <glyph glyph-name="odieresis" unicode="&#xf6;" horiz-adv-x="532" 
d="M367 568q-29 0 -49.5 21t-20.5 52q0 30 20.5 51.5t49.5 21.5t49.5 -21.5t20.5 -51.5q0 -31 -20.5 -52t-49.5 -21zM169 568q-29 0 -49.5 21t-20.5 52q0 30 20.5 51.5t49.5 21.5t49.5 -21.5t20.5 -51.5q0 -31 -20.5 -52t-49.5 -21zM266 -12q-111 0 -168 74.5t-57 187.5
t57 187.5t168 74.5t168 -74.5t57 -187.5t-57 -187.5t-168 -74.5zM266 89q51 0 76 42.5t25 118.5t-25 118.5t-76 42.5q-101 0 -101 -161t101 -161z" />
    <glyph glyph-name="divide" unicode="&#xf7;" horiz-adv-x="590" 
d="M295 419q-31 0 -52.5 21.5t-21.5 52.5t21.5 53t52.5 22t53 -22t22 -53t-21.5 -52.5t-53.5 -21.5zM79 258v103h432v-103h-432zM295 51q-31 0 -52.5 21t-21.5 53q0 31 21.5 52.5t52.5 21.5t53 -21.5t22 -52.5q0 -32 -22 -53t-53 -21z" />
    <glyph glyph-name="ugrave" unicode="&#xf9;" horiz-adv-x="552" 
d="M246 574l-116 151h93q38 0 56 -32l58 -119h-91zM395 0l-10 71q-22 -36 -63 -59.5t-89 -23.5q-87 0 -130 50.5t-43 138.5v323h124v-306q0 -53 25 -78.5t66 -25.5q39 0 67 26t28 78v306h124v-500h-99z" />
    <glyph glyph-name="uacute" unicode="&#xfa;" horiz-adv-x="552" 
d="M195 574l100 151h136l-140 -151h-96zM395 0l-10 71q-22 -36 -63 -59.5t-89 -23.5q-87 0 -130 50.5t-43 138.5v323h124v-306q0 -53 25 -78.5t66 -25.5q39 0 67 26t28 78v306h124v-500h-99z" />
    <glyph glyph-name="ucircumflex" unicode="&#xfb;" horiz-adv-x="552" 
d="M327 574l-49 82l-50 -82h-106l105 151h66q38 0 61 -34l80 -117h-107zM395 0l-10 71q-22 -36 -63 -59.5t-89 -23.5q-87 0 -130 50.5t-43 138.5v323h124v-306q0 -53 25 -78.5t66 -25.5q39 0 67 26t28 78v306h124v-500h-99z" />
    <glyph glyph-name="udieresis" unicode="&#xfc;" horiz-adv-x="552" 
d="M375 568q-29 0 -49 21t-20 52q0 30 20 51.5t49 21.5t49.5 -21.5t20.5 -51.5q0 -31 -20.5 -52t-49.5 -21zM177 568q-29 0 -49 21t-20 52q0 30 20 51.5t49 21.5t49.5 -21.5t20.5 -51.5q0 -31 -20.5 -52t-49.5 -21zM395 0l-10 71q-22 -36 -63 -59.5t-89 -23.5
q-87 0 -130 50.5t-43 138.5v323h124v-306q0 -53 25 -78.5t66 -25.5q39 0 67 26t28 78v306h124v-500h-99z" />
    <glyph glyph-name="ydieresis" unicode="&#xff;" horiz-adv-x="542" 
d="M375 568q-29 0 -49 21t-20 52q0 30 20 51.5t49 21.5t49.5 -21.5t20.5 -51.5q0 -31 -20.5 -52t-49.5 -21zM177 568q-29 0 -49 21t-20 52q0 30 20 51.5t49 21.5t49.5 -21.5t20.5 -51.5q0 -31 -20.5 -52t-49.5 -21zM256 -255q-48 0 -93.5 14.5t-73.5 37.5l26 96
q66 -44 132 -44q68 0 95 35t27 97v80q-22 -33 -60 -53t-81 -20q-85 0 -126.5 50.5t-41.5 138.5v323h124v-306q0 -53 23.5 -78.5t62.5 -25.5q37 0 63.5 26t26.5 78v306h124v-529q0 -226 -228 -226z" />
    <glyph glyph-name="dotlessi" unicode="&#x131;" horiz-adv-x="259" 
d="M68 0v500h124v-500h-124z" />
    <glyph glyph-name="IJ" unicode="&#x132;" horiz-adv-x="740" 
d="M72 0v700h124v-700h-124zM454 -12q-110 0 -178 72l90 79q36 -39 88 -39q48 0 79.5 33.5t31.5 113.5v453h123v-461q0 -69 -21.5 -120.5t-57 -78.5t-74.5 -39.5t-81 -12.5z" />
    <glyph glyph-name="ij" unicode="&#x133;" horiz-adv-x="513" 
d="M383 569q-31 0 -53 21.5t-22 53.5t22 53.5t53 21.5t53 -21.5t22 -53.5t-22 -53.5t-53 -21.5zM130 569q-32 0 -53.5 21.5t-21.5 53.5t21.5 53.5t53.5 21.5t53.5 -21.5t21.5 -53.5t-21.5 -53.5t-53.5 -21.5zM68 0v500h124v-500h-124zM270 -252q-45 0 -78 12l15 96
q18 -8 40 -8q39 0 56.5 21.5t17.5 67.5v563h124v-573q0 -92 -43.5 -135.5t-131.5 -43.5z" />
    <glyph glyph-name="Ldot" unicode="&#x13f;" horiz-adv-x="488" 
d="M58 0v700h123v-587h284v-113h-407zM407 299q-33 0 -55.5 22t-22.5 56q0 33 22.5 55.5t55.5 22.5t56 -22.5t23 -55.5t-23 -55.5t-56 -22.5z" />
    <glyph glyph-name="ldot" unicode="&#x140;" horiz-adv-x="486" 
d="M205 -7q-138 0 -138 129v628h123v-622q0 -35 38 -35q18 0 27 6l14 -94q-25 -12 -64 -12zM376 212q-33 0 -55.5 22.5t-22.5 56.5q0 32 22.5 55t55.5 23t56 -23t23 -55q0 -34 -23 -56.5t-56 -22.5z" />
    <glyph glyph-name="OE" unicode="&#x152;" horiz-adv-x="846" 
d="M398 0q-90 0 -159 28t-109.5 77t-61 111t-20.5 134t20.5 133.5t61 111t109.5 77.5t159 28h403v-113h-280v-168h248v-111h-248v-195h280v-113h-403zM398 112v476q-112 0 -168 -63t-56 -175t56 -175t168 -63z" />
    <glyph glyph-name="oe" unicode="&#x153;" horiz-adv-x="848" 
d="M267 -12q-111 0 -168 74.5t-57 187.5t57 187.5t168 74.5q105 0 164 -74q59 74 164 74q109 0 159 -68.5t50 -183.5v-32h-309q0 -8 2 -24q16 -115 134 -115q81 0 138 32l31 -91q-81 -42 -178 -42q-122 0 -188 78q-58 -78 -167 -78zM498 306h186v8q0 41 -22 69t-64 28
q-83 0 -100 -105zM267 89q51 0 76 42.5t25 118.5t-25 118.5t-76 42.5q-101 0 -101 -161t101 -161z" />
    <glyph glyph-name="Ydieresis" unicode="&#x178;" horiz-adv-x="601" 
d="M407 732q-29 0 -49.5 20.5t-20.5 51.5t20.5 52t49.5 21t49.5 -21t20.5 -52t-20.5 -51.5t-49.5 -20.5zM194 732q-29 0 -49 20.5t-20 51.5t20 52t49 21t49.5 -21t20.5 -52t-20.5 -51.5t-49.5 -20.5zM235 0v247l-220 453h93q47 0 66 -46l124 -284l148 330h140l-226 -453
v-247h-125z" />
    <glyph glyph-name="uni0192" unicode="&#x192;" horiz-adv-x="465" 
d="M1 -250q-43 0 -77 13l25 96q21 -8 40 -8q39 0 58.5 21.5t24.5 67.5l41 418h-103l11 89h97l7 72q20 186 229 186q66 0 108 -20l-34 -96q-31 11 -71 11q-99 0 -110 -93l-6 -60h154l-10 -91h-150l-41 -428q-17 -178 -193 -178z" />
    <glyph glyph-name="gravecomb" unicode="&#x300;" horiz-adv-x="404" 
d="M207 574l-116 151h93q38 0 56 -32l58 -119h-91z" />
    <glyph glyph-name="acutecomb" unicode="&#x301;" horiz-adv-x="431" 
d="M106 574l100 151h135l-139 -151h-96z" />
    <glyph glyph-name="circumflexcomb" unicode="&#x302;" horiz-adv-x="555" 
d="M326 574l-49 82l-49 -82h-106l105 151h65q40 0 61 -34l80 -117h-107z" />
    <glyph glyph-name="tildecomb" unicode="&#x303;" horiz-adv-x="547" 
d="M133 577q-11 11 -11 44q0 37 23 64t62 27q35 0 69.5 -26.5t53.5 -26.5q18 0 27 19t9 38h54q7 -21 7 -40q0 -45 -25.5 -76t-62.5 -31q-36 0 -69 26.5t-51 26.5q-17 0 -25 -14t-8 -31h-53z" />
    <glyph glyph-name="dieresiscomb" unicode="&#x308;" horiz-adv-x="542" 
d="M366 568q-29 0 -49.5 21t-20.5 52q0 30 20.5 51.5t49.5 21.5t49.5 -21.5t20.5 -51.5q0 -31 -20.5 -52t-49.5 -21zM168 568q-29 0 -49.5 21t-20.5 52q0 30 20.5 51.5t49.5 21.5t49.5 -21.5t20.5 -51.5q0 -31 -20.5 -52t-49.5 -21z" />
    <glyph glyph-name="cedillacomb" unicode="&#x327;" horiz-adv-x="458" 
d="M227 -253q-40 0 -74 14.5t-49 28.5l-14 14l32 61q4 -5 12 -12.5t34.5 -20.5t54.5 -13t43 11.5t15 30.5q0 18 -14 29t-35 11q-16 0 -29 -5.5t-19 -11.5l-5 -5l-42 18l75 137l65 -19l-34 -63q6 1 19 1q43 0 73.5 -23.5t30.5 -70.5q0 -52 -38 -82t-101 -30z" />
    <glyph glyph-name="pi" unicode="&#x3c0;" horiz-adv-x="745" 
d="M624 4q-27 -12 -64 -12q-139 0 -139 129v266h-100v-387h-123v387h-108v113h565v-113h-110v-259q0 -35 37 -35q19 0 28 5z" />
    <glyph glyph-name="endash" unicode="&#x2013;" horiz-adv-x="741" 
d="M90 210v112h561v-112h-561z" />
    <glyph glyph-name="emdash" unicode="&#x2014;" horiz-adv-x="1195" 
d="M164 210v112h867v-112h-867z" />
    <glyph glyph-name="quoteleft" unicode="&#x2018;" horiz-adv-x="259" 
d="M130 432q-38 0 -58.5 25.5t-20.5 64.5q0 67 51 120t106 68l22 -34q-66 -43 -66 -111q0 -43 38 -64q0 -28 -21 -48.5t-51 -20.5z" />
    <glyph glyph-name="quoteright" unicode="&#x2019;" horiz-adv-x="259" 
d="M51 427l-23 35q30 19 48 48.5t18 62.5q0 43 -37 64q0 28 20.5 48t51.5 20q38 0 58.5 -25.5t20.5 -63.5q0 -67 -51 -120.5t-106 -68.5z" />
    <glyph glyph-name="quotesinglbase" unicode="&#x201a;" horiz-adv-x="277" 
d="M69 -169l-22 38q64 46 64 123q0 48 -36 70q0 31 20 53t50 22q37 0 57 -28t20 -70q0 -74 -50 -132.5t-103 -75.5z" />
    <glyph glyph-name="quotedblleft" unicode="&#x201c;" horiz-adv-x="462" 
d="M328 432q-38 0 -58.5 26t-20.5 64q0 67 51 120t106 68l22 -34q-66 -43 -66 -111q0 -43 38 -64q0 -28 -20.5 -48.5t-51.5 -20.5zM136 432q-39 0 -59.5 26t-20.5 64q0 67 51 120t106 68l23 -34q-67 -44 -67 -111q0 -43 38 -64q0 -28 -20.5 -48.5t-50.5 -20.5z" />
    <glyph glyph-name="quotedblright" unicode="&#x201d;" horiz-adv-x="462" 
d="M249 427l-23 35q30 19 48.5 48.5t18.5 62.5q0 21 -11.5 38.5t-26.5 25.5q0 28 21 48t51 20q38 0 58.5 -25.5t20.5 -63.5q0 -67 -51 -120.5t-106 -68.5zM57 427l-23 35q30 19 48 48.5t18 62.5q0 44 -38 64q0 28 20.5 48t51.5 20q38 0 58.5 -25.5t20.5 -63.5
q0 -67 -51 -120.5t-105 -68.5z" />
    <glyph glyph-name="quotedblbase" unicode="&#x201e;" horiz-adv-x="487" 
d="M69 -169l-22 38q64 46 64 123q0 48 -36 70q0 31 20 53t50 22q37 0 57 -28t20 -70q0 -74 -50 -132.5t-103 -75.5zM279 -169l-22 38q64 46 64 123q0 48 -36 70q0 31 20 53t50 22q37 0 57 -28t20 -70q0 -74 -50 -132.5t-103 -75.5z" />
    <glyph glyph-name="dagger" unicode="&#x2020;" horiz-adv-x="534" 
d="M224 0l-26 401h-150v99h149l12 120l10 35h89l11 -35l13 -120h154v-99h-155l-26 -401h-81z" />
    <glyph glyph-name="daggerdbl" unicode="&#x2021;" horiz-adv-x="534" 
d="M224 0l-10 35l-11 120h-155v97h155v151h-155v97h155l11 120l9 35h81l11 -35l10 -120h161v-97h-160v-151h160v-97h-161l-10 -120l-11 -35h-80z" />
    <glyph glyph-name="bullet" unicode="&#x2022;" horiz-adv-x="488" 
d="M244 176q-52 0 -88 35.5t-36 87.5t36 88t88 36t88 -36t36 -88t-36 -87.5t-88 -35.5z" />
    <glyph glyph-name="ellipsis" unicode="&#x2026;" horiz-adv-x="739" 
d="M146 -12q-34 0 -57 23t-23 57q0 33 23 56.5t57 23.5t57 -23.5t23 -56.5q0 -34 -23 -57t-57 -23zM611 -12q-34 0 -57.5 23t-23.5 57q0 33 23.5 56.5t57.5 23.5q33 0 56.5 -23.5t23.5 -56.5q0 -34 -23.5 -57t-56.5 -23zM378 -12q-34 0 -57 23t-23 57q0 33 23 56.5t57 23.5
t57.5 -23.5t23.5 -56.5q0 -34 -23.5 -57t-57.5 -23z" />
    <glyph glyph-name="guilsinglleft" unicode="&#x2039;" horiz-adv-x="387" 
d="M212 32l-168 200v7l168 200h131l-170 -203l170 -204h-131z" />
    <glyph glyph-name="guilsinglright" unicode="&#x203a;" horiz-adv-x="387" 
d="M44 32l170 204l-170 203h131l168 -200v-7l-168 -200h-131z" />
    <glyph glyph-name="fraction" unicode="&#x2044;" horiz-adv-x="620" 
d="M6 0l501 700h107l-501 -700h-107z" />
    <glyph glyph-name="Euro" unicode="&#x20ac;" horiz-adv-x="559" 
d="M444 6q-40 -18 -102 -18q-113 0 -185 66t-96 182h-69l20 86h39q-1 9 -1 28q0 18 1 26h-59l20 87h50q24 112 96 177t183 65q79 0 155 -37l-26 -105q-62 27 -118 27q-120 0 -160 -127h229l-21 -87h-223q-1 -8 -1 -26q0 -19 1 -28h208l-20 -86h-174q39 -133 162 -133
q65 0 119 27z" />
    <glyph glyph-name="uni2116" unicode="&#x2116;" horiz-adv-x="1051" 
d="M854 416q-82 0 -124 54t-42 135t42 135t124 54t123.5 -54t41.5 -135t-41.5 -135t-123.5 -54zM854 498q64 0 64 107t-64 107t-64 -107t64 -107zM467 37l-292 447l3 -484h-120v701h68q39 0 59 -31l296 -453l-3 483h120v-700h-63q-45 0 -68 37zM714 261v90h279v-90h-279z
" />
    <glyph glyph-name="uni2120" unicode="&#x2120;" horiz-adv-x="616" 
d="M383 538l-39 111l-35 -178h-58l51 260h55q13 0 17 -14l42 -121l50 135h54q15 0 16 -15l44 -245h-58l-31 179l-46 -126h-46q-12 0 -16 14zM107 470q-47 0 -79 16l14 49q35 -14 69 -14q53 0 53 28q0 22 -37 29l-29 5q-70 13 -70 71q0 33 29.5 56.5t80.5 23.5q44 0 73 -12
l-12 -49q-35 10 -65 10q-49 0 -49 -26q0 -19 29 -25l30 -6q77 -14 77 -71q0 -37 -28.5 -61t-85.5 -24z" />
    <glyph glyph-name="trademark" unicode="&#x2122;" horiz-adv-x="616" 
d="M101 471v205l-67 8v47h195v-47l-66 -8v-205h-62zM383 538l-39 111l-34 -178h-59l51 260h55q13 0 17 -14l43 -122l50 136h53q15 0 16 -15l44 -245h-57l-32 179l-46 -126h-46q-12 0 -16 14z" />
    <glyph glyph-name="uni2150" unicode="&#x2150;" horiz-adv-x="815" 
d="M98 0l501 700h107l-500 -700h-108zM297 329h-257v80h84v190l-79 -34v85l86 40q30 14 58 14h24v-295h84v-80zM658 0h-99q18 155 127 291h-169v81h259l2 -58q-42 -56 -76.5 -139.5t-43.5 -174.5z" />
    <glyph glyph-name="uni2151" unicode="&#x2151;" horiz-adv-x="800" 
d="M112 0l501 700h107l-501 -700h-107zM297 329h-257v80h84v190l-79 -34v85l86 40q30 14 58 14h24v-295h84v-80zM636 188q30 0 50 16v18q0 32 -14.5 52.5t-42.5 20.5q-23 0 -37 -15t-14 -37q0 -23 15.5 -39t42.5 -16zM611 -8q-67 0 -99 30l17 73q29 -24 85 -24q67 0 72 77
q-30 -23 -72 -23q-59 0 -92.5 33t-33.5 85q0 57 39.5 94.5t102.5 37.5q67 0 106.5 -45.5t39.5 -123.5v-28q0 -99 -45 -142.5t-120 -43.5z" />
    <glyph glyph-name="onethird" unicode="&#x2153;" horiz-adv-x="821" 
d="M114 0l500 700h107l-500 -700h-107zM297 329h-257v80h84v190l-79 -34v85l86 40q30 14 58 14h24v-295h84v-80zM627 -8q-59 0 -106 21l27 74q34 -14 73 -14q55 0 55 42q0 39 -56 39h-44v73h43q46 0 46 37q0 36 -49 36q-28 0 -73 -15l-20 70q42 20 106 20t95.5 -26.5
t31.5 -68.5q0 -26 -14 -50.5t-33 -34.5q24 -8 41 -31t17 -52q0 -54 -34.5 -87t-105.5 -33z" />
    <glyph glyph-name="twothirds" unicode="&#x2154;" horiz-adv-x="799" 
d="M43 329v71q0 26 15 48.5t28 32t41 26.5l30 19q45 26 45 58q0 19 -16 31.5t-43 12.5q-41 0 -82 -22l-22 71q58 26 114 26q64 0 102 -29.5t38 -77.5q0 -68 -82 -121l-29 -17q-39 -24 -39 -40v-9h152v-80h-252zM98 0l500 700h107l-500 -700h-107zM605 -8q-58 0 -106 21
l27 74q36 -14 73 -14q56 0 56 42q0 39 -56 39h-44v73h42q46 0 46 37q0 36 -48 36q-27 0 -74 -15l-20 70q44 20 106 20q64 0 95.5 -26.5t31.5 -68.5q0 -26 -14 -50.5t-33 -34.5q25 -8 42 -31t17 -52q0 -54 -35 -87t-106 -33z" />
    <glyph glyph-name="oneeighth" unicode="&#x215b;" horiz-adv-x="791" 
d="M116 0l500 700h108l-501 -700h-107zM297 329h-257v80h84v190l-79 -34v85l86 40q30 14 58 14h24v-295h84v-80zM620 -8q-61 0 -98.5 28t-37.5 75q0 66 72 88q-59 29 -59 89q0 45 35 74t91 29t91 -26t35 -66q0 -57 -56 -78q69 -30 69 -98q0 -53 -39 -84t-103 -31zM632 223
l4 -1q28 16 28 44q0 18 -11.5 29t-29.5 11t-29.5 -10.5t-11.5 -27.5q0 -35 50 -45zM623 63q23 0 38.5 13.5t15.5 35.5q0 35 -49 47l-11 3q-24 -5 -36 -19t-12 -31q0 -22 15.5 -35.5t38.5 -13.5z" />
    <glyph glyph-name="arrowleft" unicode="&#x2190;" horiz-adv-x="774" 
d="M450 192l-175 3l175 -173h-93q-38 0 -64 26l-193 194v2l193 193q26 26 64 26h93l-176 -173l176 3h244v-101h-244z" />
    <glyph glyph-name="arrowup" unicode="&#x2191;" horiz-adv-x="617" 
d="M359 196v-196h-101v196l3 165l-173 -146v75q0 40 26 63l194 167h2l193 -167q26 -23 26 -63v-75l-173 147z" />
    <glyph glyph-name="arrowright" unicode="&#x2192;" horiz-adv-x="774" 
d="M417 22h-93l175 173l-175 -3h-244v101h244l176 -3l-176 173h93q38 0 64 -26l193 -193v-2l-193 -194q-26 -26 -64 -26z" />
    <glyph glyph-name="arrowdown" unicode="&#x2193;" horiz-adv-x="617" 
d="M310 -12h-2l-194 167q-26 23 -26 63v75l173 -146l-3 165v188h101v-188l-3 -166l173 147v-75q0 -40 -26 -63z" />
    <glyph glyph-name="arrowboth" unicode="&#x2194;" horiz-adv-x="1165" 
d="M357 22q-38 0 -64 26l-193 194v2l193 193q26 26 64 26h93l-176 -173l176 3h265l177 -3l-177 173h94q38 0 64 -26l192 -193v-2l-192 -194q-26 -26 -64 -26h-94l176 173l-176 -3h-265l-175 3l175 -173h-93z" />
    <glyph glyph-name="arrowupdn" unicode="&#x2195;" horiz-adv-x="617" 
d="M307 -12l-192 117q-26 14 -26 61v54l172 -104l-3 114v48l3 114l-173 -104v53q0 48 26 62l194 117h2l193 -117q26 -14 26 -61v-54l-173 104l3 -114v-48l-3 -114l174 104v-53q0 -48 -27 -62l-194 -117h-2z" />
    <glyph glyph-name="arrowupleft" unicode="&#x2196;" horiz-adv-x="662" 
d="M602 84l-76 -84l-334 326v-274l-68 48q-36 26 -36 69v330l1 1h342q46 0 69 -40l38 -60h-272z" />
    <glyph glyph-name="arrowupright" unicode="&#x2197;" horiz-adv-x="662" 
d="M470 52v274l-334 -326l-76 84l336 316h-272l38 60q23 40 69 40h342l1 -1v-330q0 -43 -36 -69z" />
    <glyph glyph-name="arrowdownright" unicode="&#x2198;" horiz-adv-x="662" 
d="M573 0h-344q-47 0 -68 40l-38 60h273l-336 316l76 84l334 -326v277l68 -48q36 -26 36 -69v-333z" />
    <glyph glyph-name="arrowdownleft" unicode="&#x2199;" horiz-adv-x="662" 
d="M433 0h-344l-1 1v333q0 43 36 69l68 48v-277l334 326l76 -84l-336 -316h273l-38 -60q-21 -40 -68 -40z" />
    <glyph glyph-name="minus" unicode="&#x2212;" horiz-adv-x="590" 
d="M79 253v113h432v-113h-432z" />
    <glyph glyph-name="infinity" unicode="&#x221e;" horiz-adv-x="794" 
d="M572 169q39 0 64.5 26.5t25.5 63.5q0 38 -25.5 65.5t-64.5 27.5q-41 0 -88 -50l-37 -43l38 -41q49 -49 87 -49zM223 166q43 0 89 51l38 41l-41 43q-48 48 -86 48q-40 0 -65 -26.5t-25 -63.5q0 -38 24.5 -65.5t65.5 -27.5zM358 172q-71 -71 -144 -71q-77 0 -118.5 45.5
t-41.5 112.5q0 65 41.5 109t118.5 44q74 0 140 -66l43 -42l38 42q67 69 145 69q75 0 117.5 -45.5t42.5 -110.5q0 -67 -42.5 -111t-117.5 -44q-72 0 -142 68l-40 41z" />
    <glyph glyph-name="notequal" unicode="&#x2260;" horiz-adv-x="590" 
d="M511 162h-190l-21 -104h-108l21 104h-134v98h154l17 84h-171v98h190l22 107h108l-22 -107h134v-98h-153l-17 -84h170v-98z" />
    <glyph glyph-name="lessequal" unicode="&#x2264;" horiz-adv-x="599" 
d="M517 175l-437 154v103l437 153v-106l-295 -97l295 -97v-110zM517 22l-437 154v100l437 -150v-104z" />
    <glyph glyph-name="greaterequal" unicode="&#x2265;" horiz-adv-x="599" 
d="M80 175v110l295 97l-295 97v106l437 -153v-103zM80 22v104l437 150v-100z" />
    <glyph glyph-name="uni22A0" unicode="&#x22a0;" horiz-adv-x="799" 
d="M53 0v700h693v-700h-693zM165 106h469v487h-469v-487zM486 204l-89 89l-89 -89l-58 58l89 89l-89 89l58 58l89 -89l89 89l58 -58l-89 -89l89 -89z" />
    <glyph glyph-name="house" unicode="&#x2302;" horiz-adv-x="819" 
d="M94 0v309l315 333l316 -333v-309h-631z" />
    <glyph glyph-name="uni2460" unicode="&#x2460;" horiz-adv-x="820" 
d="M410 -12q-149 0 -252.5 103.5t-103.5 253.5t103.5 255t252.5 105t252.5 -105t103.5 -255t-103.5 -253.5t-252.5 -103.5zM284 181h257v81h-84v294h-24q-31 0 -58 -13l-86 -40v-86l79 34v-189h-84v-81z" />
    <glyph glyph-name="uni2461" unicode="&#x2461;" horiz-adv-x="820" 
d="M410 -12q-149 0 -252.5 103.5t-103.5 253.5t103.5 255t252.5 105t252.5 -105t103.5 -255t-103.5 -253.5t-252.5 -103.5zM287 177h252v80h-152v9q0 16 39 40l29 18q82 51 82 120q0 48 -38.5 78t-101.5 30q-54 0 -114 -27l22 -71q41 22 82 22q27 0 43 -12.5t16 -31.5
q0 -32 -45 -58l-30 -18q-23 -15 -31 -20.5t-24 -20.5t-22.5 -31t-6.5 -36v-71z" />
    <glyph glyph-name="uni2462" unicode="&#x2462;" horiz-adv-x="820" 
d="M410 -12q-149 0 -252.5 103.5t-103.5 253.5t103.5 255t252.5 105t252.5 -105t103.5 -255t-103.5 -253.5t-252.5 -103.5zM484 358v2h2zM404 157q71 0 105.5 33t34.5 87q0 30 -17.5 53.5t-40.5 29.5q19 12 33 36t14 49q0 42 -31.5 68.5t-95.5 26.5t-106 -20l20 -70
q45 15 73 15q49 0 49 -36q0 -37 -46 -37h-43v-73h44q56 0 56 -39q0 -42 -55 -42q-39 0 -73 14l-27 -74q47 -21 106 -21z" />
    <glyph glyph-name="uni2463" unicode="&#x2463;" horiz-adv-x="820" 
d="M410 -12q-149 0 -252.5 103.5t-103.5 253.5t103.5 255t252.5 105t252.5 -105t103.5 -255t-103.5 -253.5t-252.5 -103.5zM405 169h84v79h43v75h-43v218h-102l-142 -225v-68h160v-79zM327 323l74 124v-124h-74z" />
    <glyph glyph-name="uni2464" unicode="&#x2464;" horiz-adv-x="820" 
d="M410 -12q-149 0 -252.5 103.5t-103.5 253.5t103.5 255t252.5 105t252.5 -105t103.5 -255t-103.5 -253.5t-252.5 -103.5zM377 152q79 0 122 38.5t43 103.5q0 53 -32.5 81t-80.5 28q-21 0 -47 -8v56h144v80h-222v-197l46 -12q16 13 47 13q27 0 42 -13t15 -33
q0 -26 -19.5 -41t-55.5 -15t-72 15l-29 -76q35 -20 99 -20z" />
    <glyph glyph-name="uni2465" unicode="&#x2465;" horiz-adv-x="820" 
d="M410 -12q-149 0 -252.5 103.5t-103.5 253.5t103.5 255t252.5 105t252.5 -105t103.5 -255t-103.5 -253.5t-252.5 -103.5zM411 157q59 0 97 39t38 97q0 45 -31 78t-83 33q-49 0 -83 -36q4 51 25 72t59 22q39 0 71 -15l15 74q-36 18 -84 18q-71 0 -123.5 -45.5t-52.5 -141.5
v-12q0 -84 42 -133.5t110 -49.5zM407 237q-26 0 -41.5 19.5t-15.5 44.5v4q18 32 57 32q23 0 35.5 -14.5t12.5 -35.5t-13.5 -35.5t-34.5 -14.5z" />
    <glyph glyph-name="uni2466" unicode="&#x2466;" horiz-adv-x="820" 
d="M410 -12q-149 0 -252.5 103.5t-103.5 253.5t103.5 255t252.5 105t252.5 -105t103.5 -255t-103.5 -253.5t-252.5 -103.5zM329 153h98q10 90 44.5 174t75.5 140l-1 58h-259v-81h168q-109 -139 -126 -291z" />
    <glyph glyph-name="uni2467" unicode="&#x2467;" horiz-adv-x="820" 
d="M410 -12q-149 0 -252.5 103.5t-103.5 253.5t103.5 255t252.5 105t252.5 -105t103.5 -255t-103.5 -253.5t-252.5 -103.5zM406 158q64 0 103 31t39 84q0 66 -67 97q54 21 54 77q0 41 -35 67.5t-91 26.5t-91 -29t-35 -74q0 -58 59 -88q-72 -23 -72 -89q0 -47 37.5 -75
t98.5 -28zM421 388l-8 2q-43 9 -43 44q0 17 11 27.5t28 10.5t27.5 -11t10.5 -29q0 -28 -26 -44zM409 229q-23 0 -38.5 13.5t-15.5 35.5q0 17 12 31t35 19l12 -3q49 -12 49 -47q0 -22 -15.5 -35.5t-38.5 -13.5z" />
    <glyph glyph-name="uni2468" unicode="&#x2468;" horiz-adv-x="820" 
d="M410 -12q-149 0 -252.5 103.5t-103.5 253.5t103.5 255t252.5 105t252.5 -105t103.5 -255t-103.5 -253.5t-252.5 -103.5zM417 349q-26 0 -42 16t-16 39q0 22 14 37t37 15q29 0 43.5 -20t14.5 -53v-18q-20 -16 -51 -16zM392 153q75 0 120 43.5t45 142.5v28
q0 78 -39.5 123.5t-106.5 45.5q-62 0 -102 -37.5t-40 -94.5q0 -52 33.5 -85t92.5 -33q42 0 72 23v-4q0 -73 -72 -73q-56 0 -85 24l-17 -73q32 -30 99 -30z" />
    <glyph glyph-name="uni24C5" unicode="&#x24c5;" horiz-adv-x="879" 
d="M440 -22q-164 0 -275 109t-111 270q0 162 111 271t275 109t274.5 -109t110.5 -271q0 -161 -110.5 -270t-274.5 -109zM440 63q125 0 208.5 84t83.5 210q0 127 -83.5 211.5t-208.5 84.5t-209 -84.5t-84 -211.5q0 -126 84 -210t209 -84zM440 345q52 0 72.5 24.5t20.5 58.5
q0 25 -15.5 43t-53.5 18h-70v-138q22 -6 46 -6zM440 277q-24 0 -46 6v-126h-76v401h141q81 0 118 -37t37 -93q0 -65 -43 -108t-131 -43z" />
    <glyph glyph-name="uni24EA" unicode="&#x24ea;" horiz-adv-x="820" 
d="M410 -12q-149 0 -252.5 103.5t-103.5 253.5t103.5 255t252.5 105t252.5 -105t103.5 -255t-103.5 -253.5t-252.5 -103.5zM410 157q73 0 110 55.5t37 137.5q0 80 -37 133.5t-110 53.5q-71 0 -107.5 -53.5t-36.5 -133.5q0 -82 36.5 -137.5t107.5 -55.5zM410 237
q-25 0 -40 29t-15 84q0 53 15 79.5t40 26.5q57 0 57 -106q0 -113 -57 -113z" />
    <glyph glyph-name="uni25A0" unicode="&#x25a0;" horiz-adv-x="799" 
d="M53 0v700h693v-700h-693z" />
    <glyph glyph-name="uni25A1" unicode="&#x25a1;" horiz-adv-x="799" 
d="M53 0v700h693v-700h-693zM165 106h469v487h-469v-487z" />
    <glyph glyph-name="uni25AA" unicode="&#x25aa;" horiz-adv-x="601" 
d="M53 0v500h495v-500h-495z" />
    <glyph glyph-name="uni25AB" unicode="&#x25ab;" horiz-adv-x="601" 
d="M53 0v500h495v-500h-495zM154 96h293v308h-293v-308z" />
    <glyph glyph-name="triagup" unicode="&#x25b2;" horiz-adv-x="650" 
d="M80 0l240 510h10l240 -510h-490z" />
    <glyph glyph-name="triagrt" unicode="&#x25ba;" horiz-adv-x="617" 
d="M108 -10v520h8l413 -250v-10l-413 -260h-8z" />
    <glyph glyph-name="triagdn" unicode="&#x25bc;" horiz-adv-x="650" 
d="M320 -12l-240 512h490l-240 -512h-10z" />
    <glyph glyph-name="triaglf" unicode="&#x25c4;" horiz-adv-x="617" 
d="M501 -10l-413 260v10l413 250h8v-520h-8z" />
    <glyph glyph-name="uni25CB" unicode="&#x25cb;" horiz-adv-x="820" 
d="M410 -12q-149 0 -252.5 103.5t-103.5 253.5t103.5 255t252.5 105t252.5 -105t103.5 -255t-103.5 -253.5t-252.5 -103.5zM410 98q97 0 164 71.5t67 175.5q0 105 -67 177t-164 72q-98 0 -165 -72t-67 -177q0 -104 67 -175.5t165 -71.5z" />
    <glyph glyph-name="uni25CF" unicode="&#x25cf;" horiz-adv-x="820" 
d="M410 -12q-149 0 -252.5 103.5t-103.5 253.5t103.5 255t252.5 105t252.5 -105t103.5 -255t-103.5 -253.5t-252.5 -103.5z" />
    <glyph glyph-name="uni2605" unicode="&#x2605;" horiz-adv-x="882" 
d="M646 -6l-205 152l-205 -152l-19 13l85 237l-212 142l7 22l258 -8l74 241h24l74 -241l258 8l7 -22l-212 -142l85 -237z" />
    <glyph glyph-name="uni2612" unicode="&#x2612;" horiz-adv-x="601" 
d="M53 0v500h495v-500h-495zM154 96h293v308h-293v-308zM376 128l-75 75l-75 -75l-45 45l75 75l-75 76l45 45l75 -75l75 75l46 -45l-75 -76l75 -75z" />
    <glyph glyph-name="uni263D" unicode="&#x263d;" horiz-adv-x="752" 
d="M450 -15q-170 0 -263 85.5t-93 242.5q0 145 95 236t261 91q54 0 110 -17t95 -46l13 -9l-13 -23l-14 4q-39 12 -69 12q-90 0 -152 -66.5t-62 -174.5t63 -181.5t152 -73.5q37 0 67 11l15 5l13 -24l-13 -9q-39 -29 -95 -46t-110 -17z" />
    <glyph glyph-name="spade" unicode="&#x2660;" horiz-adv-x="796" 
d="M294 0v21q78 94 90 248h-4q-23 -58 -63.5 -96.5t-96.5 -38.5q-59 0 -99.5 42.5t-40.5 104.5q0 32 12 60.5t38 56t48 46t60 47.5l12 9q36 28 58.5 48t47.5 50.5t37 60.5h10q18 -44 52.5 -80t89.5 -80q91 -71 117 -99q54 -59 54 -119q0 -62 -40.5 -104.5t-99.5 -42.5
q-56 0 -96.5 38.5t-63.5 96.5h-4q12 -151 92 -248v-21h-210z" />
    <glyph glyph-name="club" unicode="&#x2663;" horiz-adv-x="792" 
d="M291 0v22q78 99 89 238h-6q-52 -130 -154 -130q-59 0 -99.5 41t-40.5 101q0 63 38.5 104.5t99.5 41.5q33 0 67 -19l1 2q-30 48 -30 95q0 61 40.5 103.5t99.5 42.5t99.5 -42.5t40.5 -103.5q0 -47 -30 -95l1 -2q34 19 67 19q61 0 99.5 -41.5t38.5 -104.5q0 -60 -40.5 -101
t-99.5 -41q-102 0 -154 130h-6q11 -138 90 -238v-22h-211z" />
    <glyph glyph-name="heart" unicode="&#x2665;" horiz-adv-x="860" 
d="M429 -10q-344 256 -344 464q0 70 45 115t121 45q74 0 114 -33t62 -89h6q22 56 62 89t114 33q76 0 121 -45t45 -115q0 -210 -344 -464h-2z" />
    <glyph glyph-name="diamond" unicode="&#x2666;" horiz-adv-x="738" 
d="M356 -7l-3 5q-49 82 -121 163t-152 146v28q168 135 273 308l3 5h26l3 -5q105 -173 273 -308v-28q-80 -65 -152 -146t-121 -163l-3 -5h-26z" />
    <glyph glyph-name="uni2672" unicode="&#x2672;" horiz-adv-x="875" 
d="M615 432l-138 25l33 19l-58 100q-11 19 -29 30.5t-31 13.5l-13 2h155q19 0 29 -1.5t22.5 -10t21.5 -25.5l23 -39l34 19zM336 408l-120 69l54 95q9 15 27 25q37 19 77.5 8t54.5 -36zM675 190l-93 161l119 69l55 -94q8 -14 8 -35q1 -38 -30 -69.5t-59 -31.5zM203 96
l-76 134q-9 17 -12.5 26t-2.5 24.5t11 32.5l23 39l-34 19l139 25l48 -133l-33 19q-56 -96 -58 -100q-11 -18 -11.5 -39.5t3.5 -34.5l5 -12h-2zM555 -8l-91 109l91 108v-39h116q21 0 40 10t27 20l9 11v-1l-76 -134q-12 -18 -17 -24t-19.5 -13.5t-34.5 -7.5h-45v-39zM305 31
q-19 0 -35 11q-34 20 -46 63.5t3 64.5h186v-139h-108z" />
    <glyph glyph-name="uni26AA" unicode="&#x26aa;" horiz-adv-x="624" 
d="M312 -12q-110 0 -186 76.5t-76 185.5q0 110 75.5 186t186.5 76t186.5 -76t75.5 -186q0 -109 -76 -185.5t-186 -76.5zM312 90q66 0 111 46.5t45 113.5q0 68 -45 114.5t-111 46.5q-65 0 -110 -46.5t-45 -114.5q0 -67 45 -113.5t110 -46.5z" />
    <glyph glyph-name="uni26AB" unicode="&#x26ab;" horiz-adv-x="624" 
d="M312 -12q-110 0 -186 76.5t-76 185.5q0 110 75.5 186t186.5 76t186.5 -76t75.5 -186q0 -109 -76 -185.5t-186 -76.5z" />
    <glyph glyph-name="uni29EB" unicode="&#x29eb;" horiz-adv-x="561" 
d="M274 -12l-209 323l210 325h12l209 -327l-209 -321h-13z" />
    <glyph glyph-name="onefifth" horiz-adv-x="816" 
d="M110 0l500 700h107l-500 -700h-107zM297 329h-257v80h84v190l-79 -34v85l86 40q30 14 58 14h24v-295h84v-80zM615 -8q-63 0 -98 20l28 76q36 -15 72 -15t56 15t20 42q0 20 -15.5 33t-42.5 13t-47 -13l-46 11v198h223v-81h-145v-56q22 8 47 8q48 0 80.5 -28t32.5 -81
q0 -65 -42.5 -103.5t-122.5 -38.5z" />
    <glyph glyph-name="onesixth" horiz-adv-x="757" 
d="M91 0l500 700h107l-500 -700h-107zM297 329h-257v80h84v190l-79 -34v85l86 40q30 14 58 14h24v-295h84v-80zM732 129q0 -59 -37.5 -98t-97.5 -39q-67 0 -109 49.5t-42 133.5v13q0 96 52 141.5t123 45.5q54 0 84 -19l-15 -74q-28 16 -71 16q-38 -1 -59 -22t-24 -72
q33 36 83 36q52 0 82.5 -33t30.5 -78zM594 73q21 0 34.5 14.5t13.5 35.5t-12.5 35.5t-35.5 14.5q-40 0 -58 -37q5 -28 20 -45.5t38 -17.5z" />
    <glyph glyph-name="twofifths" horiz-adv-x="789" 
d="M43 329v71q0 26 15 48.5t28 32t41 26.5l30 19q45 26 45 58q0 19 -16 31.5t-43 12.5q-41 0 -82 -22l-22 71q58 26 114 26q64 0 102 -29.5t38 -77.5q0 -68 -82 -121l-29 -17q-39 -24 -39 -40v-9h152v-80h-252zM93 0l501 700h107l-501 -700h-107zM588 -8q-63 0 -98 20l28 76
q36 -15 72 -15t56 15t20 42q0 20 -15.5 33t-42.5 13t-47 -13l-46 11v198h223v-81h-145v-56q22 8 47 8q48 0 80.5 -28t32.5 -81q0 -65 -42.5 -103.5t-122.5 -38.5z" />
    <glyph glyph-name="threefifths" horiz-adv-x="763" 
d="M60 0l501 700h107l-500 -700h-108zM142 321q-61 0 -107 20l27 75q32 -14 73 -14q56 0 56 41q0 40 -56 40h-44v73h42q46 0 46 36q0 37 -48 37q-30 0 -74 -16l-20 71q46 19 107 19q63 0 94.5 -26t31.5 -68q0 -26 -14 -50.5t-32 -35.5q24 -7 41 -30t17 -52q0 -54 -34.5 -87
t-105.5 -33zM561 -8q-63 0 -98 20l29 76q34 -15 71 -15q76 0 76 57q0 20 -15.5 33t-42.5 13t-47 -13l-46 11v198h223v-81h-144v-56q21 8 47 8q47 0 79.5 -28t32.5 -81q0 -65 -42.5 -103.5t-122.5 -38.5z" />
    <glyph glyph-name="fourfifths" horiz-adv-x="781" 
d="M89 0l500 700h107l-500 -700h-107zM188 479v144l-85 -144h85zM312 408h-41v-79h-83v79h-162v67l142 225h103v-221h41v-71zM580 -8q-64 0 -98 20l28 76q36 -15 72 -15t56 15t20 42q0 20 -15.5 33t-42.5 13q-28 0 -47 -13l-46 11v198h222v-81h-144v-56q21 8 47 8
q48 0 80.5 -28t32.5 -81q0 -65 -42.5 -103.5t-122.5 -38.5z" />
    <glyph glyph-name="zero.sups" 
d="M167 417q-71 0 -108 55.5t-37 137.5q0 80 36.5 133.5t108.5 53.5t109 -53.5t37 -133.5q0 -82 -37 -137.5t-109 -55.5zM167 498q26 0 41.5 28.5t15.5 83.5q0 53 -15.5 80t-41.5 27q-55 0 -55 -107q0 -112 55 -112z" />
    <glyph glyph-name="one.sups" 
d="M297 425h-257v81h84v189l-79 -34v86l86 40q31 13 58 13h24v-294h84v-81z" />
    <glyph glyph-name="two.sups" 
d="M43 425v72q0 36 20 58t57 45q2 1 3.5 2t3.5 2l30 18q45 28 45 58q0 19 -16 31.5t-43 12.5q-41 0 -82 -22l-22 71q60 27 114 27q64 0 102 -29.5t38 -77.5q0 -70 -82 -121l-29 -18q-39 -24 -39 -39v-9h152v-81h-252z" />
    <glyph glyph-name="three.sups" horiz-adv-x="327" 
d="M142 417q-59 0 -107 21l27 74q36 -14 73 -14q56 0 56 42q0 39 -56 39h-44v73h42q46 0 46 37q0 36 -48 36q-27 0 -74 -15l-20 70q44 20 107 20t94.5 -26.5t31.5 -68.5q0 -26 -14 -50.5t-32 -34.5q24 -8 41 -31t17 -52q0 -54 -34.5 -87t-105.5 -33z" />
    <glyph glyph-name="four.sups" 
d="M188 576v143l-85 -143h85zM312 504h-41v-79h-83v79h-162v68l142 225h103v-221h41v-72z" />
    <glyph glyph-name="five.sups" 
d="M134 417q-63 0 -98 20l29 76q34 -15 71 -15q76 0 76 57q0 20 -15.5 33t-42.5 13t-47 -13l-46 11v198h223v-81h-144v-56q21 8 47 8q47 0 79.5 -28t32.5 -81q0 -65 -42.5 -103.5t-122.5 -38.5z" />
    <glyph glyph-name="six.sups" 
d="M311 554q0 -58 -38 -97.5t-97 -39.5q-67 0 -109 49.5t-42 133.5v13q0 96 52 141.5t123 45.5q51 0 84 -19l-15 -74q-28 16 -71 16q-38 -1 -59 -22t-24 -72q33 36 82 36q52 0 83 -33t31 -78zM173 498q21 0 34.5 14.5t13.5 35.5q0 20 -12.5 35t-35.5 15q-40 0 -58 -37
q4 -28 19.5 -45.5t38.5 -17.5z" />
    <glyph glyph-name="seven.sups" 
d="M178 425h-98q17 152 126 291h-168v81h259l1 -58q-41 -56 -75.5 -139.5t-44.5 -174.5z" />
    <glyph glyph-name="eight.sups" 
d="M165 417q-62 0 -99 28t-37 75q0 66 72 88q-59 29 -59 89q0 45 35 74t91 29t91 -26t35 -66q0 -57 -56 -78q69 -30 69 -98q0 -53 -39 -84t-103 -31zM177 648l4 -1q28 16 28 44q0 18 -11.5 29t-29.5 11t-30 -10.5t-12 -27.5q0 -35 51 -45zM168 488q23 0 38.5 13.5t15.5 35.5
q0 35 -49 47l-11 3q-24 -5 -36 -19t-12 -31q0 -22 15.5 -35.5t38.5 -13.5z" />
    <glyph glyph-name="nine.sups" 
d="M172 613q30 0 50 16v18q0 32 -14.5 52.5t-42.5 20.5q-23 0 -37.5 -15t-14.5 -37q0 -23 16 -39t43 -16zM147 417q-67 0 -99 30l16 73q31 -24 85 -24q68 0 73 77q-30 -23 -72 -23q-59 0 -92.5 33t-33.5 85q0 57 39.5 94.5t102.5 37.5q67 0 106.5 -45.5t39.5 -123.5v-28
q0 -99 -45 -142.5t-120 -43.5z" />
    <glyph glyph-name="a.sups" horiz-adv-x="385" 
d="M192 488q34 0 56 22v3q-2 35 -20.5 56.5t-46.5 21.5q-22 0 -37 -13.5t-15 -36.5t17.5 -38t45.5 -15zM261 425l-8 40q-12 -21 -38.5 -35t-62.5 -14q-55 0 -88.5 34t-33.5 83q0 56 37 88.5t93 32.5q63 0 89 -42v14q0 86 -81 86q-46 0 -92 -27l-20 83q49 26 124 26
q161 0 161 -151v-218h-80z" />
    <glyph glyph-name="b.sups" horiz-adv-x="416" 
d="M196 416q-87 0 -148 35v514h97v-214q35 43 95 43q66 0 104.5 -47.5t38.5 -130.5q0 -99 -49 -149.5t-138 -50.5zM203 498q80 0 80 113q0 100 -65 100q-30 0 -49.5 -26t-19.5 -77v-98q20 -12 54 -12z" />
    <glyph glyph-name="c.sups" horiz-adv-x="337" 
d="M218 416q-88 0 -137 52t-49 137t49 137t137 52q54 0 90 -18l-19 -82q-35 13 -66 13q-42 0 -66 -27t-24 -75t24 -75t66 -27q35 0 66 14l19 -82q-38 -19 -90 -19z" />
    <glyph glyph-name="d.sups" horiz-adv-x="416" 
d="M204 499q26 0 44.5 17.5t18.5 50.5v111q-21 33 -62 33q-34 0 -53 -29t-19 -77q0 -106 71 -106zM273 471q-15 -24 -43 -39.5t-59 -15.5q-64 0 -101.5 48.5t-37.5 138.5q0 87 42 139t113 52q51 0 84 -31v202h97v-540h-87z" />
    <glyph glyph-name="e.sups" horiz-adv-x="387" 
d="M200 715q-52 0 -63 -71h122q-1 30 -15.5 50.5t-43.5 20.5zM350 446q-62 -30 -131 -30q-92 0 -139.5 53.5t-47.5 135.5q0 81 42 135t124 54q80 0 117 -50t37 -136v-24h-217q3 -44 24 -65.5t68 -21.5q54 0 98 23z" />
    <glyph glyph-name="f.sups" horiz-adv-x="297" 
d="M80 425v283l-62 12v65h62v67q0 62 35.5 92t111.5 30q39 0 65 -11l-12 -80q-23 7 -44 7q-55 0 -55 -48v-57h96v-67l-96 -14v-279h-101z" />
    <glyph glyph-name="g.sups" horiz-adv-x="400" 
d="M177 238q-73 -1 -116.5 26.5t-43.5 78.5q0 70 80 97q-22 16 -22 40q0 46 68 67q-49 5 -81 36.5t-32 79.5q0 56 44 93.5t113 37.5q40 0 74 -13l108 22l15 -64l-27 -6l-34 -2q21 -30 21 -68q0 -101 -134 -135l-15 -3q-18 -5 -18 -18q0 -12 18 -15l52 -8q122 -21 122 -105
q0 -67 -56.5 -104t-135.5 -37zM188 598q28 0 44 16.5t16 43.5q0 26 -16.5 43.5t-45.5 17.5q-28 0 -44.5 -16.5t-16.5 -44.5q0 -26 17 -43t46 -17zM192 316q31 0 53 13t22 40q0 36 -55 43l-57 7l-7 1q-37 -17 -37 -51q0 -26 22.5 -39.5t58.5 -13.5z" />
    <glyph glyph-name="h.sups" horiz-adv-x="415" 
d="M149 643v-218h-101v540h97v-219q36 48 99 48q65 0 96 -37t31 -100v-232h-102v218q0 34 -16.5 51t-42.5 17q-25 0 -43 -17t-18 -51z" />
    <glyph glyph-name="i.sups" horiz-adv-x="204" 
d="M102 828q-27 0 -45.5 18t-18.5 46q0 27 18.5 45.5t45.5 18.5t45.5 -18.5t18.5 -45.5q0 -28 -18.5 -46t-45.5 -18zM51 425v360h102v-360h-102z" />
    <glyph glyph-name="j.sups" horiz-adv-x="203" 
d="M102 828q-28 0 -46.5 18t-18.5 46q0 27 18.5 45.5t46.5 18.5q27 0 45.5 -18.5t18.5 -45.5q0 -28 -18.5 -46t-45.5 -18zM20 243q-30 0 -59 9l11 78q2 0 7 -1.5t11 -2.5t11 -1q27 0 38.5 14.5t11.5 44.5v401h101v-409q0 -68 -32 -100.5t-100 -32.5z" />
    <glyph glyph-name="k.sups" horiz-adv-x="397" 
d="M132 447q-15 -22 -43 -22h-41v540h96v-373l139 208h101l-119 -167l128 -208h-104l-80 129z" />
    <glyph glyph-name="l.sups" horiz-adv-x="219" 
d="M159 419q-108 0 -108 101v445h100v-439q0 -24 27 -24q14 0 18 3l11 -77q-23 -9 -48 -9z" />
    <glyph glyph-name="m.sups" horiz-adv-x="634" 
d="M149 643v-218h-101v360h57q18 0 23 -16l7 -26q39 51 107 51q81 0 111 -57q16 26 45.5 41.5t64.5 15.5q65 0 96 -37t31 -100v-232h-101v218q0 34 -16 51t-42 17q-25 0 -42.5 -17t-17.5 -51v-218h-102v218q0 34 -16.5 51t-42.5 17q-25 0 -43 -17t-18 -51z" />
    <glyph glyph-name="n.sups" horiz-adv-x="415" 
d="M149 643v-218h-101v360h57q18 0 23 -16l7 -26q39 51 107 51q65 0 97 -37t32 -100v-232h-102v218q0 34 -16.5 51t-42.5 17q-25 0 -43 -17t-18 -51z" />
    <glyph glyph-name="o.sups" horiz-adv-x="396" 
d="M198 416q-82 0 -124 54t-42 135t42 135t124 54t123.5 -54t41.5 -135t-41.5 -135t-123.5 -54zM198 498q64 0 64 107t-64 107t-64 -107t64 -107z" />
    <glyph glyph-name="p.sups" horiz-adv-x="416" 
d="M206 498q77 0 77 113q0 46 -16.5 73t-48.5 27q-30 0 -49.5 -26t-19.5 -77v-92q1 0 7.5 -4t12.5 -6.5t16.5 -5t20.5 -2.5zM149 439v-194h-101v540h56q19 0 23 -16l8 -32q34 57 105 57q66 0 104.5 -47.5t38.5 -131.5q0 -94 -41 -146.5t-114 -52.5q-47 0 -79 23z" />
    <glyph glyph-name="q.sups" horiz-adv-x="416" 
d="M368 245h-101v213q-13 -18 -40 -30t-56 -12q-64 0 -101.5 48.5t-37.5 138.5q0 87 42 139t113 52q56 0 90 -36l10 27h81v-540zM204 499q26 0 44.5 17.5t18.5 50.5v111q-21 33 -62 33q-34 0 -53 -29t-19 -77q0 -106 71 -106z" />
    <glyph glyph-name="r.sups" horiz-adv-x="279" 
d="M149 618v-193h-101v360h57q18 0 23 -16l9 -35q29 60 98 60q19 0 32 -6l-22 -96q-14 7 -33 7q-27 0 -45 -20t-18 -61z" />
    <glyph glyph-name="s.sups" horiz-adv-x="356" 
d="M161 416q-63 0 -128 28l25 78q61 -24 103 -24q60 0 60 33q0 28 -44 34q-139 17 -139 110q0 45 38.5 82t112.5 37q68 0 118 -21l-21 -79q-61 18 -89 18q-60 0 -60 -32q0 -26 46 -32q137 -17 137 -109q0 -52 -40.5 -87.5t-118.5 -35.5z" />
    <glyph glyph-name="t.sups" horiz-adv-x="298" 
d="M209 416q-68 0 -100 32t-32 100v158l-62 14v65h62v104h102v-104h94v-71l-94 -12v-146q0 -30 11 -44.5t38 -14.5q15 0 31 7l12 -78q-24 -10 -62 -10z" />
    <glyph glyph-name="u.sups" horiz-adv-x="415" 
d="M289 425l-7 51q-16 -26 -45.5 -43t-66.5 -17q-62 0 -92.5 37t-30.5 100v232h101v-218q0 -68 60 -68q25 0 42.5 16.5t17.5 50.5v219h102v-360h-81z" />
    <glyph glyph-name="v.sups" horiz-adv-x="389" 
d="M237 419h-54q-18 0 -26.5 6t-14.5 23l-127 337h107l72 -235l73 235h106z" />
    <glyph glyph-name="w.sups" horiz-adv-x="514" 
d="M312 451l-52 221l-61 -253h-54q-19 0 -28 6.5t-13 24.5l-89 335h101l43 -229l56 229h71q18 0 22 -17l51 -207l47 224h92l-91 -366h-54q-19 0 -28 6.5t-13 25.5z" />
    <glyph glyph-name="x.sups" horiz-adv-x="395" 
d="M252 444l-53 90l-67 -109h-113l124 183l-117 177h89q23 0 32 -16l51 -84l60 100h111l-115 -175l123 -185h-88q-25 0 -37 19z" />
    <glyph glyph-name="y.sups" horiz-adv-x="415" 
d="M198 241q-80 0 -127 38l20 78q44 -31 99 -31q48 0 67 24t19 68v50q-38 -52 -106 -52q-62 0 -92.5 37t-30.5 100v232h101v-218q0 -34 16.5 -51t43.5 -17q25 0 42.5 17t17.5 51v218h102v-375q0 -169 -172 -169z" />
    <glyph glyph-name="z.sups" horiz-adv-x="346" 
d="M318 425h-289v25q0 45 24 75l131 173l-140 -2v89h265v-27q0 -43 -21 -72l-134 -174l164 2v-89z" />
    <glyph glyph-name="period.sups" horiz-adv-x="208" 
d="M104 416q-28 0 -46.5 18.5t-18.5 45.5t18.5 45.5t46.5 18.5q27 0 45.5 -18.5t18.5 -45.5t-18.5 -45.5t-45.5 -18.5z" />
    <glyph glyph-name="comma.sups" horiz-adv-x="204" 
d="M38 322l-18 28q52 34 52 88q0 36 -30 51q0 23 17 39t42 16q31 0 47.5 -20.5t16.5 -50.5q0 -54 -41.5 -96t-85.5 -55z" />
    <glyph glyph-name="hyphen.sups" horiz-adv-x="454" 
d="M66 563v91h322v-91h-322z" />
    <glyph glyph-name="parenleft.sups" horiz-adv-x="278" 
d="M190 301q-48 50 -87.5 146.5t-39.5 212.5q0 166 82 301h95q-78 -139 -78 -301q0 -110 35 -205t83 -154h-90z" />
    <glyph glyph-name="parenright.sups" horiz-adv-x="278" 
d="M-3 301q48 59 83.5 154t35.5 205q0 160 -78 301h94q82 -137 82 -301q0 -117 -39 -213.5t-88 -145.5h-90z" />
    <glyph glyph-name="plus.sups" horiz-adv-x="454" 
d="M388 601h-115v-115h-92v115h-115v92h115v115h92v-115h115v-92z" />
    <glyph glyph-name="minus.sups" horiz-adv-x="454" 
d="M66 601v92h322v-92h-322z" />
    <glyph glyph-name="multiply.sups" horiz-adv-x="454" 
d="M309 501l-82 81l-81 -82l-65 66l81 81l-81 82l65 64l81 -81l82 82l64 -65l-81 -82l81 -81z" />
    <glyph glyph-name="equal.sups" horiz-adv-x="454" 
d="M66 667v87h322v-87h-322zM66 527v86h322v-86h-322z" />
    <glyph glyph-name="divide.sups" horiz-adv-x="454" 
d="M227 726q-25 0 -42 17t-17 42t17 42t42 17t42.5 -17t17.5 -42t-17.5 -42t-42.5 -17zM66 605v84h322v-84h-322zM227 449q-25 0 -42 17t-17 42t17 42.5t42 17.5t42.5 -17.5t17.5 -42.5t-18 -42t-42 -17z" />
    <glyph glyph-name="dollar.sups" horiz-adv-x="324" 
d="M192 363h-58v54q-57 1 -101 25l26 72q40 -20 81 -20q71 0 71 39q0 17 -12 26t-40 15l-36 9q-95 25 -95 100q0 40 27.5 70.5t76.5 41.5v49h58v-44q51 -1 91 -18l-20 -72q-48 14 -76 14q-71 0 -71 -36q0 -28 47 -37l31 -7q106 -23 106 -102q0 -43 -27 -76t-79 -44v-59z" />
    <glyph glyph-name="cent.sups" horiz-adv-x="276" 
d="M230 482q-20 -10 -49 -13v-52h-63v57q-46 12 -71 47.5t-25 86.5q0 52 25 87.5t71 47.5v57h63v-52q25 -1 50 -12l-17 -72q-21 8 -44 8q-27 0 -43.5 -16t-16.5 -48q0 -31 17 -47t43 -16q24 0 44 9z" />
    <glyph glyph-name="sterling.sups" horiz-adv-x="332" 
d="M304 506v-81h-274v81h24q72 0 72 46v7h-91v45h54l-5 4q-49 44 -49 89q0 46 39.5 74.5t103.5 28.5q55 0 113 -27l-22 -71q-39 22 -85 22q-29 0 -45 -12.5t-16 -31.5t20 -37l32 -29q3 -4 9 -10h82v-45h-67v-1q0 -32 -28 -52h133z" />
    <glyph glyph-name="florin.sups" horiz-adv-x="270" 
d="M16 292q-29 0 -47 7l16 68q16 -4 21 -4q34 0 37 38l18 199h-49l7 63h46l3 34q11 103 129 103q39 0 65 -14l-24 -68q-16 8 -37 8q-42 0 -46 -39l-3 -24h76l-7 -64h-72l-18 -206q-5 -52 -32 -76.5t-83 -24.5z" />
    <glyph glyph-name="yen.sups" horiz-adv-x="389" 
d="M305 475h-66v-50h-87v50h-68v42h68v24h-68v43h68v18l-137 183h97l83 -122l90 122h88l-134 -183v-18h66v-43h-66v-24h66v-42z" />
    <glyph glyph-name="Euro.sups" horiz-adv-x="320" 
d="M229 619h-226l10 48h28q13 61 54 97t103 36q44 0 82 -19l-17 -76q-26 12 -56 12q-52 0 -72 -50h105zM248 426q-20 -9 -50 -9q-60 0 -100 34t-54 93h-41l10 49h210l-11 -49h-72q21 -43 69 -43q31 0 56 12z" />
    <glyph glyph-name="zero.subs" 
d="M167 -148q-71 0 -108 55.5t-37 137.5q0 80 36.5 133.5t108.5 53.5t109 -53.5t37 -133.5q0 -82 -37 -137.5t-109 -55.5zM167 -67q26 0 41.5 28t15.5 84q0 53 -15.5 79.5t-41.5 26.5q-55 0 -55 -106q0 -112 55 -112z" />
    <glyph glyph-name="one.subs" 
d="M297 -140h-257v80h84v190l-79 -34v85l86 40q30 14 58 14h24v-295h84v-80z" />
    <glyph glyph-name="two.subs" 
d="M43 -140v71q0 26 15 48.5t28 32t41 26.5l30 19q45 26 45 58q0 19 -16 31.5t-43 12.5q-41 0 -82 -22l-22 71q58 26 114 26q64 0 102 -29.5t38 -77.5q0 -68 -82 -121l-29 -17q-39 -24 -39 -40v-9h152v-80h-252z" />
    <glyph glyph-name="three.subs" 
d="M142 -148q-61 0 -107 20l27 75q32 -14 73 -14q56 0 56 41q0 40 -56 40h-44v73h42q46 0 46 36q0 37 -48 37q-30 0 -74 -16l-20 71q46 19 107 19q63 0 94.5 -26t31.5 -68q0 -26 -14 -50.5t-32 -35.5q24 -7 41 -30t17 -52q0 -54 -34.5 -87t-105.5 -33z" />
    <glyph glyph-name="four.subs" 
d="M188 10v144l-85 -144h85zM312 -61h-41v-79h-83v79h-162v67l142 225h103v-221h41v-71z" />
    <glyph glyph-name="five.subs" 
d="M134 -148q-63 0 -98 20l29 76q34 -15 71 -15q36 0 56 15t20 41q0 20 -15.5 33t-42.5 13q-29 0 -47 -13l-46 12v197h223v-80h-144v-56q26 8 47 8q47 0 79.5 -28t32.5 -81q0 -65 -42.5 -103.5t-122.5 -38.5z" />
    <glyph glyph-name="six.subs" 
d="M311 -12q0 -58 -38 -97t-97 -39q-67 0 -109 49.5t-42 133.5v12q0 96 52 141.5t123 45.5q48 0 84 -18l-15 -74q-30 15 -71 15q-38 -1 -59 -21.5t-24 -71.5q32 35 82 35q52 0 83 -33t31 -78zM173 -67q21 0 34.5 14t13.5 35t-12.5 36t-35.5 15q-41 0 -58 -38
q4 -27 19.5 -44.5t38.5 -17.5z" />
    <glyph glyph-name="seven.subs" 
d="M178 -140h-98q17 150 126 291h-168v80h259l1 -57q-41 -56 -75.5 -140t-44.5 -174z" />
    <glyph glyph-name="eight.subs" 
d="M165 -148q-62 0 -99 28t-37 75q0 66 72 88q-59 29 -59 88q0 45 34.5 74t91.5 29q56 0 91 -25.5t35 -65.5q0 -57 -56 -78q69 -30 69 -99q0 -52 -39 -83t-103 -31zM177 82l4 -1q28 16 28 45q0 18 -11.5 29t-29.5 11q-17 0 -29.5 -11t-12.5 -27q0 -36 51 -46zM168 -77
q23 0 38.5 13.5t15.5 35.5q0 34 -49 47l-11 3q-24 -5 -36 -19.5t-12 -30.5q0 -22 15.5 -35.5t38.5 -13.5z" />
    <glyph glyph-name="nine.subs" 
d="M172 48q29 0 50 15v18q0 32 -14.5 52.5t-42.5 20.5q-23 0 -37.5 -14.5t-14.5 -37.5t16 -38.5t43 -15.5zM147 -148q-66 0 -99 29l16 74q30 -25 85 -25q68 0 73 78q-30 -23 -72 -23q-59 0 -92.5 33t-33.5 84q0 58 39.5 95t102.5 37q67 0 106.5 -45t39.5 -123v-28
q0 -99 -45 -142.5t-120 -43.5z" />
    <glyph glyph-name="a.subs" horiz-adv-x="385" 
d="M192 -78q35 0 56 23v2q-1 35 -19.5 56.5t-47.5 21.5q-22 0 -37 -13.5t-15 -36.5t17.5 -38t45.5 -15zM261 -141l-8 40q-12 -21 -38.5 -35t-62.5 -14q-55 0 -88.5 34t-33.5 83q0 56 37 88.5t93 32.5q62 0 89 -41v13q0 41 -18 63.5t-63 22.5q-44 0 -92 -26l-20 82
q49 26 124 26q161 0 161 -151v-218h-80z" />
    <glyph glyph-name="b.subs" horiz-adv-x="416" 
d="M196 -150q-87 0 -148 35v514h97v-214q35 43 95 43q66 0 104.5 -47.5t38.5 -130.5q0 -99 -49 -149.5t-138 -50.5zM203 -68q80 0 80 114q0 99 -65 99q-30 0 -49.5 -26t-19.5 -77v-98q20 -12 54 -12z" />
    <glyph glyph-name="c.subs" horiz-adv-x="337" 
d="M218 -150q-88 0 -137 52t-49 137t49 137t137 52q54 0 90 -18l-19 -82q-31 13 -66 13q-42 0 -66 -27t-24 -75t24 -75t66 -27q35 0 66 14l19 -82q-38 -19 -90 -19z" />
    <glyph glyph-name="d.subs" horiz-adv-x="416" 
d="M204 -67q26 0 44.5 17.5t18.5 50.5v111q-21 33 -62 33q-34 0 -53 -29t-19 -77t17.5 -77t53.5 -29zM273 -95q-15 -24 -43 -39.5t-59 -15.5q-64 0 -101.5 48.5t-37.5 138.5q0 87 42 139t113 52q51 0 84 -31v202h97v-540h-87z" />
    <glyph glyph-name="e.subs" horiz-adv-x="387" 
d="M200 150q-52 0 -63 -71h122q-1 30 -15.5 50.5t-43.5 20.5zM350 -120q-62 -30 -131 -30q-92 0 -139.5 53.5t-47.5 135.5q0 81 42 135t124 54q80 0 117 -50t37 -136v-24h-217q3 -44 24.5 -65.5t67.5 -21.5q54 0 98 23z" />
    <glyph glyph-name="f.subs" horiz-adv-x="297" 
d="M80 -141v283l-62 12v65h62v68q0 62 35.5 92t111.5 30q40 0 65 -12l-12 -80q-23 7 -44 7q-55 0 -55 -48v-57h96v-67l-96 -14v-279h-101z" />
    <glyph glyph-name="g.subs" horiz-adv-x="400" 
d="M177 -328q-73 -1 -116.5 26.5t-43.5 78.5q0 70 80 97q-22 16 -22 40q0 46 68 67q-49 5 -81 36.5t-32 79.5q0 56 44 93.5t113 37.5q40 0 74 -13l108 22l15 -64l-27 -6l-34 -1q21 -32 21 -69q0 -101 -134 -135l-15 -3q-18 -4 -18 -18q0 -12 18 -14l52 -9q122 -21 122 -105
q0 -67 -56.5 -103.5t-135.5 -37.5zM188 33q28 0 44 16.5t16 43.5q0 25 -16.5 42.5t-45.5 17.5q-28 0 -44.5 -16.5t-16.5 -43.5t17 -43.5t46 -16.5zM192 -249q31 0 53 13t22 39q0 37 -55 43l-57 7l-7 1q-37 -17 -37 -50q0 -26 22.5 -39.5t58.5 -13.5z" />
    <glyph glyph-name="h.subs" horiz-adv-x="415" 
d="M149 77v-218h-101v540h97v-219q36 48 99 48q65 0 96 -37t31 -100v-232h-102v218q0 34 -16.5 51t-42.5 17q-25 0 -43 -17t-18 -51z" />
    <glyph glyph-name="i.subs" horiz-adv-x="204" 
d="M102 262q-27 0 -45.5 18t-18.5 46q0 27 18.5 46t45.5 19t45.5 -19t18.5 -46q0 -28 -18.5 -46t-45.5 -18zM51 -141v360h102v-360h-102z" />
    <glyph glyph-name="j.subs" horiz-adv-x="203" 
d="M102 262q-28 0 -46.5 18t-18.5 46q0 27 18.5 46t46.5 19q27 0 45.5 -19t18.5 -46q0 -28 -18.5 -46t-45.5 -18zM20 -322q-35 0 -59 9l11 78q18 -6 29 -6q27 0 38.5 14.5t11.5 45.5v400h101v-408q0 -69 -32 -101t-100 -32z" />
    <glyph glyph-name="k.subs" horiz-adv-x="407" 
d="M132 -119q-15 -22 -43 -22h-41v540h96v-373l139 208h101l-119 -167l128 -208h-104l-80 129z" />
    <glyph glyph-name="l.subs" horiz-adv-x="219" 
d="M159 -146q-108 0 -108 100v445h100v-439q0 -24 27 -24q14 0 18 3l11 -76q-19 -9 -48 -9z" />
    <glyph glyph-name="m.subs" horiz-adv-x="634" 
d="M149 77v-218h-101v360h57q18 0 23 -16l7 -26q39 51 107 51q81 0 111 -57q16 26 45.5 41.5t64.5 15.5q65 0 96 -37t31 -100v-232h-101v218q0 34 -16 51t-42 17q-25 0 -42.5 -17t-17.5 -51v-218h-102v218q0 34 -16.5 51t-42.5 17q-25 0 -43 -17t-18 -51z" />
    <glyph glyph-name="n.subs" horiz-adv-x="415" 
d="M149 77v-218h-101v360h57q18 0 23 -16l7 -26q39 51 107 51q65 0 97 -37t32 -100v-232h-102v218q0 34 -16.5 51t-42.5 17q-25 0 -43 -17t-18 -51z" />
    <glyph glyph-name="o.subs" horiz-adv-x="396" 
d="M198 -150q-82 0 -124 54t-42 135t42 135t124 54t123.5 -54t41.5 -135t-41.5 -135t-123.5 -54zM198 -68q64 0 64 107t-64 107t-64 -107t64 -107z" />
    <glyph glyph-name="p.subs" horiz-adv-x="416" 
d="M206 -68q39 0 58 31t19 82q0 46 -16.5 73t-48.5 27q-30 0 -49.5 -26t-19.5 -77v-92q1 0 7.5 -4t12.5 -6.5t16.5 -5t20.5 -2.5zM149 -127v-194h-101v540h56q19 0 23 -16l8 -32q34 57 105 57q66 0 104.5 -47.5t38.5 -131.5q0 -94 -41 -146.5t-114 -52.5q-47 0 -79 23z" />
    <glyph glyph-name="q.subs" horiz-adv-x="416" 
d="M368 -321h-101v213q-13 -18 -40 -30t-56 -12q-64 0 -101.5 48.5t-37.5 138.5q0 87 42 139t113 52q56 0 90 -36l10 27h81v-540zM204 -67q26 0 44.5 17.5t18.5 50.5v111q-21 33 -62 33q-34 0 -53 -29t-19 -77t17.5 -77t53.5 -29z" />
    <glyph glyph-name="r.subs" horiz-adv-x="279" 
d="M149 52v-193h-101v360h57q18 0 23 -16l9 -35q28 60 98 60q19 0 32 -6l-22 -96q-13 8 -33 8q-27 0 -45 -20.5t-18 -61.5z" />
    <glyph glyph-name="s.subs" horiz-adv-x="356" 
d="M161 -149q-65 0 -128 27l25 78q66 -24 103 -24q60 0 60 33q0 28 -44 34q-139 17 -139 110q0 45 38.5 82t112.5 37q73 0 118 -21l-21 -79q-54 18 -89 18q-60 0 -60 -32q0 -25 46 -31q137 -19 137 -110q0 -52 -40 -87t-119 -35z" />
    <glyph glyph-name="t.subs" horiz-adv-x="298" 
d="M209 -150q-68 0 -100 32.5t-32 100.5v157l-62 14v65h62v105h102v-105h94v-71l-94 -12v-145q0 -31 11 -45t38 -14q17 0 31 6l12 -78q-24 -10 -62 -10z" />
    <glyph glyph-name="u.subs" horiz-adv-x="415" 
d="M289 -141l-7 51q-16 -26 -45.5 -43t-66.5 -17q-62 0 -92.5 37t-30.5 100v232h101v-218q0 -34 16.5 -51t43.5 -17q25 0 42.5 17t17.5 50v219h102v-360h-81z" />
    <glyph glyph-name="v.subs" horiz-adv-x="389" 
d="M237 -147h-54q-18 0 -26.5 6t-14.5 23l-127 337h107l72 -234l73 234h106z" />
    <glyph glyph-name="w.subs" horiz-adv-x="514" 
d="M312 -115l-52 221l-61 -253h-54q-19 0 -28 6.5t-13 25.5l-89 334h101l43 -229l56 229h71q18 0 22 -17l51 -207l47 224h92l-91 -366h-54q-19 0 -28 6.5t-13 25.5z" />
    <glyph glyph-name="x.subs" horiz-adv-x="395" 
d="M252 -121l-53 89l-67 -109h-113l124 183l-117 177h89q23 0 32 -16l51 -83l60 99h111l-115 -175l123 -185h-88q-25 0 -37 20z" />
    <glyph glyph-name="y.subs" horiz-adv-x="415" 
d="M198 -325q-80 0 -127 38l20 78q44 -31 99 -31q48 0 67 24t19 68v50q-39 -52 -106 -52q-62 0 -92.5 37t-30.5 100v232h101v-217q0 -69 60 -69q25 0 42.5 17t17.5 51v218h102v-375q0 -169 -172 -169z" />
    <glyph glyph-name="z.subs" horiz-adv-x="346" 
d="M318 -141h-289v25q0 46 24 76l131 172l-140 -2v89h265v-27q0 -43 -21 -72l-134 -173l164 1v-89z" />
    <glyph glyph-name="period.subs" horiz-adv-x="208" 
d="M104 -150q-28 0 -46.5 18.5t-18.5 46.5q0 27 18.5 45.5t46.5 18.5q27 0 45.5 -19t18.5 -45q0 -28 -18.5 -46.5t-45.5 -18.5z" />
    <glyph glyph-name="comma.subs" horiz-adv-x="204" 
d="M38 -244l-18 29q52 34 52 88q0 35 -30 50q0 23 17 39.5t42 16.5q31 0 47.5 -21t16.5 -51q0 -53 -41.5 -95.5t-85.5 -55.5z" />
    <glyph glyph-name="hyphen.subs" horiz-adv-x="454" 
d="M66 -3v91h322v-91h-322z" />
    <glyph glyph-name="parenleft.subs" horiz-adv-x="278" 
d="M190 -264q-48 50 -87.5 146t-39.5 213q0 165 82 300h95q-78 -139 -78 -300q0 -111 35.5 -206t82.5 -153h-90z" />
    <glyph glyph-name="parenright.subs" horiz-adv-x="278" 
d="M-3 -264q48 58 83.5 153.5t35.5 205.5q0 161 -78 300h94q82 -135 82 -300q0 -117 -39 -213t-88 -146h-90z" />
    <glyph glyph-name="plus.subs" horiz-adv-x="454" 
d="M388 36h-115v-116h-92v116h-115v91h115v116h92v-116h115v-91z" />
    <glyph glyph-name="minus.subs" horiz-adv-x="454" 
d="M66 36v91h322v-91h-322z" />
    <glyph glyph-name="multiply.subs" horiz-adv-x="454" 
d="M309 -65l-82 82l-81 -82l-65 65l81 82l-81 81l65 65l81 -82l82 82l64 -65l-81 -81l81 -82z" />
    <glyph glyph-name="equal.subs" horiz-adv-x="454" 
d="M66 102v87h322v-87h-322zM66 -39v87h322v-87h-322z" />
    <glyph glyph-name="divide.subs" horiz-adv-x="454" 
d="M227 161q-25 0 -42 16.5t-17 41.5q0 26 17 43t42 17t42.5 -17.5t17.5 -42.5t-17.5 -41.5t-42.5 -16.5zM66 40v83h322v-83h-322zM227 -116q-25 0 -42 17t-17 42t17 42t42 17t42.5 -17t17.5 -42t-18 -42t-42 -17z" />
    <glyph glyph-name="dollar.subs" horiz-adv-x="324" 
d="M192 -203h-58v55q-59 1 -101 24l26 72q38 -19 81 -19q71 0 71 38q0 17 -12.5 26.5t-39.5 15.5l-36 9q-95 23 -95 99q0 40 27.5 71t76.5 41v49h58v-44q48 -1 91 -17l-20 -73q-42 14 -76 14q-71 0 -71 -36q0 -27 47 -36l31 -7q106 -23 106 -103q0 -42 -27 -75t-79 -44v-60z
" />
    <glyph glyph-name="cent.subs" horiz-adv-x="276" 
d="M230 -84q-21 -11 -49 -12v-52h-63v57q-46 12 -71 47.5t-25 86.5t25 86.5t71 48.5v56h63v-51q30 -3 50 -13l-17 -72q-23 9 -44 9q-27 0 -43.5 -16t-16.5 -48t16.5 -48t43.5 -16q22 0 44 10z" />
    <glyph glyph-name="sterling.subs" horiz-adv-x="332" 
d="M304 -60v-81h-274v81h24q72 0 72 46v7h-91v45h54l-5 4q-49 46 -49 89q0 46 39.5 74.5t103.5 28.5q59 0 113 -27l-22 -71q-39 22 -85 22q-29 0 -45 -12t-16 -31t20 -37l32 -30q6 -6 9 -10h82v-45h-67v-1q0 -32 -28 -52h133z" />
    <glyph glyph-name="florin.subs" horiz-adv-x="270" 
d="M16 -274q-26 0 -47 8l16 68q8 -4 21 -4q34 0 37 37l18 200h-49l7 63h46l3 33q11 103 129 103q39 0 65 -14l-24 -67q-19 7 -37 7q-42 0 -46 -38l-3 -24h76l-7 -64h-72l-18 -206q-5 -52 -32.5 -77t-82.5 -25z" />
    <glyph glyph-name="yen.subs" horiz-adv-x="351" 
d="M305 -91h-66v-50h-87v50h-68v43h68v23h-68v44h68v17l-137 183h97l83 -122l90 122h88l-134 -183v-17h66v-44h-66v-23h66v-43z" />
    <glyph glyph-name="Euro.subs" horiz-adv-x="320" 
 />
    <glyph glyph-name="zero.numr" 
d="M167 321q-71 0 -108 55.5t-37 137.5q0 80 36.5 133.5t108.5 53.5t109 -53.5t37 -133.5q0 -82 -37 -137.5t-109 -55.5zM167 402q26 0 41.5 28t15.5 84q0 53 -15.5 79.5t-41.5 26.5q-55 0 -55 -106q0 -112 55 -112z" />
    <glyph glyph-name="one.numr" 
d="M297 329h-257v80h84v190l-79 -34v85l86 40q30 14 58 14h24v-295h84v-80z" />
    <glyph glyph-name="two.numr" 
d="M43 329v71q0 26 15 48.5t28 32t41 26.5l30 19q45 26 45 58q0 19 -16 31.5t-43 12.5q-41 0 -82 -22l-22 71q58 26 114 26q64 0 102 -29.5t38 -77.5q0 -68 -82 -121l-29 -17q-39 -24 -39 -40v-9h152v-80h-252z" />
    <glyph glyph-name="three.numr" 
d="M142 321q-61 0 -107 20l27 75q32 -14 73 -14q56 0 56 41q0 40 -56 40h-44v73h42q46 0 46 36q0 37 -48 37q-30 0 -74 -16l-20 71q46 19 107 19q63 0 94.5 -26t31.5 -68q0 -26 -14 -50.5t-32 -35.5q24 -7 41 -30t17 -52q0 -54 -34.5 -87t-105.5 -33z" />
    <glyph glyph-name="four.numr" 
d="M188 479v144l-85 -144h85zM312 408h-41v-79h-83v79h-162v67l142 225h103v-221h41v-71z" />
    <glyph glyph-name="five.numr" 
d="M134 321q-64 0 -98 19l29 77q32 -16 71 -16q36 0 56 15t20 42q0 20 -15.5 33t-42.5 13t-47 -13l-46 11v198h223v-81h-144v-55q23 7 47 7q48 0 80 -27.5t32 -80.5q0 -65 -42.5 -103.5t-122.5 -38.5z" />
    <glyph glyph-name="six.numr" 
d="M311 457q0 -58 -38 -97t-97 -39q-67 0 -109 49.5t-42 133.5v12q0 96 52 141.5t123 45.5q48 0 84 -18l-15 -74q-30 15 -71 15q-38 -1 -59 -21.5t-24 -71.5q32 35 82 35q52 0 83 -33t31 -78zM173 402q21 0 34.5 14t13.5 35t-12.5 36t-35.5 15q-41 0 -58 -38
q4 -27 19.5 -44.5t38.5 -17.5z" />
    <glyph glyph-name="seven.numr" 
d="M178 329h-98q17 150 126 291h-168v80h259l1 -57q-41 -56 -75.5 -140t-44.5 -174z" />
    <glyph glyph-name="eight.numr" 
d="M165 321q-62 0 -99 28t-37 75q0 66 72 88q-59 29 -59 88q0 45 34.5 74t91.5 29q56 0 91 -25.5t35 -65.5q0 -57 -56 -78q69 -30 69 -99q0 -52 -39 -83t-103 -31zM177 551l4 -1q28 16 28 45q0 18 -11.5 29t-29.5 11q-17 0 -29.5 -11t-12.5 -27q0 -35 51 -46zM168 392
q23 0 38.5 13.5t15.5 35.5q0 34 -49 47l-11 3q-24 -5 -36 -19.5t-12 -30.5q0 -22 15.5 -35.5t38.5 -13.5z" />
    <glyph glyph-name="nine.numr" 
d="M172 517q29 0 50 15v18q0 32 -14.5 52.5t-42.5 20.5q-23 0 -37.5 -14.5t-14.5 -37.5t16 -38.5t43 -15.5zM147 321q-66 0 -99 29l16 74q30 -25 85 -25q68 0 73 78q-30 -23 -72 -23q-59 0 -92.5 33t-33.5 84q0 58 39.5 95t102.5 37q67 0 106.5 -45t39.5 -123v-28
q0 -99 -45 -142.5t-120 -43.5z" />
    <glyph glyph-name="dollar.numr" horiz-adv-x="324" 
d="M192 266h-58v55q-59 1 -101 24l26 72q38 -19 81 -19q71 0 71 38q0 17 -12.5 26.5t-39.5 15.5l-36 9q-95 23 -95 99q0 41 27.5 71.5t76.5 40.5v49h58v-44q48 -1 91 -17l-20 -73q-42 14 -76 14q-71 0 -71 -36q0 -27 47 -36l31 -7q106 -23 106 -103q0 -42 -27 -75t-79 -44
v-60z" />
    <glyph glyph-name="parenleft.numr" horiz-adv-x="278" 
d="M190 205q-48 50 -87.5 146t-39.5 213q0 165 82 300h95q-78 -139 -78 -300q0 -111 35.5 -206t82.5 -153h-90z" />
    <glyph glyph-name="parenright.numr" horiz-adv-x="278" 
d="M-3 205q48 58 83.5 153.5t35.5 205.5q0 161 -78 300h94q82 -135 82 -300q0 -117 -39 -213t-88 -146h-90z" />
    <glyph glyph-name="hyphen.numr" horiz-adv-x="454" 
d="M66 466v91h322v-91h-322z" />
    <glyph glyph-name="zero.dnom" 
d="M167 -8q-71 0 -108 55.5t-37 137.5q0 80 36.5 133.5t108.5 53.5t109 -53.5t37 -133.5q0 -82 -37 -137.5t-109 -55.5zM167 73q26 0 41.5 28.5t15.5 83.5q0 53 -15.5 80t-41.5 27q-55 0 -55 -107q0 -112 55 -112z" />
    <glyph glyph-name="one.dnom" 
d="M297 0h-257v81h84v189l-79 -34v86l86 40q31 13 58 13h24v-294h84v-81z" />
    <glyph glyph-name="two.dnom" 
d="M43 0v72q0 36 20 58t57 45q5 3 7 4l30 18q45 28 45 58q0 19 -16 31.5t-43 12.5q-41 0 -82 -22l-22 71q60 27 114 27q64 0 102 -29.5t38 -77.5q0 -70 -82 -121l-29 -18q-39 -24 -39 -39v-9h152v-81h-252z" />
    <glyph glyph-name="three.dnom" 
d="M142 -8q-59 0 -107 21l27 74q36 -14 73 -14q56 0 56 42q0 39 -56 39h-44v73h42q46 0 46 37q0 36 -48 36q-27 0 -74 -15l-20 70q44 20 107 20t94.5 -26.5t31.5 -68.5q0 -26 -14 -50.5t-32 -34.5q24 -8 41 -31t17 -52q0 -54 -34.5 -87t-105.5 -33z" />
    <glyph glyph-name="four.dnom" 
d="M188 151v143l-85 -143h85zM312 79h-41v-79h-83v79h-162v68l142 225h103v-221h41v-72z" />
    <glyph glyph-name="five.dnom" 
d="M134 -8q-63 0 -98 20l29 76q34 -15 71 -15q76 0 76 57q0 20 -15.5 33t-42.5 13t-47 -13l-46 11v198h223v-81h-144v-56q21 8 47 8q47 0 79.5 -28t32.5 -81q0 -65 -42.5 -103.5t-122.5 -38.5z" />
    <glyph glyph-name="six.dnom" 
d="M311 129q0 -58 -38 -97.5t-97 -39.5q-67 0 -109 49.5t-42 133.5v13q0 96 52 141.5t123 45.5q51 0 84 -19l-15 -74q-28 16 -71 16q-38 -1 -59 -22t-24 -72q33 36 82 36q52 0 83 -33t31 -78zM173 73q21 0 34.5 14.5t13.5 35.5q0 20 -12.5 35t-35.5 15q-40 0 -58 -37
q4 -28 19.5 -45.5t38.5 -17.5z" />
    <glyph glyph-name="seven.dnom" 
d="M178 0h-98q17 152 126 291h-168v81h259l1 -58q-41 -56 -75.5 -139.5t-44.5 -174.5z" />
    <glyph glyph-name="eight.dnom" 
d="M165 -8q-62 0 -99 28t-37 75q0 66 72 88q-59 29 -59 89q0 45 35 74t91 29t91 -26t35 -66q0 -57 -56 -78q69 -30 69 -98q0 -53 -39 -84t-103 -31zM177 223l4 -1q28 16 28 44q0 18 -11.5 29t-29.5 11t-30 -10.5t-12 -27.5q0 -34 51 -45zM168 63q23 0 38.5 13.5t15.5 35.5
q0 35 -49 47l-11 3q-24 -5 -36 -19t-12 -31q0 -22 15.5 -35.5t38.5 -13.5z" />
    <glyph glyph-name="nine.dnom" 
d="M172 188q30 0 50 16v18q0 32 -14.5 52.5t-42.5 20.5q-23 0 -37.5 -15t-14.5 -37q0 -23 16 -39t43 -16zM147 -8q-67 0 -99 30l16 73q31 -24 85 -24q68 0 73 77q-30 -23 -72 -23q-59 0 -92.5 33t-33.5 85q0 57 39.5 94.5t102.5 37.5q67 0 106.5 -45.5t39.5 -123.5v-28
q0 -99 -45 -142.5t-120 -43.5z" />
    <glyph glyph-name="dollar.dnom" horiz-adv-x="324" 
d="M192 -62h-58v54q-57 1 -101 25l26 72q40 -20 81 -20q71 0 71 39q0 17 -12 26t-40 15l-36 9q-95 25 -95 100q0 40 27.5 70.5t76.5 41.5v49h58v-44q51 -1 91 -18l-20 -72q-48 14 -76 14q-71 0 -71 -36q0 -28 47 -37l31 -7q106 -23 106 -102q0 -43 -27 -76t-79 -44v-59z" />
    <glyph glyph-name="parenleft.dnom" horiz-adv-x="278" 
d="M190 -124q-48 50 -87.5 146.5t-39.5 212.5q0 166 82 301h95q-78 -139 -78 -301q0 -110 35 -205t83 -154h-90z" />
    <glyph glyph-name="parenright.dnom" horiz-adv-x="278" 
d="M-3 -124q48 59 83.5 154t35.5 205q0 160 -78 301h94q82 -137 82 -301q0 -117 -39 -213.5t-88 -145.5h-90z" />
    <glyph glyph-name="hyphen.dnom" horiz-adv-x="454" 
d="M66 138v91h322v-91h-322z" />
    <glyph glyph-name="IJacute" horiz-adv-x="740" 
d="M543 740l110 117h149l-156 -117h-103zM51 739l110 117h149l-156 -117h-103zM69 0v700h124v-700h-124zM451 -12q-111 0 -179 72l91 79q35 -39 87 -39q48 0 79.5 33.5t31.5 113.5v453h123v-461q0 -69 -21.5 -120.5t-57 -78.5t-74 -39.5t-80.5 -12.5z" />
    <glyph glyph-name="ijacute" horiz-adv-x="513" 
d="M327 572l60 153h130l-96 -153h-94zM72 572l60 153h130l-97 -153h-93zM68 0v500h124v-500h-124zM270 -252q-46 0 -78 12l14 96q18 -8 41 -8q39 0 56.5 21.5t17.5 67.5v563h124v-573q0 -179 -175 -179z" />
    <glyph glyph-name="gravecomb.case" horiz-adv-x="404" 
d="M180 783l-126 121h102q39 0 59 -31l60 -90h-95z" />
    <glyph glyph-name="acutecomb.case" horiz-adv-x="431" 
d="M113 786l110 116h149l-156 -116h-103z" />
    <glyph glyph-name="dieresiscomb.case" horiz-adv-x="542" 
d="M374 776q-30 0 -50 20.5t-20 51.5t20 52t50 21q29 0 49 -21t20 -52t-20 -51.5t-49 -20.5zM161 776q-29 0 -49.5 20.5t-20.5 51.5t20.5 52t49.5 21t49.5 -21t20.5 -52q0 -30 -20.5 -51t-49.5 -21z" />
    <glyph glyph-name="circumflexcomb.case" horiz-adv-x="539" 
d="M328 786l-55 60l-56 -60h-117l119 117h71q33 0 55 -22l100 -95h-117z" />
    <glyph glyph-name="tildecomb.case" horiz-adv-x="545" 
d="M118 786q-11 14 -11 43q0 37 24.5 63t68.5 26q38 0 75.5 -25.5t58.5 -25.5q19 0 29 18t10 37h58q8 -14 8 -40q0 -43 -27.5 -73t-67.5 -30t-76 25t-55 25t-28 -13.5t-9 -29.5h-58z" />
    <glyph glyph-name="exclamdown.case" horiz-adv-x="272" 
d="M136 548q-33 0 -55.5 22.5t-22.5 55.5t22.5 56t55.5 23t56 -23t23 -56t-23 -55.5t-56 -22.5zM68 0l31 475h75l31 -475h-137z" />
    <glyph glyph-name="questiondown.case" horiz-adv-x="457" 
d="M302 548q-33 0 -56 22.5t-23 55.5t23 56t56 23t56 -23t23 -56t-23 -55.5t-56 -22.5zM256 -12q-114 0 -170 52.5t-56 136.5q0 99 63.5 152t159.5 61l6 87h87l8 -159q-51 0 -94 -10t-75.5 -39t-32.5 -74q0 -103 118 -103q62 0 128 35l25 -104q-70 -35 -167 -35z" />
    <glyph glyph-name="braceleft.case" horiz-adv-x="373" 
d="M264 -12q-71 0 -116 29t-45 93q0 24 10 67t10 64q0 27 -15.5 43t-44.5 16h-17v92h17q29 0 44.5 16t15.5 42q0 21 -10 66t-10 68q0 64 45 92.5t116 28.5q36 0 62 -6l1 -82q-104 0 -104 -64q0 -20 9 -56.5t9 -55.5q0 -43 -20.5 -66.5t-52.5 -27.5v-3q73 -12 73 -93
q0 -19 -9 -54.5t-9 -55.5q0 -65 104 -65l-1 -82q-26 -6 -62 -6z" />
    <glyph glyph-name="braceright.case" horiz-adv-x="373" 
d="M109 -12q-36 0 -62 6l-1 82q104 0 104 65q0 20 -9 55.5t-9 54.5q0 81 73 93v3q-32 4 -52.5 27.5t-20.5 66.5q0 19 9 55.5t9 56.5q0 64 -104 64l1 82q26 6 62 6q71 0 116 -28.5t45 -92.5q0 -23 -10 -68t-10 -66q0 -26 15.5 -42t44.5 -16h17v-92h-17q-29 0 -44.5 -16
t-15.5 -43q0 -21 10 -64t10 -67q0 -64 -45 -93t-116 -29z" />
    <glyph glyph-name="bracketleft.case" horiz-adv-x="344" 
d="M280 94v-94h-196v700h196v-94h-72v-512h72z" />
    <glyph glyph-name="bracketright.case" horiz-adv-x="344" 
d="M260 0h-196v94h72v512h-72v94h196v-700z" />
    <glyph glyph-name="emdash.case" horiz-adv-x="1108" 
d="M140 307v113h828v-113h-828z" />
    <glyph glyph-name="endash.case" horiz-adv-x="729" 
d="M90 307v113h549v-113h-549z" />
    <glyph glyph-name="hyphen.case" horiz-adv-x="497" 
d="M79 307v113h339v-113h-339z" />
    <glyph glyph-name="guillemotleft.case" horiz-adv-x="574" 
d="M395 112l-168 200v7l168 200h125l-170 -203l170 -204h-125zM206 112l-168 200v7l168 200h125l-170 -203l170 -204h-125z" />
    <glyph glyph-name="guillemotright.case" horiz-adv-x="575" 
d="M244 112l170 204l-170 203h125l168 -200v-7l-168 -200h-125zM54 112l170 204l-170 203h125l168 -200v-7l-168 -200h-125z" />
    <glyph glyph-name="guilsinglleft.case" horiz-adv-x="385" 
d="M206 111l-168 200v7l168 200h125l-170 -203l170 -204h-125z" />
    <glyph glyph-name="guilsinglright.case" horiz-adv-x="385" 
d="M54 112l170 204l-170 203h125l168 -200v-7l-168 -200h-125z" />
    <glyph glyph-name="arrowdown.case" horiz-adv-x="617" 
d="M310 -12h-2l-194 167q-26 23 -26 63v75l173 -146l-3 165v388h101v-388l-3 -166l173 147v-75q0 -40 -26 -63z" />
    <glyph glyph-name="arrowup.case" horiz-adv-x="617" 
d="M359 380v-380h-101v380l3 166l-173 -147v75q0 41 26 63l194 168h2l193 -168q26 -22 26 -63v-75l-173 147z" />
    <glyph glyph-name="arrowupdn.case" horiz-adv-x="617" 
d="M307 -12l-192 117q-26 14 -26 61v54l172 -104l-3 114v233l3 113l-173 -104v54q0 48 26 62l194 117h2l193 -117q26 -15 26 -61v-55l-173 105l3 -114v-233l-3 -114l174 104v-53q0 -48 -27 -62l-194 -117h-2z" />
    <glyph glyph-name="arrowboth.case" horiz-adv-x="1165" 
d="M357 137q-38 0 -64 26l-193 194v2l193 192q27 27 64 27h93l-176 -174l176 4h265l177 -4l-177 174h94q37 0 64 -27l192 -192v-2l-192 -194q-26 -26 -64 -26h-94l176 173l-176 -4h-265l-175 4l175 -173h-93z" />
    <glyph glyph-name="arrowleft.case" horiz-adv-x="774" 
d="M450 306l-175 4l175 -173h-93q-38 0 -64 26l-193 194v2l193 192q27 27 64 27h93l-176 -174l176 4h244v-102h-244z" />
    <glyph glyph-name="arrowright.case" horiz-adv-x="774" 
d="M417 137h-93l175 173l-175 -4h-244v102h244l176 -4l-176 174h93q37 0 64 -27l193 -192v-2l-193 -194q-26 -26 -64 -26z" />
    <glyph glyph-name="arrowdownleft.case" horiz-adv-x="875" 
d="M431 0h-342l-1 1v330q0 43 36 69l68 48v-275l546 529l77 -84l-549 -518h272l-38 -60q-23 -40 -69 -40z" />
    <glyph glyph-name="arrowdownright.case" horiz-adv-x="874" 
d="M785 0h-343q-45 0 -68 40l-38 60h272l-548 518l76 84l546 -528v274l68 -48q36 -26 36 -69v-330z" />
    <glyph glyph-name="arrowupleft.case" horiz-adv-x="873" 
d="M813 84l-77 -84l-544 527v-275l-68 48q-36 26 -36 69v330l1 1h342q46 0 69 -40l38 -60h-272z" />
    <glyph glyph-name="arrowupright.case" horiz-adv-x="872" 
d="M680 252v275l-544 -526l-76 84l546 515h-272l38 60q23 40 69 40h342l1 -1v-330q0 -43 -36 -69z" />
    <glyph glyph-name="at.case" horiz-adv-x="1016" 
d="M448 -157q-173 0 -282 118.5t-109 310.5q0 212 131 345t330 133q191 0 316 -120.5t125 -314.5q0 -139 -57.5 -210t-137.5 -71q-68 0 -108 46t-41 117v3q-19 -80 -66 -123t-108 -43q-80 0 -131.5 62t-51.5 170q0 126 75 208.5t196 82.5q67 0 121 -29l47 18l17 -5v-341
q0 -40 18.5 -61.5t49.5 -21.5q39 0 67.5 48.5t28.5 149.5q0 164 -101.5 263.5t-258.5 99.5q-167 0 -273.5 -111t-106.5 -295q0 -161 86 -258t224 -97q65 0 116 19l20 -71q-64 -22 -136 -22zM467 142q48 0 88 71.5t40 208.5v33q-33 14 -64 14q-63 0 -104 -54.5t-41 -143.5
q0 -59 22.5 -94t58.5 -35z" />
    <glyph glyph-name="colon.case" horiz-adv-x="321" 
d="M161 383q-34 0 -56.5 22t-22.5 56q0 33 22.5 55.5t56.5 22.5q32 0 55 -22.5t23 -55.5t-22.5 -55.5t-55.5 -22.5zM161 105q-34 0 -56.5 22.5t-22.5 56.5q0 32 23 55t56 23q32 0 55 -23t23 -55q0 -34 -22.5 -56.5t-55.5 -22.5z" />
    <glyph glyph-name="periodcentered.case" horiz-adv-x="293" 
d="M147 281q-34 0 -56.5 22.5t-22.5 55.5t22.5 56t56.5 23q32 0 55 -23t23 -56t-23 -55.5t-55 -22.5z" />
    <glyph glyph-name="LA.calt" horiz-adv-x="482" 
d="M58 0v700h123v-587h284l-35 -113h-372z" />
    <glyph glyph-name="ZA.calt" horiz-adv-x="548" 
d="M492 0h-458v23q0 36 4.5 54.5t19.5 41.5l302 468h-300v113h452v-30q0 -51 -18 -79l-305 -478h338z" />
    <glyph glyph-name="EA.calt" horiz-adv-x="538" 
d="M58 0v700h460v-113h-337v-168h306v-111h-306v-195h337l-34 -113h-426z" />
    <glyph glyph-name="EgraveA.calt" horiz-adv-x="538" 
d="M261 739l-126 121h101q39 0 59 -31l61 -90h-95zM58 0v700h460v-113h-337v-168h306v-111h-306v-195h337l-34 -113h-426z" />
    <glyph glyph-name="EacuteA.calt" horiz-adv-x="538" 
d="M199 742l110 116h148l-155 -116h-103zM58 0v700h460v-113h-337v-168h306v-111h-306v-195h337l-34 -113h-426z" />
    <glyph glyph-name="EcircumflexA.calt" horiz-adv-x="538" 
d="M340 742l-55 60l-56 -60h-117l119 117h71q33 0 55 -22l100 -95h-117zM58 0v700h460v-113h-337v-168h306v-111h-306v-195h337l-34 -113h-426z" />
    <glyph glyph-name="EdieresisA.calt" horiz-adv-x="538" 
d="M387 732q-29 0 -49.5 20.5t-20.5 51.5t20.5 52t49.5 21t49.5 -21t20.5 -52t-20.5 -51.5t-49.5 -20.5zM174 732q-29 0 -49.5 20.5t-20.5 51.5t20.5 52t49.5 21t49.5 -21t20.5 -52t-20.5 -51.5t-49.5 -20.5zM58 0v700h460v-113h-337v-168h306v-111h-306v-195h337l-34 -113
h-426z" />
    <glyph glyph-name="LM.calt" horiz-adv-x="488" 
d="M58 0v700h123v-587h288l-22 -113h-389z" />
    <glyph glyph-name="EM.calt" horiz-adv-x="544" 
d="M58 0v700h460v-113h-337v-168h306v-111h-306v-195h337l-22 -113h-438z" />
    <glyph glyph-name="EgraveM.calt" horiz-adv-x="544" 
d="M261 739l-126 121h101q39 0 59 -31l61 -90h-95zM58 0v700h460v-113h-337v-168h306v-111h-306v-195h337l-22 -113h-438z" />
    <glyph glyph-name="EacuteM.calt" horiz-adv-x="544" 
d="M199 742l110 116h148l-155 -116h-103zM58 0v700h460v-113h-337v-168h306v-111h-306v-195h337l-22 -113h-438z" />
    <glyph glyph-name="EcircumflexM.calt" horiz-adv-x="544" 
d="M340 742l-55 60l-56 -60h-117l119 117h71q33 0 55 -22l100 -95h-117zM58 0v700h460v-113h-337v-168h306v-111h-306v-195h337l-22 -113h-438z" />
    <glyph glyph-name="EdieresisM.calt" horiz-adv-x="544" 
d="M387 732q-29 0 -49.5 20.5t-20.5 51.5t20.5 52t49.5 21t49.5 -21t20.5 -52t-20.5 -51.5t-49.5 -20.5zM174 732q-29 0 -49.5 20.5t-20.5 51.5t20.5 52t49.5 21t49.5 -21t20.5 -52t-20.5 -51.5t-49.5 -20.5zM58 0v700h460v-113h-337v-168h306v-111h-306v-195h337l-22 -113
h-438z" />
    <glyph glyph-name="EW.calt" horiz-adv-x="555" 
d="M58 0v700h442l18 -113h-337v-168h306v-111h-306v-195h337v-113h-460z" />
    <glyph glyph-name="EgraveW.calt" horiz-adv-x="555" 
d="M261 739l-126 121h101q39 0 59 -31l61 -90h-95zM58 0v700h442l18 -113h-337v-168h306v-111h-306v-195h337v-113h-460z" />
    <glyph glyph-name="EacuteW.calt" horiz-adv-x="555" 
d="M199 742l110 116h148l-155 -116h-103zM58 0v700h442l18 -113h-337v-168h306v-111h-306v-195h337v-113h-460z" />
    <glyph glyph-name="EcircumflexW.calt" horiz-adv-x="555" 
d="M340 742l-55 60l-56 -60h-117l119 117h71q33 0 55 -22l100 -95h-117zM58 0v700h442l18 -113h-337v-168h306v-111h-306v-195h337v-113h-460z" />
    <glyph glyph-name="EdieresisW.calt" horiz-adv-x="555" 
d="M387 732q-29 0 -49.5 20.5t-20.5 51.5t20.5 52t49.5 21t49.5 -21t20.5 -52t-20.5 -51.5t-49.5 -20.5zM174 732q-29 0 -49.5 20.5t-20.5 51.5t20.5 52t49.5 21t49.5 -21t20.5 -52t-20.5 -51.5t-49.5 -20.5zM58 0v700h442l18 -113h-337v-168h306v-111h-306v-195h337v-113
h-460z" />
    <glyph glyph-name="EV.calt" horiz-adv-x="547" 
d="M58 0v700h426l34 -113h-337v-168h306v-111h-306v-195h337v-113h-460z" />
    <glyph glyph-name="EgraveV.calt" horiz-adv-x="547" 
d="M261 739l-126 121h101q39 0 59 -31l61 -90h-95zM58 0v700h426l34 -113h-337v-168h306v-111h-306v-195h337v-113h-460z" />
    <glyph glyph-name="EacuteV.calt" horiz-adv-x="547" 
d="M199 742l110 116h148l-155 -116h-103zM58 0v700h426l34 -113h-337v-168h306v-111h-306v-195h337v-113h-460z" />
    <glyph glyph-name="EcircumflexV.calt" horiz-adv-x="547" 
d="M340 742l-55 60l-56 -60h-117l119 117h71q33 0 55 -22l100 -95h-117zM58 0v700h426l34 -113h-337v-168h306v-111h-306v-195h337v-113h-460z" />
    <glyph glyph-name="EdieresisV.calt" horiz-adv-x="547" 
d="M387 732q-29 0 -49.5 20.5t-20.5 51.5t20.5 52t49.5 21t49.5 -21t20.5 -52t-20.5 -51.5t-49.5 -20.5zM174 732q-29 0 -49.5 20.5t-20.5 51.5t20.5 52t49.5 21t49.5 -21t20.5 -52t-20.5 -51.5t-49.5 -20.5zM58 0v700h426l34 -113h-337v-168h306v-111h-306v-195h337v-113
h-460z" />
    <glyph glyph-name="TW.calt" horiz-adv-x="555" 
d="M216 0v583l-191 19v98h489l17 -98l-192 -19v-583h-123z" />
    <glyph glyph-name="TV.calt" horiz-adv-x="548" 
d="M216 0v583l-191 19v98h478l28 -98l-192 -19v-583h-123z" />
    </font>
</defs>
</svg>
